{
.appVersion = "1277";
copyright = "Copyright 2010 Google Inc. All Rights Reserved.";
customParameters = (
{
name = glyphOrder;
value = (
.notdef,
.null,
nonmarkingreturn,
space,
exclam,
quotedbl,
numbersign,
dollar,
percent,
ampersand,
quotesingle,
parenleft,
parenright,
asterisk,
plus,
comma,
hyphen,
period,
slash,
zero,
one,
two,
three,
four,
five,
six,
seven,
eight,
nine,
colon,
semicolon,
less,
equal,
greater,
question,
at,
A,
B,
C,
D,
E,
F,
G,
H,
I,
J,
K,
L,
M,
N,
O,
P,
Q,
R,
S,
T,
U,
V,
W,
X,
Y,
Z,
bracketleft,
backslash,
bracketright,
asciicircum,
underscore,
grave,
a,
b,
c,
d,
e,
f,
g,
h,
i,
j,
k,
l,
m,
n,
o,
p,
q,
r,
s,
t,
u,
v,
w,
x,
y,
z,
braceleft,
bar,
braceright,
asciitilde,
Adieresis,
Aring,
Ccedilla,
Eacute,
Ntilde,
Odieresis,
Udieresis,
aacute,
agrave,
acircumflex,
adieresis,
atilde,
aring,
ccedilla,
eacute,
egrave,
ecircumflex,
edieresis,
iacute,
igrave,
icircumflex,
idieresis,
ntilde,
oacute,
ograve,
ocircumflex,
odieresis,
otilde,
uacute,
ugrave,
ucircumflex,
udieresis,
dagger,
degree,
cent,
sterling,
section,
bullet,
paragraph,
germandbls,
registered,
copyright,
trademark,
acute,
dieresis,
notequal,
AE,
Oslash,
infinity,
plusminus,
lessequal,
greaterequal,
yen,
mu1,
partialdiff,
summation,
product,
integral,
ordfeminine,
ordmasculine,
Ohm,
ae,
oslash,
questiondown,
exclamdown,
logicalnot,
radical,
florin,
approxequal,
uni2206,
guillemotleft,
guillemotright,
ellipsis,
Agrave,
Atilde,
Otilde,
OE,
oe,
endash,
emdash,
quotedblleft,
quotedblright,
quoteleft,
quoteright,
divide,
lozenge,
ydieresis,
Ydieresis,
fraction,
Euro,
guilsinglleft,
guilsinglright,
fi,
fl,
daggerdbl,
periodcentered,
quotesinglbase,
quotedblbase,
perthousand,
Acircumflex,
Ecircumflex,
Aacute,
Edieresis,
Egrave,
Iacute,
Icircumflex,
Idieresis,
Igrave,
Oacute,
Ocircumflex,
Ograve,
Uacute,
Ucircumflex,
Ugrave,
dotlessi,
circumflex,
tilde,
uni02C9,
breve,
dotaccent,
ring,
cedilla,
hungarumlaut,
ogonek,
caron,
Lslash,
lslash,
Scaron,
scaron,
Zcaron,
zcaron,
brokenbar,
Eth,
eth,

glyphs = (
{
glyphname = .notdef;
lastChange = "2019-12-03 14:54:35 +0000";
layers = (
{
layerId = "BC15D09A-B757-48E3-911F-803B0089DB3F";
paths = (
{
closed = 1;
nodes = (
"897 0 LINE",
"897 750 LINE",
"127 750 LINE",
"127 0 LINE"
);
},
{
closed = 1;
nodes = (
"768 129 LINE",
"256 129 LINE",
"256 621 LINE",
"768 621 LINE"
);
}
);
width = 1229;
}
);
note = .notdef;
},
{
glyphname = exclam;
lastChange = "2019-12-03 14:54:35 +0000";
layers = (
{
layerId = "BC15D09A-B757-48E3-911F-803B0089DB3F";
paths = (
{
closed = 1;
nodes = (
"713 1348 LINE",
"517 1348 LINE",
"541 397 LINE",
"689 397 LINE"
);
},
{
closed = 1;
nodes = (
"709 0 LINE",
"709 201 LINE",
"515 201 LINE",
"515 0 LINE"
);
}
);
width = 1229;
}
);
note = exclam;
unicode = 0021;
},
{
glyphname = quotedbl;
lastChange = "2019-12-03 14:54:35 +0000";
layers = (
{
layerId = "BC15D09A-B757-48E3-911F-803B0089DB3F";
paths = (
{
closed = 1;
nodes = (
"950 1484 LINE",
"726 1484 LINE",
"766 845 LINE",
"908 845 LINE"
);
},
{
closed = 1;
nodes = (
"501 1484 LINE",
"277 1484 LINE",
"318 845 LINE",
"459 845 LINE"
);
}
);
width = 1229;
}
);
note = quotedbl;
unicode = 0022;
},
{
glyphname = numbersign;
lastChange = "2019-12-03 14:54:35 +0000";
layers = (
{
layerId = "BC15D09A-B757-48E3-911F-803B0089DB3F";
paths = (
{
closed = 1;
nodes = (
"1163 833 LINE",
"1163 941 LINE",
"952 941 LINE",
"1040 1349 LINE",
"930 1349 LINE",
"842 941 LINE",
"479 941 LINE",
"567 1349 LINE",
"457 1349 LINE",
"368 941 LINE",
"105 941 LINE",
"105 833 LINE",
"346 833 LINE",
"279 516 LINE",
"54 516 LINE",
"54 408 LINE",
"255 408 LINE",
"171 0 LINE",
"281 0 LINE",
"365 408 LINE",
"728 408 LINE",
"642 0 LINE",
"752 0 LINE",
"840 408 LINE",
"1123 408 LINE",
"1123 516 LINE",
"863 516 LINE",
"930 833 LINE"
);
},
{
closed = 1;
nodes = (
"819 833 LINE",
"752 516 LINE",
"390 516 LINE",
"459 833 LINE"
);
}
);
width = 1229;
}
);
note = numbersign;
unicode = 0023;
},
{
glyphname = dollar;
lastChange = "2019-12-03 14:54:35 +0000";
layers = (
{
layerId = "BC15D09A-B757-48E3-911F-803B0089DB3F";
paths = (
{
closed = 1;
nodes = (
"1150 460 OFFCURVE",
"1104 581 OFFCURVE",
"1012 673 OFFCURVE",
"858 745 OFFCURVE",
"686 787 QCURVE",
"686 1213 LINE",
"795 1206 OFFCURVE",
"923 1098 OFFCURVE",
"945 992 QCURVE",
"1119 1025 LINE",
"1074 1194 OFFCURVE",
"872 1339 OFFCURVE",
"686 1346 QCURVE",
"686 1476 LINE",
"558 1476 LINE",
"558 1346 LINE",
"349 1339 OFFCURVE",
"130 1172 OFFCURVE",
"130 1023 QCURVE SMOOTH",
"130 929 OFFCURVE",
"203 793 OFFCURVE",
"360 696 OFFCURVE",
"528 655 QCURVE SMOOTH",
"558 647 LINE",
"558 158 LINE",
"422 165 OFFCURVE",
"262 290 OFFCURVE",
"236 416 QCURVE",
"66 379 LINE",
"136 34 OFFCURVE",
"558 20 QCURVE",
"558 -141 LINE",
"686 -141 LINE",
"686 20 LINE",
"910 29 OFFCURVE",
"1150 218 OFFCURVE",
"1150 380 QCURVE SMOOTH"
);
},
{
closed = 1;
nodes = (
"302 1109 OFFCURVE",
"432 1210 OFFCURVE",
"558 1215 QCURVE",
"558 802 LINE",
"439 833 OFFCURVE",
"349 884 OFFCURVE",
"302 961 OFFCURVE",
"302 1018 QCURVE SMOOTH"
);
},
{
closed = 1;
nodes = (
"978 282 OFFCURVE",
"830 165 OFFCURVE",
"686 156 QCURVE",
"686 627 LINE",
"823 592 OFFCURVE",
"923 535 OFFCURVE",
"978 449 OFFCURVE",
"978 383 QCURVE SMOOTH"
);
}
);
width = 1229;
}
);
note = dollar;
unicode = 0024;
},
{
glyphname = percent;
lastChange = "2019-12-03 14:54:35 +0000";
layers = (
{
layerId = "BC15D09A-B757-48E3-911F-803B0089DB3F";
paths = (
{
closed = 1;
nodes = (
"1155 1353 LINE",
"1008 1353 LINE",
"76 0 LINE",
"221 0 LINE"
);
},
{
closed = 1;
nodes = (
"140 1361 OFFCURVE",
"0 1192 OFFCURVE",
"0 1025 QCURVE SMOOTH",
"0 856 OFFCURVE",
"146 684 OFFCURVE",
"287 684 QCURVE SMOOTH",
"428 684 OFFCURVE",
"574 858 OFFCURVE",
"574 1025 QCURVE SMOOTH",
"574 1361 OFFCURVE",
"291 1361 QCURVE SMOOTH"
);
},
{
closed = 1;
nodes = (
"427 908 OFFCURVE",
"360 797 OFFCURVE",
"289 797 QCURVE SMOOTH",
"213 797 OFFCURVE",
"147 909 OFFCURVE",
"147 1025 QCURVE SMOOTH",
"147 1147 OFFCURVE",
"213 1253 OFFCURVE",
"290 1253 QCURVE SMOOTH",
"364 1253 OFFCURVE",
"427 1144 OFFCURVE",
"427 1025 QCURVE SMOOTH"
);
},
{
closed = 1;
nodes = (
"796 665 OFFCURVE",
"656 496 OFFCURVE",
"656 329 QCURVE SMOOTH",
"656 160 OFFCURVE",
"802 -12 OFFCURVE",
"943 -12 QCURVE SMOOTH",
"1084 -12 OFFCURVE",
"1230 162 OFFCURVE",
"1230 329 QCURVE SMOOTH",
"1230 665 OFFCURVE",
"947 665 QCURVE SMOOTH"
);
},
{
closed = 1;
nodes = (
"1083 212 OFFCURVE",
"1016 101 OFFCURVE",
"945 101 QCURVE SMOOTH",
"869 101 OFFCURVE",
"803 213 OFFCURVE",
"803 329 QCURVE SMOOTH",
"803 451 OFFCURVE",
"869 557 OFFCURVE",
"946 557 QCURVE SMOOTH",
"1020 557 OFFCURVE",
"1083 448 OFFCURVE",
"1083 329 QCURVE SMOOTH"
);
}
);
width = 1229;
}
);
note = percent;
unicode = 0025;
},
{
glyphname = ampersand;
lastChange = "2019-12-03 14:54:35 +0000";
layers = (
{
layerId = "BC15D09A-B757-48E3-911F-803B0089DB3F";
paths = (
{
closed = 1;
nodes = (
"1137 -12 OFFCURVE",
"1185 10 QCURVE",
"1185 145 LINE",
"1148 129 OFFCURVE",
"1090 129 QCURVE SMOOTH",
"1050 129 OFFCURVE",
"953 180 OFFCURVE",
"910 234 QCURVE",
"1028 460 OFFCURVE",
"1072 696 QCURVE",
"927 739 LINE",
"890 515 OFFCURVE",
"802 333 QCURVE",
"657 491 OFFCURVE",
"525 722 QCURVE",
"704 797 OFFCURVE",
"853 898 OFFCURVE",
"932 1015 OFFCURVE",
"932 1090 QCURVE SMOOTH",
"932 1213 OFFCURVE",
"757 1357 OFFCURVE",
"611 1357 QCURVE SMOOTH",
"445 1357 OFFCURVE",
"260 1195 OFFCURVE",
"260 1059 QCURVE SMOOTH",
"260 990 OFFCURVE",
"303 837 OFFCURVE",
"335 777 QCURVE",
"43 626 OFFCURVE",
"43 358 QCURVE SMOOTH",
"43 180 OFFCURVE",
"262 -20 OFFCURVE",
"461 -20 QCURVE SMOOTH",
"655 -20 OFFCURVE",
"808 117 QCURVE",
"858 58 OFFCURVE",
"999 -12 OFFCURVE",
"1072 -12 QCURVE SMOOTH"
);
},
{
closed = 1;
nodes = (
"780 1038 OFFCURVE",
"728 963 OFFCURVE",
"630 900 OFFCURVE",
"469 832 QCURVE",
"408 946 OFFCURVE",
"408 1056 QCURVE SMOOTH",
"408 1138 OFFCURVE",
"519 1236 OFFCURVE",
"608 1236 QCURVE SMOOTH",
"684 1236 OFFCURVE",
"780 1155 OFFCURVE",
"780 1085 QCURVE SMOOTH"
);
},
{
closed = 1;
nodes = (
"658 166 OFFCURVE",
"533 111 OFFCURVE",
"469 111 QCURVE SMOOTH",
"349 111 OFFCURVE",
"211 247 OFFCURVE",
"211 362 QCURVE SMOOTH",
"211 561 OFFCURVE",
"390 658 QCURVE",
"526 420 OFFCURVE",
"706 217 QCURVE"
);
}
);
width = 1229;
}
);
note = ampersand;
unicode = 0026;
},
{
glyphname = quotesingle;
lastChange = "2019-12-03 14:54:35 +0000";
layers = (
{
layerId = "BC15D09A-B757-48E3-911F-803B0089DB3F";
paths = (
{
closed = 1;
nodes = (
"726 1484 LINE",
"502 1484 LINE",
"543 845 LINE",
"684 845 LINE"
);
}
);
width = 1229;
}
);
note = quotesingle;
unicode = 0027;
},
{
glyphname = parenleft;
lastChange = "2019-12-03 14:54:35 +0000";
layers = (
{
layerId = "BC15D09A-B757-48E3-911F-803B0089DB3F";
paths = (
{
closed = 1;
nodes = (
"529 803 OFFCURVE",
"699 1248 OFFCURVE",
"891 1484 QCURVE",
"701 1484 LINE",
"506 1244 OFFCURVE",
"342 805 OFFCURVE",
"342 532 QCURVE SMOOTH",
"342 254 OFFCURVE",
"509 -189 OFFCURVE",
"701 -425 QCURVE",
"891 -425 LINE",
"699 -189 OFFCURVE",
"529 255 OFFCURVE",
"529 530 QCURVE SMOOTH"
);
}
);
width = 1229;
}
);
note = parenleft;
unicode = 0028;
},
{
glyphname = parenright;
lastChange = "2019-12-03 14:54:35 +0000";
layers = (
{
layerId = "BC15D09A-B757-48E3-911F-803B0089DB3F";
paths = (
{
closed = 1;
nodes = (
"885 808 OFFCURVE",
"723 1244 OFFCURVE",
"528 1484 QCURVE",
"336 1484 LINE",
"532 1243 OFFCURVE",
"700 798 OFFCURVE",
"700 530 QCURVE SMOOTH",
"700 261 OFFCURVE",
"532 -184 OFFCURVE",
"336 -425 QCURVE",
"528 -425 LINE",
"720 -189 OFFCURVE",
"885 252 OFFCURVE",
"885 532 QCURVE SMOOTH"
);
}
);
width = 1229;
}
);
note = parenright;
unicode = 0029;
},
{
glyphname = asterisk;
lastChange = "2019-12-03 14:54:35 +0000";
layers = (
{
layerId = "BC15D09A-B757-48E3-911F-803B0089DB3F";
paths = (
{
closed = 1;
nodes = (
"684 1483 LINE",
"548 1483 LINE",
"560 1186 LINE",
"293 1293 LINE",
"248 1159 LINE",
"528 1086 LINE",
"339 838 LINE",
"458 766 LINE",
"614 1022 LINE",
"764 764 LINE",
"883 836 LINE",
"698 1086 LINE",
"980 1159 LINE",
"935 1291 LINE",
"671 1188 LINE"
);
}
);
width = 1229;
}
);
note = asterisk;
unicode = 002A;
},
{
glyphname = plus;
lastChange = "2019-12-03 14:54:35 +0000";
layers = (
{
layerId = "BC15D09A-B757-48E3-911F-803B0089DB3F";
paths = (
{
closed = 1;
nodes = (
"1111 608 LINE",
"1111 754 LINE",
"687 754 LINE",
"687 1182 LINE",
"540 1182 LINE",
"540 754 LINE",
"116 754 LINE",
"116 608 LINE",
"540 608 LINE",
"540 180 LINE",
"687 180 LINE",
"687 608 LINE"
);
}
);
width = 1229;
}
);
note = plus;
unicode = 002B;
},
{
glyphname = comma;
lastChange = "2019-12-03 14:54:35 +0000";
layers = (
{
layerId = "BC15D09A-B757-48E3-911F-803B0089DB3F";
paths = (
{
closed = 1;
nodes = (
"382 -363 LINE",
"693 299 LINE",
"428 299 LINE",
"259 -363 LINE"
);
}
);
width = 1229;
}
);
note = comma;
unicode = 002C;
},
{
glyphname = hyphen;
lastChange = "2019-12-03 14:54:35 +0000";
layers = (
{
layerId = "BC15D09A-B757-48E3-911F-803B0089DB3F";
paths = (
{
closed = 1;
nodes = (
"894 464 LINE",
"894 624 LINE",
"334 624 LINE",
"334 464 LINE"
);
}
);
width = 1229;
}
);
note = hyphen;
unicode = "002D,00AD";
},
{
glyphname = period;
lastChange = "2019-12-03 14:54:35 +0000";
layers = (
{
layerId = "BC15D09A-B757-48E3-911F-803B0089DB3F";
paths = (
{
closed = 1;
nodes = (
"731 0 LINE",
"731 299 LINE",
"496 299 LINE",
"496 0 LINE"
);
}
);
width = 1229;
}
);
note = period;
unicode = 002E;
},
{
glyphname = slash;
lastChange = "2019-12-03 14:54:35 +0000";
layers = (
{
layerId = "BC15D09A-B757-48E3-911F-803B0089DB3F";
paths = (
{
closed = 1;
nodes = (
"296 -20 LINE",
"1113 1484 LINE",
"935 1484 LINE",
"114 -20 LINE"
);
}
);
width = 1229;
}
);
note = slash;
unicode = 002F;
},
{
glyphname = zero;
lastChange = "2019-12-03 14:54:35 +0000";
layers = (
{
layerId = "BC15D09A-B757-48E3-911F-803B0089DB3F";
paths = (
{
closed = 1;
nodes = (
"1103 1021 OFFCURVE",
"866 1370 OFFCURVE",
"617 1370 QCURVE SMOOTH",
"362 1370 OFFCURVE",
"124 1024 OFFCURVE",
"124 675 QCURVE SMOOTH",
"124 335 OFFCURVE",
"368 -20 OFFCURVE",
"611 -20 QCURVE SMOOTH",
"854 -20 OFFCURVE",
"1103 337 OFFCURVE",
"1103 675 QCURVE SMOOTH"
);
},
{
closed = 1;
nodes = (
"920 397 OFFCURVE",
"772 127 OFFCURVE",
"613 127 QCURVE SMOOTH",
"453 127 OFFCURVE",
"306 390 OFFCURVE",
"306 675 QCURVE SMOOTH",
"306 968 OFFCURVE",
"451 1224 OFFCURVE",
"617 1224 QCURVE SMOOTH",
"779 1224 OFFCURVE",
"920 965 OFFCURVE",
"920 675 QCURVE SMOOTH"
);
},
{
closed = 1;
nodes = (
"731 555 LINE",
"731 804 LINE",
"496 804 LINE",
"496 555 LINE"
);
}
);
width = 1229;
}
);
note = zero;
unicode = 0030;
},
{
glyphname = one;
lastChange = "2019-12-03 14:54:35 +0000";
layers = (
{
layerId = "BC15D09A-B757-48E3-911F-803B0089DB3F";
paths = (
{
closed = 1;
nodes = (
"1130 0 LINE",
"1130 145 LINE",
"777 145 LINE",
"777 1349 LINE",
"611 1349 LINE",
"559 1250 OFFCURVE",
"296 1120 OFFCURVE",
"148 1120 QCURVE",
"148 972 LINE",
"282 972 OFFCURVE",
"559 1088 OFFCURVE",
"596 1166 QCURVE",
"596 145 LINE",
"157 145 LINE",
"157 0 LINE"
);
}
);
width = 1229;
}
);
note = one;
unicode = 0031;
},
{
glyphname = two;
lastChange = "2019-12-03 14:54:35 +0000";
layers = (
{
layerId = "BC15D09A-B757-48E3-911F-803B0089DB3F";
paths = (
{
closed = 1;
nodes = (
"1084 0 LINE",
"1084 146 LINE",
"361 146 LINE",
"394 219 OFFCURVE",
"553 374 OFFCURVE",
"759 538 QCURVE SMOOTH",
"910 658 OFFCURVE",
"1062 887 OFFCURVE",
"1062 1002 QCURVE SMOOTH",
"1062 1178 OFFCURVE",
"824 1370 OFFCURVE",
"611 1370 QCURVE SMOOTH",
"417 1370 OFFCURVE",
"179 1171 OFFCURVE",
"159 1001 QCURVE",
"343 984 LINE",
"356 1097 OFFCURVE",
"497 1222 OFFCURVE",
"611 1222 QCURVE SMOOTH",
"739 1222 OFFCURVE",
"877 1102 OFFCURVE",
"877 991 QCURVE SMOOTH",
"877 904 OFFCURVE",
"737 716 OFFCURVE",
"578 589 QCURVE SMOOTH",
"400 447 OFFCURVE",
"193 226 OFFCURVE",
"144 117 QCURVE",
"144 0 LINE"
);
}
);
width = 1229;
}
);
note = two;
unicode = 0032;
},
{
glyphname = three;
lastChange = "2019-12-03 14:54:35 +0000";
layers = (
{
layerId = "BC15D09A-B757-48E3-911F-803B0089DB3F";
paths = (
{
closed = 1;
nodes = (
"1099 494 OFFCURVE",
"916 672 OFFCURVE",
"765 689 QCURVE",
"765 693 LINE",
"902 721 OFFCURVE",
"1060 897 OFFCURVE",
"1060 1016 QCURVE SMOOTH",
"1060 1183 OFFCURVE",
"825 1370 OFFCURVE",
"613 1370 QCURVE SMOOTH",
"419 1370 OFFCURVE",
"172 1176 OFFCURVE",
"152 1003 QCURVE",
"333 989 LINE",
"345 1100 OFFCURVE",
"492 1222 OFFCURVE",
"611 1222 QCURVE SMOOTH",
"742 1222 OFFCURVE",
"875 1103 OFFCURVE",
"875 997 QCURVE SMOOTH",
"875 926 OFFCURVE",
"793 822 OFFCURVE",
"650 765 OFFCURVE",
"564 765 QCURVE SMOOTH",
"466 765 LINE",
"466 609 LINE",
"568 609 LINE SMOOTH",
"665 609 OFFCURVE",
"821 554 OFFCURVE",
"912 451 OFFCURVE",
"912 376 QCURVE SMOOTH",
"912 255 OFFCURVE",
"757 129 OFFCURVE",
"621 129 QCURVE SMOOTH",
"350 129 OFFCURVE",
"314 379 QCURVE",
"128 362 LINE",
"151 174 OFFCURVE",
"407 -20 OFFCURVE",
"621 -20 QCURVE SMOOTH",
"847 -20 OFFCURVE",
"1099 184 OFFCURVE",
"1099 370 QCURVE SMOOTH"
);
}
);
width = 1229;
}
);
note = three;
unicode = 0033;
},
{
glyphname = four;
lastChange = "2019-12-03 14:54:35 +0000";
layers = (
{
layerId = "BC15D09A-B757-48E3-911F-803B0089DB3F";
paths = (
{
closed = 1;
nodes = (
"1125 319 LINE",
"1125 461 LINE",
"937 461 LINE",
"937 1349 LINE",
"738 1349 LINE",
"103 459 LINE",
"103 319 LINE",
"757 319 LINE",
"757 0 LINE",
"937 0 LINE",
"937 319 LINE"
);
},
{
closed = 1;
nodes = (
"757 461 LINE",
"257 461 LINE",
"757 1154 LINE"
);
}
);
width = 1229;
}
);
note = four;
unicode = 0034;
},
{
glyphname = five;
lastChange = "2019-12-03 14:54:35 +0000";
layers = (
{
layerId = "BC15D09A-B757-48E3-911F-803B0089DB3F";
paths = (
{
closed = 1;
nodes = (
"1099 634 OFFCURVE",
"848 869 OFFCURVE",
"644 869 QCURVE SMOOTH",
"470 869 OFFCURVE",
"353 779 QCURVE",
"382 1204 LINE",
"1017 1204 LINE",
"1017 1349 LINE",
"216 1349 LINE",
"169 621 LINE",
"345 621 LINE",
"408 676 OFFCURVE",
"534 722 OFFCURVE",
"607 722 QCURVE SMOOTH",
"746 722 OFFCURVE",
"912 564 OFFCURVE",
"912 440 QCURVE SMOOTH",
"912 295 OFFCURVE",
"744 127 OFFCURVE",
"603 127 QCURVE SMOOTH",
"367 127 OFFCURVE",
"310 336 QCURVE",
"128 315 LINE",
"160 152 OFFCURVE",
"402 -20 OFFCURVE",
"599 -20 QCURVE SMOOTH",
"754 -20 OFFCURVE",
"981 95 OFFCURVE",
"1099 305 OFFCURVE",
"1099 444 QCURVE SMOOTH"
);
}
);
width = 1229;
}
);
note = five;
unicode = 0035;
},
{
glyphname = six;
lastChange = "2019-12-03 14:54:35 +0000";
layers = (
{
layerId = "BC15D09A-B757-48E3-911F-803B0089DB3F";
paths = (
{
closed = 1;
nodes = (
"1096 644 OFFCURVE",
"864 881 OFFCURVE",
"672 881 QCURVE SMOOTH",
"557 881 OFFCURVE",
"379 786 OFFCURVE",
"330 695 QCURVE",
"330 946 OFFCURVE",
"500 1224 OFFCURVE",
"653 1224 QCURVE SMOOTH",
"832 1224 OFFCURVE",
"885 1052 QCURVE",
"1057 1083 LINE",
"974 1370 OFFCURVE",
"655 1370 QCURVE SMOOTH",
"415 1370 OFFCURVE",
"151 990 OFFCURVE",
"151 642 QCURVE SMOOTH",
"151 325 OFFCURVE",
"405 -20 OFFCURVE",
"641 -20 QCURVE SMOOTH",
"853 -20 OFFCURVE",
"1096 234 OFFCURVE",
"1096 446 QCURVE SMOOTH"
);
},
{
closed = 1;
nodes = (
"913 293 OFFCURVE",
"762 125 OFFCURVE",
"635 125 QCURVE SMOOTH",
"509 125 OFFCURVE",
"348 329 OFFCURVE",
"348 481 QCURVE SMOOTH",
"348 556 OFFCURVE",
"423 675 OFFCURVE",
"555 742 OFFCURVE",
"629 742 QCURVE SMOOTH",
"760 742 OFFCURVE",
"913 582 OFFCURVE",
"913 438 QCURVE SMOOTH"
);
}
);
width = 1229;
}
);
note = six;
unicode = 0036;
},
{
glyphname = seven;
lastChange = "2019-12-03 14:54:35 +0000";
layers = (
{
layerId = "BC15D09A-B757-48E3-911F-803B0089DB3F";
paths = (
{
closed = 1;
nodes = (
"1069 1349 LINE",
"158 1349 LINE",
"158 1204 LINE",
"895 1204 LINE",
"653 872 OFFCURVE",
"408 263 OFFCURVE",
"408 0 QCURVE",
"596 0 LINE",
"596 530 OFFCURVE",
"1069 1210 QCURVE"
);
}
);
width = 1229;
}
);
note = seven;
unicode = 0037;
},
{
glyphname = eight;
lastChange = "2019-12-03 14:54:35 +0000";
layers = (
{
layerId = "BC15D09A-B757-48E3-911F-803B0089DB3F";
paths = (
{
closed = 1;
nodes = (
"1094 511 OFFCURVE",
"939 688 OFFCURVE",
"809 709 QCURVE",
"809 713 LINE",
"921 735 OFFCURVE",
"1059 909 OFFCURVE",
"1059 1022 QCURVE SMOOTH",
"1059 1123 OFFCURVE",
"951 1281 OFFCURVE",
"747 1370 OFFCURVE",
"610 1370 QCURVE SMOOTH",
"479 1370 OFFCURVE",
"277 1282 OFFCURVE",
"166 1122 OFFCURVE",
"166 1024 QCURVE SMOOTH",
"166 912 OFFCURVE",
"302 738 OFFCURVE",
"414 711 QCURVE",
"414 707 LINE",
"291 686 OFFCURVE",
"133 505 OFFCURVE",
"133 376 QCURVE SMOOTH",
"133 190 OFFCURVE",
"388 -20 OFFCURVE",
"614 -20 QCURVE SMOOTH",
"845 -20 OFFCURVE",
"1094 194 OFFCURVE",
"1094 378 QCURVE SMOOTH"
);
},
{
closed = 1;
nodes = (
"872 779 OFFCURVE",
"612 779 QCURVE SMOOTH",
"488 779 OFFCURVE",
"350 901 OFFCURVE",
"350 1012 QCURVE SMOOTH",
"350 1122 OFFCURVE",
"487 1236 OFFCURVE",
"610 1236 QCURVE SMOOTH",
"737 1236 OFFCURVE",
"872 1123 OFFCURVE",
"872 1012 QCURVE SMOOTH"
);
},
{
closed = 1;
nodes = (
"907 253 OFFCURVE",
"763 115 OFFCURVE",
"616 115 QCURVE SMOOTH",
"470 115 OFFCURVE",
"319 256 OFFCURVE",
"319 391 QCURVE SMOOTH",
"319 505 OFFCURVE",
"474 644 OFFCURVE",
"610 644 QCURVE SMOOTH",
"751 644 OFFCURVE",
"907 515 OFFCURVE",
"907 395 QCURVE SMOOTH"
);
}
);
width = 1229;
}
);
note = eight;
unicode = 0038;
},
{
glyphname = nine;
lastChange = "2019-12-03 14:54:35 +0000";
layers = (
{
layerId = "BC15D09A-B757-48E3-911F-803B0089DB3F";
paths = (
{
closed = 1;
nodes = (
"1087 1370 OFFCURVE",
"610 1370 QCURVE SMOOTH",
"392 1370 OFFCURVE",
"141 1123 OFFCURVE",
"141 911 QCURVE SMOOTH",
"141 706 OFFCURVE",
"370 451 OFFCURVE",
"559 451 QCURVE SMOOTH",
"675 451 OFFCURVE",
"869 560 OFFCURVE",
"909 650 QCURVE",
"907 404 OFFCURVE",
"734 125 OFFCURVE",
"580 125 QCURVE SMOOTH",
"396 125 OFFCURVE",
"342 301 QCURVE",
"170 274 LINE",
"213 119 OFFCURVE",
"412 -20 OFFCURVE",
"577 -20 QCURVE SMOOTH",
"821 -20 OFFCURVE",
"1087 357 OFFCURVE",
"1087 703 QCURVE SMOOTH"
);
},
{
closed = 1;
nodes = (
"891 785 OFFCURVE",
"813 662 OFFCURVE",
"678 593 OFFCURVE",
"602 593 QCURVE SMOOTH",
"474 593 OFFCURVE",
"324 768 OFFCURVE",
"324 911 QCURVE SMOOTH",
"324 1050 OFFCURVE",
"474 1224 OFFCURVE",
"604 1224 QCURVE SMOOTH",
"731 1224 OFFCURVE",
"891 1023 OFFCURVE",
"891 862 QCURVE SMOOTH"
);
}
);
width = 1229;
}
);
note = nine;
unicode = 0039;
},
{
glyphname = colon;
lastChange = "2019-12-03 14:54:35 +0000";
layers = (
{
layerId = "BC15D09A-B757-48E3-911F-803B0089DB3F";
paths = (
{
closed = 1;
nodes = (
"731 0 LINE",
"731 299 LINE",
"496 299 LINE",
"496 0 LINE"
);
},
{
closed = 1;
nodes = (
"731 783 LINE",
"731 1082 LINE",
"496 1082 LINE",
"496 783 LINE"
);
}
);
width = 1229;
}
);
note = colon;
unicode = 003A;
},
{
glyphname = semicolon;
lastChange = "2019-12-03 14:54:35 +0000";
layers = (
{
layerId = "BC15D09A-B757-48E3-911F-803B0089DB3F";
paths = (
{
closed = 1;
nodes = (
"731 783 LINE",
"731 1082 LINE",
"496 1082 LINE",
"496 783 LINE"
);
},
{
closed = 1;
nodes = (
"475 -363 LINE",
"786 299 LINE",
"521 299 LINE",
"352 -363 LINE"
);
}
);
width = 1229;
}
);
note = semicolon;
unicode = "003B,037E";
},
{
glyphname = less;
lastChange = "2019-12-03 14:54:35 +0000";
layers = (
{
layerId = "BC15D09A-B757-48E3-911F-803B0089DB3F";
paths = (
{
closed = 1;
nodes = (
"1111 154 LINE",
"1111 307 LINE",
"253 674 LINE",
"1111 1040 LINE",
"1111 1194 LINE",
"116 776 LINE",
"116 571 LINE"
);
}
);
width = 1229;
}
);
note = less;
unicode = 003C;
},
{
glyphname = equal;
lastChange = "2019-12-03 14:54:35 +0000";
layers = (
{
layerId = "BC15D09A-B757-48E3-911F-803B0089DB3F";
paths = (
{
closed = 1;
nodes = (
"1111 856 LINE",
"1111 1004 LINE",
"116 1004 LINE",
"116 856 LINE"
);
},
{
closed = 1;
nodes = (
"1111 344 LINE",
"1111 492 LINE",
"116 492 LINE",
"116 344 LINE"
);
}
);
width = 1229;
}
);
note = equal;
unicode = 003D;
},
{
glyphname = greater;
lastChange = "2019-12-03 14:54:35 +0000";
layers = (
{
layerId = "BC15D09A-B757-48E3-911F-803B0089DB3F";
paths = (
{
closed = 1;
nodes = (
"1111 571 LINE",
"1111 776 LINE",
"116 1194 LINE",
"116 1040 LINE",
"974 674 LINE",
"116 307 LINE",
"116 154 LINE"
);
}
);
width = 1229;
}
);
note = greater;
unicode = 003E;
},
{
glyphname = question;
lastChange = "2019-12-03 14:54:35 +0000";
layers = (
{
layerId = "BC15D09A-B757-48E3-911F-803B0089DB3F";
paths = (
{
closed = 1;
nodes = (
"1073 1177 OFFCURVE",
"817 1370 OFFCURVE",
"594 1370 QCURVE SMOOTH",
"387 1370 OFFCURVE",
"120 1157 OFFCURVE",
"94 960 QCURVE",
"278 948 LINE",
"292 1074 OFFCURVE",
"461 1220 OFFCURVE",
"596 1220 QCURVE SMOOTH",
"732 1220 OFFCURVE",
"891 1103 OFFCURVE",
"891 994 QCURVE SMOOTH",
"891 939 OFFCURVE",
"851 854 OFFCURVE",
"784 780 OFFCURVE",
"677 702 QCURVE SMOOTH",
"582 631 OFFCURVE",
"503 538 OFFCURVE",
"458 427 OFFCURVE",
"456 357 QCURVE",
"631 357 LINE",
"632 412 OFFCURVE",
"673 498 OFFCURVE",
"744 572 OFFCURVE",
"854 652 QCURVE SMOOTH",
"946 718 OFFCURVE",
"1029 815 OFFCURVE",
"1073 929 OFFCURVE",
"1073 1002 QCURVE SMOOTH"
);
},
{
closed = 1;
nodes = (
"643 0 LINE",
"643 201 LINE",
"448 201 LINE",
"448 0 LINE"
);
}
);
width = 1229;
}
);
note = question;
unicode = 003F;
},
{
glyphname = at;
lastChange = "2019-12-03 14:54:35 +0000";
layers = (
{
layerId = "BC15D09A-B757-48E3-911F-803B0089DB3F";
paths = (
{
closed = 1;
nodes = (
"1189 972 OFFCURVE",
"1063 1303 OFFCURVE",
"830 1484 OFFCURVE",
"672 1484 QCURVE SMOOTH",
"484 1484 OFFCURVE",
"198 1243 OFFCURVE",
"44 800 OFFCURVE",
"44 514 QCURVE SMOOTH",
"44 276 OFFCURVE",
"178 -89 OFFCURVE",
"429 -283 OFFCURVE",
"594 -283 QCURVE SMOOTH",
"713 -283 OFFCURVE",
"929 -193 OFFCURVE",
"1044 -94 QCURVE",
"973 -7 LINE",
"872 -95 OFFCURVE",
"698 -165 OFFCURVE",
"604 -165 QCURVE SMOOTH",
"402 -165 OFFCURVE",
"170 205 OFFCURVE",
"170 514 QCURVE SMOOTH",
"170 763 OFFCURVE",
"294 1153 OFFCURVE",
"522 1368 OFFCURVE",
"670 1368 QCURVE SMOOTH",
"850 1368 OFFCURVE",
"1068 1027 OFFCURVE",
"1068 753 QCURVE SMOOTH",
"1068 504 OFFCURVE",
"969 206 OFFCURVE",
"891 206 QCURVE SMOOTH",
"842 206 OFFCURVE",
"842 294 QCURVE SMOOTH",
"842 362 OFFCURVE",
"882 572 QCURVE SMOOTH",
"981 1079 LINE",
"865 1079 LINE",
"833 928 LINE",
"828 928 LINE",
"806 1018 OFFCURVE",
"715 1101 OFFCURVE",
"644 1101 QCURVE SMOOTH",
"541 1101 OFFCURVE",
"374 936 OFFCURVE",
"277 650 OFFCURVE",
"277 489 QCURVE SMOOTH",
"277 304 OFFCURVE",
"396 104 OFFCURVE",
"502 104 QCURVE SMOOTH",
"580 104 OFFCURVE",
"703 211 OFFCURVE",
"737 299 QCURVE",
"743 299 LINE",
"741 269 LINE",
"741 261 LINE SMOOTH",
"741 104 OFFCURVE",
"884 104 QCURVE SMOOTH",
"1024 104 OFFCURVE",
"1189 457 OFFCURVE",
"1189 755 QCURVE SMOOTH"
);
},
{
closed = 1;
nodes = (
"775 714 OFFCURVE",
"718 400 OFFCURVE",
"600 210 OFFCURVE",
"526 210 QCURVE SMOOTH",
"412 210 OFFCURVE",
"412 491 QCURVE SMOOTH",
"412 623 OFFCURVE",
"477 866 OFFCURVE",
"583 999 OFFCURVE",
"646 999 QCURVE SMOOTH",
"705 999 OFFCURVE",
"775 890 OFFCURVE",
"775 784 QCURVE SMOOTH"
);
}
);
width = 1229;
}
);
note = at;
unicode = 0040;
},
{
glyphname = A;
lastChange = "2019-12-03 14:54:35 +0000";
layers = (
{
layerId = "BC15D09A-B757-48E3-911F-803B0089DB3F";
paths = (
{
closed = 1;
nodes = (
"1228 0 LINE",
"727 1349 LINE",
"510 1349 LINE",
"0 0 LINE",
"196 0 LINE",
"333 382 LINE",
"896 382 LINE",
"1034 0 LINE"
);
},
{
closed = 1;
nodes = (
"674 1031 LINE",
"847 531 LINE",
"384 531 LINE",
"535 954 LINE",
"604 1166 LINE",
"616 1205 LINE"
);
}
);
width = 1229;
}
);
note = A;
unicode = 0041;
},
{
glyphname = B;
lastChange = "2019-12-03 14:54:35 +0000";
layers = (
{
layerId = "BC15D09A-B757-48E3-911F-803B0089DB3F";
paths = (
{
closed = 1;
nodes = (
"1152 515 OFFCURVE",
"969 693 OFFCURVE",
"802 711 QCURVE",
"926 736 OFFCURVE",
"1070 900 OFFCURVE",
"1070 1022 QCURVE SMOOTH",
"1070 1349 OFFCURVE",
"574 1349 QCURVE SMOOTH",
"162 1349 LINE",
"162 0 LINE",
"634 0 LINE SMOOTH",
"878 0 OFFCURVE",
"1152 200 OFFCURVE",
"1152 380 QCURVE SMOOTH"
);
},
{
closed = 1;
nodes = (
"878 780 OFFCURVE",
"578 780 QCURVE SMOOTH",
"353 780 LINE",
"353 1196 LINE",
"576 1196 LINE SMOOTH",
"727 1196 OFFCURVE",
"878 1105 OFFCURVE",
"878 998 QCURVE SMOOTH"
);
},
{
closed = 1;
nodes = (
"959 274 OFFCURVE",
"794 153 OFFCURVE",
"619 153 QCURVE SMOOTH",
"353 153 LINE",
"353 631 LINE",
"605 631 LINE SMOOTH",
"781 631 OFFCURVE",
"959 511 OFFCURVE",
"959 397 QCURVE SMOOTH"
);
}
);
width = 1229;
}
);
note = B;
unicode = 0042;
},
{
glyphname = C;
lastChange = "2019-12-03 14:54:35 +0000";
layers = (
{
layerId = "BC15D09A-B757-48E3-911F-803B0089DB3F";
paths = (
{
closed = 1;
nodes = (
"314 956 OFFCURVE",
"479 1214 OFFCURVE",
"650 1214 QCURVE SMOOTH",
"753 1214 OFFCURVE",
"910 1083 OFFCURVE",
"947 970 QCURVE",
"1115 1035 LINE",
"988 1370 OFFCURVE",
"649 1370 QCURVE SMOOTH",
"113 1370 OFFCURVE",
"113 681 QCURVE SMOOTH",
"113 342 OFFCURVE",
"396 -20 OFFCURVE",
"659 -20 QCURVE SMOOTH",
"993 -20 OFFCURVE",
"1142 352 QCURVE",
"983 417 LINE",
"926 272 OFFCURVE",
"762 135 OFFCURVE",
"661 135 QCURVE SMOOTH",
"485 135 OFFCURVE",
"314 408 OFFCURVE",
"314 681 QCURVE SMOOTH"
);
}
);
width = 1229;
}
);
note = C;
unicode = 0043;
},
{
glyphname = D;
lastChange = "2019-12-03 14:54:35 +0000";
layers = (
{
layerId = "BC15D09A-B757-48E3-911F-803B0089DB3F";
paths = (
{
closed = 1;
nodes = (
"1125 1020 OFFCURVE",
"802 1349 OFFCURVE",
"473 1349 QCURVE SMOOTH",
"162 1349 LINE",
"162 0 LINE",
"532 0 LINE SMOOTH",
"818 0 OFFCURVE",
"1125 357 OFFCURVE",
"1125 688 QCURVE SMOOTH"
);
},
{
closed = 1;
nodes = (
"933 422 OFFCURVE",
"727 156 OFFCURVE",
"515 156 QCURVE SMOOTH",
"353 156 LINE",
"353 1193 LINE",
"474 1193 LINE SMOOTH",
"713 1193 OFFCURVE",
"933 952 OFFCURVE",
"933 688 QCURVE SMOOTH"
);
}
);
width = 1229;
}
);
note = D;
unicode = 0044;
},
{
glyphname = E;
lastChange = "2019-12-03 14:54:35 +0000";
layers = (
{
layerId = "BC15D09A-B757-48E3-911F-803B0089DB3F";
paths = (
{
closed = 1;
nodes = (
"1122 0 LINE",
"1122 156 LINE",
"353 156 LINE",
"353 617 LINE",
"1021 617 LINE",
"1021 771 LINE",
"353 771 LINE",
"353 1193 LINE",
"1081 1193 LINE",
"1081 1349 LINE",
"162 1349 LINE",
"162 0 LINE"
);
}
);
width = 1229;
}
);
note = E;
unicode = 0045;
},
{
glyphname = F;
lastChange = "2019-12-03 14:54:35 +0000";
layers = (
{
layerId = "BC15D09A-B757-48E3-911F-803B0089DB3F";
paths = (
{
closed = 1;
nodes = (
"1085 1193 LINE",
"1085 1349 LINE",
"194 1349 LINE",
"194 0 LINE",
"385 0 LINE",
"385 541 LINE",
"1061 541 LINE",
"1061 699 LINE",
"385 699 LINE",
"385 1193 LINE"
);
}
);
width = 1229;
}
);
note = F;
unicode = 0046;
},
{
glyphname = G;
lastChange = "2019-12-03 14:54:35 +0000";
layers = (
{
layerId = "BC15D09A-B757-48E3-911F-803B0089DB3F";
paths = (
{
closed = 1;
nodes = (
"1101 705 LINE",
"622 705 LINE",
"622 545 LINE",
"915 545 LINE",
"915 209 LINE",
"869 177 OFFCURVE",
"723 135 OFFCURVE",
"655 135 QCURVE SMOOTH",
"314 135 OFFCURVE",
"314 681 QCURVE SMOOTH",
"314 962 OFFCURVE",
"475 1214 OFFCURVE",
"644 1214 QCURVE SMOOTH",
"852 1214 OFFCURVE",
"932 983 QCURVE",
"1103 1039 LINE",
"988 1370 OFFCURVE",
"642 1370 QCURVE SMOOTH",
"377 1370 OFFCURVE",
"113 1028 OFFCURVE",
"113 681 QCURVE SMOOTH",
"113 351 OFFCURVE",
"389 -20 OFFCURVE",
"639 -20 QCURVE SMOOTH",
"872 -20 OFFCURVE",
"1101 133 QCURVE"
);
}
);
width = 1229;
}
);
note = G;
unicode = 0047;
},
{
glyphname = H;
lastChange = "2019-12-03 14:54:35 +0000";
layers = (
{
layerId = "BC15D09A-B757-48E3-911F-803B0089DB3F";
paths = (
{
closed = 1;
nodes = (
"1066 0 LINE",
"1066 1349 LINE",
"875 1349 LINE",
"875 783 LINE",
"353 783 LINE",
"353 1349 LINE",
"162 1349 LINE",
"162 0 LINE",
"353 0 LINE",
"353 623 LINE",
"875 623 LINE",
"875 0 LINE"
);
}
);
width = 1229;
}
);
note = H;
unicode = 0048;
},
{
glyphname = I;
lastChange = "2019-12-03 14:54:35 +0000";
layers = (
{
layerId = "BC15D09A-B757-48E3-911F-803B0089DB3F";
paths = (
{
closed = 1;
nodes = (
"202 1193 LINE",
"518 1193 LINE",
"518 156 LINE",
"202 156 LINE",
"202 0 LINE",
"1025 0 LINE",
"1025 156 LINE",
"709 156 LINE",
"709 1193 LINE",
"1025 1193 LINE",
"1025 1349 LINE",
"202 1349 LINE"
);
}
);
width = 1229;
}
);
note = I;
unicode = 0049;
},
{
glyphname = J;
lastChange = "2019-12-03 14:54:35 +0000";
layers = (
{
layerId = "BC15D09A-B757-48E3-911F-803B0089DB3F";
paths = (
{
closed = 1;
nodes = (
"986 1349 LINE",
"485 1349 LINE",
"485 1193 LINE",
"796 1193 LINE",
"796 416 LINE SMOOTH",
"796 135 OFFCURVE",
"587 135 QCURVE SMOOTH",
"498 135 OFFCURVE",
"381 263 OFFCURVE",
"363 381 QCURVE",
"176 350 LINE",
"211 158 OFFCURVE",
"415 -20 OFFCURVE",
"586 -20 QCURVE SMOOTH",
"776 -20 OFFCURVE",
"986 211 OFFCURVE",
"986 420 QCURVE SMOOTH"
);
}
);
width = 1229;
}
);
note = J;
unicode = 004A;
},
{
glyphname = K;
lastChange = "2019-12-03 14:54:35 +0000";
layers = (
{
layerId = "BC15D09A-B757-48E3-911F-803B0089DB3F";
paths = (
{
closed = 1;
nodes = (
"1227 0 LINE",
"646 777 LINE",
"1150 1349 LINE",
"925 1349 LINE",
"353 676 LINE",
"353 1349 LINE",
"162 1349 LINE",
"162 0 LINE",
"353 0 LINE",
"353 469 LINE",
"516 638 LINE",
"1003 0 LINE"
);
}
);
width = 1229;
}
);
note = K;
unicode = 004B;
},
{
glyphname = L;
lastChange = "2019-12-03 14:54:35 +0000";
layers = (
{
layerId = "BC15D09A-B757-48E3-911F-803B0089DB3F";
paths = (
{
closed = 1;
nodes = (
"1100 0 LINE",
"1100 156 LINE",
"428 156 LINE",
"428 1349 LINE",
"237 1349 LINE",
"237 0 LINE"
);
}
);
width = 1229;
}
);
note = L;
unicode = 004C;
},
{
glyphname = M;
lastChange = "2019-12-03 14:54:35 +0000";
layers = (
{
layerId = "BC15D09A-B757-48E3-911F-803B0089DB3F";
paths = (
{
closed = 1;
nodes = (
"1099 0 LINE",
"1099 1349 LINE",
"874 1349 LINE",
"689 859 LINE",
"645 719 LINE",
"619 629 LINE",
"572 807 OFFCURVE",
"551 860 QCURVE SMOOTH",
"366 1349 LINE",
"129 1349 LINE",
"129 0 LINE",
"289 0 LINE",
"289 868 LINE",
"285 1169 LINE",
"363 924 OFFCURVE",
"381 878 QCURVE SMOOTH",
"547 440 LINE",
"684 440 LINE",
"848 878 LINE SMOOTH",
"879 963 OFFCURVE",
"943 1169 QCURVE",
"940 1069 LINE SMOOTH",
"937 1003 OFFCURVE",
"937 868 QCURVE SMOOTH",
"937 0 LINE"
);
}
);
width = 1229;
}
);
note = M;
unicode = 004D;
},
{
glyphname = N;
lastChange = "2019-12-03 14:54:35 +0000";
layers = (
{
layerId = "BC15D09A-B757-48E3-911F-803B0089DB3F";
paths = (
{
closed = 1;
nodes = (
"1066 0 LINE",
"1066 1349 LINE",
"894 1349 LINE",
"894 485 LINE SMOOTH",
"894 355 OFFCURVE",
"912 211 QCURVE",
"384 1349 LINE",
"162 1349 LINE",
"162 0 LINE",
"332 0 LINE",
"332 876 LINE SMOOTH",
"332 958 OFFCURVE",
"316 1130 QCURVE",
"836 0 LINE"
);
}
);
width = 1229;
}
);
note = N;
unicode = 004E;
},
{
glyphname = O;
lastChange = "2019-12-03 14:54:35 +0000";
layers = (
{
layerId = "BC15D09A-B757-48E3-911F-803B0089DB3F";
paths = (
{
closed = 1;
nodes = (
"1126 1023 OFFCURVE",
"862 1370 OFFCURVE",
"615 1370 QCURVE SMOOTH",
"362 1370 OFFCURVE",
"102 1018 OFFCURVE",
"102 681 QCURVE SMOOTH",
"102 338 OFFCURVE",
"364 -20 OFFCURVE",
"613 -20 QCURVE SMOOTH",
"861 -20 OFFCURVE",
"1126 344 OFFCURVE",
"1126 681 QCURVE SMOOTH"
);
},
{
closed = 1;
nodes = (
"925 415 OFFCURVE",
"777 135 OFFCURVE",
"614 135 QCURVE SMOOTH",
"461 135 OFFCURVE",
"303 411 OFFCURVE",
"303 681 QCURVE SMOOTH",
"303 1214 OFFCURVE",
"615 1214 QCURVE SMOOTH",
"925 1214 OFFCURVE",
"925 681 QCURVE SMOOTH"
);
}
);
width = 1229;
}
);
note = O;
unicode = 004F;
},
{
glyphname = P;
lastChange = "2019-12-03 14:54:35 +0000";
layers = (
{
layerId = "BC15D09A-B757-48E3-911F-803B0089DB3F";
paths = (
{
closed = 1;
nodes = (
"1119 1136 OFFCURVE",
"860 1349 OFFCURVE",
"622 1349 QCURVE SMOOTH",
"162 1349 LINE",
"162 0 LINE",
"353 0 LINE",
"353 514 LINE",
"634 514 LINE SMOOTH",
"779 514 OFFCURVE",
"1000 624 OFFCURVE",
"1119 820 OFFCURVE",
"1119 945 QCURVE SMOOTH"
);
},
{
closed = 1;
nodes = (
"927 811 OFFCURVE",
"756 665 OFFCURVE",
"607 665 QCURVE SMOOTH",
"353 665 LINE",
"353 1196 LINE",
"599 1196 LINE SMOOTH",
"927 1196 OFFCURVE",
"927 942 QCURVE SMOOTH"
);
}
);
width = 1229;
}
);
note = P;
unicode = 0050;
},
{
glyphname = Q;
lastChange = "2019-12-03 14:54:35 +0000";
layers = (
{
layerId = "BC15D09A-B757-48E3-911F-803B0089DB3F";
paths = (
{
closed = 1;
nodes = (
"1126 1023 OFFCURVE",
"862 1370 OFFCURVE",
"615 1370 QCURVE SMOOTH",
"362 1370 OFFCURVE",
"102 1018 OFFCURVE",
"102 681 QCURVE SMOOTH",
"102 361 OFFCURVE",
"332 6 OFFCURVE",
"551 -16 QCURVE",
"614 -218 OFFCURVE",
"809 -387 OFFCURVE",
"959 -387 QCURVE SMOOTH",
"1044 -387 OFFCURVE",
"1137 -365 QCURVE",
"1137 -231 LINE",
"1077 -244 OFFCURVE",
"1022 -244 QCURVE SMOOTH",
"921 -244 OFFCURVE",
"787 -130 OFFCURVE",
"746 -4 QCURVE",
"929 40 OFFCURVE",
"1126 391 OFFCURVE",
"1126 681 QCURVE SMOOTH"
);
},
{
closed = 1;
nodes = (
"925 415 OFFCURVE",
"777 135 OFFCURVE",
"614 135 QCURVE SMOOTH",
"461 135 OFFCURVE",
"303 411 OFFCURVE",
"303 681 QCURVE SMOOTH",
"303 1214 OFFCURVE",
"615 1214 QCURVE SMOOTH",
"925 1214 OFFCURVE",
"925 681 QCURVE SMOOTH"
);
}
);
width = 1229;
}
);
note = Q;
unicode = 0051;
},
{
glyphname = R;
lastChange = "2019-12-03 14:54:35 +0000";
layers = (
{
layerId = "BC15D09A-B757-48E3-911F-803B0089DB3F";
paths = (
{
closed = 1;
nodes = (
"1177 0 LINE",
"777 597 LINE",
"934 623 OFFCURVE",
"1121 827 OFFCURVE",
"1121 976 QCURVE SMOOTH",
"1121 1156 OFFCURVE",
"877 1349 OFFCURVE",
"644 1349 QCURVE SMOOTH",
"162 1349 LINE",
"162 0 LINE",
"353 0 LINE",
"353 575 LINE",
"591 575 LINE",
"957 0 LINE"
);
},
{
closed = 1;
nodes = (
"929 854 OFFCURVE",
"776 726 OFFCURVE",
"633 726 QCURVE SMOOTH",
"353 726 LINE",
"353 1196 LINE",
"625 1196 LINE SMOOTH",
"929 1196 OFFCURVE",
"929 973 QCURVE SMOOTH"
);
}
);
width = 1229;
}
);
note = R;
unicode = 0052;
},
{
glyphname = S;
lastChange = "2019-12-03 14:54:35 +0000";
layers = (
{
layerId = "BC15D09A-B757-48E3-911F-803B0089DB3F";
paths = (
{
closed = 1;
nodes = (
"1128 445 OFFCURVE",
"1089 555 OFFCURVE",
"1021 637 OFFCURVE",
"926 697 OFFCURVE",
"804 744 OFFCURVE",
"665 779 QCURVE SMOOTH",
"596 797 OFFCURVE",
"475 829 OFFCURVE",
"384 878 OFFCURVE",
"331 953 OFFCURVE",
"331 1013 QCURVE SMOOTH",
"331 1226 OFFCURVE",
"614 1226 QCURVE SMOOTH",
"739 1226 OFFCURVE",
"883 1125 OFFCURVE",
"907 1013 QCURVE",
"1095 1046 LINE",
"1051 1222 OFFCURVE",
"827 1370 OFFCURVE",
"615 1370 QCURVE SMOOTH",
"388 1370 OFFCURVE",
"145 1183 OFFCURVE",
"145 1010 QCURVE SMOOTH",
"145 936 OFFCURVE",
"187 826 OFFCURVE",
"269 741 OFFCURVE",
"406 675 OFFCURVE",
"567 633 QCURVE SMOOTH",
"635 616 OFFCURVE",
"768 581 OFFCURVE",
"874 525 OFFCURVE",
"939 437 OFFCURVE",
"939 367 QCURVE SMOOTH",
"939 253 OFFCURVE",
"774 129 OFFCURVE",
"615 129 QCURVE SMOOTH",
"468 129 OFFCURVE",
"292 246 OFFCURVE",
"264 375 QCURVE",
"79 338 LINE",
"153 -20 OFFCURVE",
"610 -20 QCURVE SMOOTH",
"859 -20 OFFCURVE",
"1128 186 OFFCURVE",
"1128 370 QCURVE SMOOTH"
);
}
);
width = 1229;
}
);
note = S;
unicode = 0053;
},
{
glyphname = T;
lastChange = "2019-12-03 14:54:35 +0000";
layers = (
{
layerId = "BC15D09A-B757-48E3-911F-803B0089DB3F";
paths = (
{
closed = 1;
nodes = (
"1152 1193 LINE",
"1152 1349 LINE",
"76 1349 LINE",
"76 1193 LINE",
"519 1193 LINE",
"519 0 LINE",
"709 0 LINE",
"709 1193 LINE"
);
}
);
width = 1229;
}
);
note = T;
unicode = 0054;
},
{
glyphname = U;
lastChange = "2019-12-03 14:54:35 +0000";
layers = (
{
layerId = "BC15D09A-B757-48E3-911F-803B0089DB3F";
paths = (
{
closed = 1;
nodes = (
"1085 1349 LINE",
"895 1349 LINE",
"895 511 LINE SMOOTH",
"895 299 OFFCURVE",
"765 135 OFFCURVE",
"604 135 QCURVE SMOOTH",
"450 135 OFFCURVE",
"333 294 OFFCURVE",
"333 498 QCURVE SMOOTH",
"333 1349 LINE",
"142 1349 LINE",
"142 472 LINE SMOOTH",
"142 215 OFFCURVE",
"361 -20 OFFCURVE",
"605 -20 QCURVE SMOOTH",
"857 -20 OFFCURVE",
"1085 223 OFFCURVE",
"1085 490 QCURVE SMOOTH"
);
}
);
width = 1229;
}
);
note = U;
unicode = 0055;
},
{
glyphname = V;
lastChange = "2019-12-03 14:54:35 +0000";
layers = (
{
layerId = "BC15D09A-B757-48E3-911F-803B0089DB3F";
paths = (
{
closed = 1;
nodes = (
"1218 1349 LINE",
"1017 1349 LINE",
"699 447 LINE SMOOTH",
"655 317 OFFCURVE",
"615 168 QCURVE",
"562 361 OFFCURVE",
"531 447 QCURVE SMOOTH",
"211 1349 LINE",
"10 1349 LINE",
"515 0 LINE",
"713 0 LINE"
);
}
);
width = 1229;
}
);
note = V;
unicode = 0056;
},
{
glyphname = W;
lastChange = "2019-12-03 14:54:35 +0000";
layers = (
{
layerId = "BC15D09A-B757-48E3-911F-803B0089DB3F";
paths = (
{
closed = 1;
nodes = (
"1228 1349 LINE",
"1039 1349 LINE",
"935 514 LINE",
"900 168 LINE",
"851 388 OFFCURVE",
"772 678 OFFCURVE",
"703 931 QCURVE",
"528 931 LINE",
"406 486 OFFCURVE",
"363 306 OFFCURVE",
"331 168 QCURVE",
"314 383 OFFCURVE",
"298 514 QCURVE SMOOTH",
"189 1349 LINE",
"0 1349 LINE",
"211 0 LINE",
"419 0 LINE",
"538 429 OFFCURVE",
"587 631 OFFCURVE",
"616 756 QCURVE",
"659 564 OFFCURVE",
"736 276 OFFCURVE",
"810 0 QCURVE",
"1018 0 LINE"
);
}
);
width = 1229;
}
);
note = W;
unicode = 0057;
},
{
glyphname = X;
lastChange = "2019-12-03 14:54:35 +0000";
layers = (
{
layerId = "BC15D09A-B757-48E3-911F-803B0089DB3F";
paths = (
{
closed = 1;
nodes = (
"282 1349 LINE",
"77 1349 LINE",
"512 705 LINE",
"36 0 LINE",
"241 0 LINE",
"614 573 LINE",
"988 0 LINE",
"1193 0 LINE",
"717 705 LINE",
"1152 1349 LINE",
"947 1349 LINE",
"614 836 LINE"
);
}
);
width = 1229;
}
);
note = X;
unicode = 0058;
},
{
glyphname = Y;
lastChange = "2019-12-03 14:54:35 +0000";
layers = (
{
layerId = "BC15D09A-B757-48E3-911F-803B0089DB3F";
paths = (
{
closed = 1;
nodes = (
"1192 1349 LINE",
"987 1349 LINE",
"615 738 LINE",
"241 1349 LINE",
"36 1349 LINE",
"520 584 LINE",
"520 0 LINE",
"708 0 LINE",
"708 584 LINE"
);
}
);
width = 1229;
}
);
note = Y;
unicode = 0059;
},
{
glyphname = Z;
lastChange = "2019-12-03 14:54:35 +0000";
layers = (
{
layerId = "BC15D09A-B757-48E3-911F-803B0089DB3F";
paths = (
{
closed = 1;
nodes = (
"1155 156 LINE",
"290 156 LINE",
"1108 1210 LINE",
"1108 1349 LINE",
"146 1349 LINE",
"146 1193 LINE",
"891 1193 LINE",
"73 143 LINE",
"73 0 LINE",
"1155 0 LINE"
);
}
);
width = 1229;
}
);
note = Z;
unicode = 005A;
},
{
glyphname = bracketleft;
lastChange = "2019-12-03 14:54:35 +0000";
layers = (
{
layerId = "BC15D09A-B757-48E3-911F-803B0089DB3F";
paths = (
{
closed = 1;
nodes = (
"957 -425 LINE",
"957 -286 LINE",
"590 -286 LINE",
"590 1345 LINE",
"957 1345 LINE",
"957 1484 LINE",
"410 1484 LINE",
"410 -425 LINE"
);
}
);
width = 1229;
}
);
note = bracketleft;
unicode = 005B;
},
{
glyphname = backslash;
lastChange = "2019-12-03 14:54:35 +0000";
layers = (
{
layerId = "BC15D09A-B757-48E3-911F-803B0089DB3F";
paths = (
{
closed = 1;
nodes = (
"1114 -20 LINE",
"293 1484 LINE",
"115 1484 LINE",
"932 -20 LINE"
);
}
);
width = 1229;
}
);
note = backslash;
unicode = 005C;
},
{
glyphname = bracketright;
lastChange = "2019-12-03 14:54:35 +0000";
layers = (
{
layerId = "BC15D09A-B757-48E3-911F-803B0089DB3F";
paths = (
{
closed = 1;
nodes = (
"817 -425 LINE",
"817 1484 LINE",
"270 1484 LINE",
"270 1345 LINE",
"637 1345 LINE",
"637 -286 LINE",
"270 -286 LINE",
"270 -425 LINE"
);
}
);
width = 1229;
}
);
note = bracketright;
unicode = 005D;
},
{
glyphname = asciicircum;
lastChange = "2019-12-03 14:54:35 +0000";
layers = (
{
layerId = "BC15D09A-B757-48E3-911F-803B0089DB3F";
paths = (
{
closed = 1;
nodes = (
"1094 442 LINE",
"714 1349 LINE",
"511 1349 LINE",
"133 442 LINE",
"285 442 LINE",
"611 1245 LINE",
"940 442 LINE"
);
}
);
width = 1229;
}
);
note = asciicircum;
unicode = 005E;
},
{
glyphname = underscore;
lastChange = "2019-12-03 14:54:35 +0000";
layers = (
{
layerId = "BC15D09A-B757-48E3-911F-803B0089DB3F";
paths = (
{
closed = 1;
nodes = (
"1233 -220 LINE",
"1233 -124 LINE",
"-5 -124 LINE",
"-5 -220 LINE"
);
}
);
width = 1229;
}
);
note = underscore;
unicode = 005F;
},
{
glyphname = grave;
lastChange = "2019-12-03 14:54:35 +0000";
layers = (
{
layerId = "BC15D09A-B757-48E3-911F-803B0089DB3F";
paths = (
{
closed = 1;
nodes = (
"826 1201 LINE",
"826 1221 LINE",
"599 1460 LINE",
"402 1460 LINE",
"402 1431 LINE",
"702 1201 LINE"
);
}
);
width = 1229;
}
);
note = grave;
unicode = 0060;
},
{
glyphname = a;
lastChange = "2019-12-03 14:54:35 +0000";
layers = (
{
layerId = "BC15D09A-B757-48E3-911F-803B0089DB3F";
paths = (
{
closed = 1;
nodes = (
"1042 111 OFFCURVE",
"1000 192 OFFCURVE",
"1000 272 QCURVE SMOOTH",
"1000 738 LINE SMOOTH",
"1000 915 OFFCURVE",
"799 1102 OFFCURVE",
"599 1102 QCURVE SMOOTH",
"222 1102 OFFCURVE",
"176 810 QCURVE",
"364 793 LINE",
"374 881 OFFCURVE",
"478 965 OFFCURVE",
"596 965 QCURVE SMOOTH",
"712 965 OFFCURVE",
"818 850 OFFCURVE",
"818 719 QCURVE SMOOTH",
"818 660 LINE",
"582 656 LINE SMOOTH",
"128 651 OFFCURVE",
"128 302 QCURVE SMOOTH",
"128 152 OFFCURVE",
"288 -20 OFFCURVE",
"446 -20 QCURVE SMOOTH",
"576 -20 OFFCURVE",
"753 86 OFFCURVE",
"818 207 QCURVE",
"824 207 LINE",
"830 95 OFFCURVE",
"921 -10 OFFCURVE",
"1021 -10 QCURVE SMOOTH",
"1092 -10 OFFCURVE",
"1160 6 QCURVE",
"1160 118 LINE",
"1127 111 OFFCURVE",
"1101 111 QCURVE SMOOTH"
);
},
{
closed = 1;
nodes = (
"406 117 OFFCURVE",
"317 217 OFFCURVE",
"317 299 QCURVE SMOOTH",
"317 381 OFFCURVE",
"386 480 OFFCURVE",
"510 528 OFFCURVE",
"628 530 QCURVE SMOOTH",
"818 534 LINE",
"818 445 LINE SMOOTH",
"818 363 OFFCURVE",
"736 209 OFFCURVE",
"588 117 OFFCURVE",
"492 117 QCURVE SMOOTH"
);
}
);
width = 1229;
}
);
note = a;
unicode = 0061;
},
{
glyphname = b;
lastChange = "2019-12-03 14:54:35 +0000";
layers = (
{
layerId = "BC15D09A-B757-48E3-911F-803B0089DB3F";
paths = (
{
closed = 1;
nodes = (
"1090 1104 OFFCURVE",
"699 1104 QCURVE SMOOTH",
"456 1104 OFFCURVE",
"365 904 QCURVE",
"361 904 LINE",
"365 996 OFFCURVE",
"365 1061 QCURVE SMOOTH",
"365 1484 LINE",
"185 1484 LINE",
"185 223 LINE SMOOTH",
"185 54 OFFCURVE",
"179 0 QCURVE",
"353 0 LINE",
"355 12 OFFCURVE",
"362 116 OFFCURVE",
"362 164 QCURVE",
"364 164 LINE",
"454 -20 OFFCURVE",
"698 -20 QCURVE SMOOTH",
"887 -20 OFFCURVE",
"1090 262 OFFCURVE",
"1090 546 QCURVE SMOOTH"
);
},
{
closed = 1;
nodes = (
"904 322 OFFCURVE",
"783 113 OFFCURVE",
"648 113 QCURVE SMOOTH",
"497 113 OFFCURVE",
"365 315 OFFCURVE",
"365 524 QCURVE SMOOTH",
"365 746 OFFCURVE",
"501 965 OFFCURVE",
"650 965 QCURVE SMOOTH",
"781 965 OFFCURVE",
"904 764 OFFCURVE",
"904 540 QCURVE SMOOTH"
);
}
);
width = 1229;
}
);
note = b;
unicode = 0062;
},
{
glyphname = c;
lastChange = "2019-12-03 14:54:35 +0000";
layers = (
{
layerId = "BC15D09A-B757-48E3-911F-803B0089DB3F";
paths = (
{
closed = 1;
nodes = (
"130 268 OFFCURVE",
"386 -20 OFFCURVE",
"631 -20 QCURVE SMOOTH",
"752 -20 OFFCURVE",
"948 69 OFFCURVE",
"1067 226 OFFCURVE",
"1080 322 QCURVE",
"890 334 LINE",
"873 225 OFFCURVE",
"731 119 OFFCURVE",
"623 119 QCURVE SMOOTH",
"466 119 OFFCURVE",
"319 324 OFFCURVE",
"319 546 QCURVE SMOOTH",
"319 765 OFFCURVE",
"466 961 OFFCURVE",
"624 961 QCURVE SMOOTH",
"742 961 OFFCURVE",
"870 856 OFFCURVE",
"886 765 QCURVE",
"1078 779 LINE",
"1050 927 OFFCURVE",
"814 1102 OFFCURVE",
"632 1102 QCURVE SMOOTH",
"388 1102 OFFCURVE",
"130 812 OFFCURVE",
"130 542 QCURVE SMOOTH"
);
}
);
width = 1229;
}
);
note = c;
unicode = 0063;
},
{
glyphname = d;
lastChange = "2019-12-03 14:54:35 +0000";
layers = (
{
layerId = "BC15D09A-B757-48E3-911F-803B0089DB3F";
paths = (
{
closed = 1;
nodes = (
"867 174 LINE",
"867 131 OFFCURVE",
"873 15 OFFCURVE",
"877 0 QCURVE",
"1049 0 LINE",
"1043 54 OFFCURVE",
"1043 223 QCURVE SMOOTH",
"1043 1484 LINE",
"863 1484 LINE",
"863 1065 LINE",
"865 914 LINE",
"863 914 LINE",
"814 1012 OFFCURVE",
"651 1098 OFFCURVE",
"530 1098 QCURVE SMOOTH",
"138 1098 OFFCURVE",
"138 532 QCURVE SMOOTH",
"138 252 OFFCURVE",
"328 -26 OFFCURVE",
"530 -26 QCURVE SMOOTH",
"651 -26 OFFCURVE",
"813 69 OFFCURVE",
"862 174 QCURVE"
);
},
{
closed = 1;
nodes = (
"324 759 OFFCURVE",
"444 965 OFFCURVE",
"579 965 QCURVE SMOOTH",
"728 965 OFFCURVE",
"863 769 OFFCURVE",
"863 554 QCURVE SMOOTH",
"863 324 OFFCURVE",
"723 113 OFFCURVE",
"577 113 QCURVE SMOOTH",
"443 113 OFFCURVE",
"324 316 OFFCURVE",
"324 538 QCURVE SMOOTH"
);
}
);
width = 1229;
}
);
note = d;
unicode = 0064;
},
{
glyphname = e;
lastChange = "2019-12-03 14:54:35 +0000";
layers = (
{
layerId = "BC15D09A-B757-48E3-911F-803B0089DB3F";
paths = (
{
closed = 1;
nodes = (
"1094 503 LINE",
"1094 527 LINE SMOOTH",
"1094 816 OFFCURVE",
"852 1102 OFFCURVE",
"617 1102 QCURVE SMOOTH",
"382 1102 OFFCURVE",
"133 815 OFFCURVE",
"133 548 QCURVE SMOOTH",
"133 274 OFFCURVE",
"387 -20 OFFCURVE",
"623 -20 QCURVE SMOOTH",
"786 -20 OFFCURVE",
"1021 112 OFFCURVE",
"1065 236 QCURVE",
"907 281 LINE",
"881 204 OFFCURVE",
"726 115 OFFCURVE",
"623 115 QCURVE SMOOTH",
"483 115 OFFCURVE",
"322 321 OFFCURVE",
"322 503 QCURVE"
);
},
{
closed = 1;
nodes = (
"880 969 OFFCURVE",
"908 641 QCURVE",
"324 641 LINE",
"329 794 OFFCURVE",
"485 969 OFFCURVE",
"619 969 QCURVE SMOOTH"
);
}
);
width = 1229;
}
);
note = e;
unicode = 0065;
},
{
glyphname = f;
lastChange = "2019-12-03 14:54:35 +0000";
layers = (
{
layerId = "BC15D09A-B757-48E3-911F-803B0089DB3F";
paths = (
{
closed = 1;
nodes = (
"1071 940 LINE",
"1071 1082 LINE",
"580 1082 LINE",
"580 1092 LINE SMOOTH",
"580 1185 OFFCURVE",
"629 1289 OFFCURVE",
"735 1335 OFFCURVE",
"839 1335 QCURVE SMOOTH",
"886 1335 OFFCURVE",
"1069 1323 OFFCURVE",
"1099 1318 QCURVE",
"1099 1463 LINE",
"1057 1471 OFFCURVE",
"890 1484 OFFCURVE",
"818 1484 QCURVE SMOOTH",
"593 1484 OFFCURVE",
"400 1312 OFFCURVE",
"400 1107 QCURVE SMOOTH",
"400 1082 LINE",
"138 1082 LINE",
"138 940 LINE",
"400 940 LINE",
"400 0 LINE",
"580 0 LINE",
"580 940 LINE"
);
}
);
width = 1229;
}
);
note = f;
unicode = 0066;
},
{
glyphname = g;
lastChange = "2019-12-03 14:54:35 +0000";
layers = (
{
layerId = "BC15D09A-B757-48E3-911F-803B0089DB3F";
paths = (
{
closed = 1;
nodes = (
"836 -424 OFFCURVE",
"1048 -195 OFFCURVE",
"1048 32 QCURVE SMOOTH",
"1048 858 LINE SMOOTH",
"1048 1028 OFFCURVE",
"1054 1082 QCURVE",
"883 1082 LINE",
"879 1070 OFFCURVE",
"871 927 OFFCURVE",
"871 897 QCURVE",
"868 897 LINE",
"823 994 OFFCURVE",
"656 1099 OFFCURVE",
"543 1099 QCURVE SMOOTH",
"339 1099 OFFCURVE",
"143 832 OFFCURVE",
"143 549 QCURVE SMOOTH",
"143 271 OFFCURVE",
"326 12 OFFCURVE",
"524 12 QCURVE SMOOTH",
"644 12 OFFCURVE",
"818 118 OFFCURVE",
"867 221 QCURVE",
"869 221 LINE",
"869 27 LINE SMOOTH",
"869 -288 OFFCURVE",
"621 -288 QCURVE SMOOTH",
"529 -288 OFFCURVE",
"416 -207 OFFCURVE",
"399 -132 QCURVE",
"215 -157 LINE",
"243 -286 OFFCURVE",
"447 -424 OFFCURVE",
"615 -424 QCURVE SMOOTH"
);
},
{
closed = 1;
nodes = (
"869 423 OFFCURVE",
"799 240 OFFCURVE",
"670 145 OFFCURVE",
"585 145 QCURVE SMOOTH",
"488 145 OFFCURVE",
"380 225 OFFCURVE",
"329 400 OFFCURVE",
"329 551 QCURVE SMOOTH",
"329 774 OFFCURVE",
"451 965 OFFCURVE",
"588 965 QCURVE SMOOTH",
"719 965 OFFCURVE",
"869 744 OFFCURVE",
"869 551 QCURVE SMOOTH"
);
}
);
width = 1229;
}
);
note = g;
unicode = 0067;
},
{
glyphname = h;
lastChange = "2019-12-03 14:54:35 +0000";
layers = (
{
layerId = "BC15D09A-B757-48E3-911F-803B0089DB3F";
paths = (
{
closed = 1;
nodes = (
"185 0 LINE",
"365 0 LINE",
"365 627 LINE SMOOTH",
"365 782 OFFCURVE",
"524 963 OFFCURVE",
"648 963 QCURVE SMOOTH",
"763 963 OFFCURVE",
"868 831 OFFCURVE",
"868 695 QCURVE SMOOTH",
"868 0 LINE",
"1049 0 LINE",
"1049 721 LINE SMOOTH",
"1049 1102 OFFCURVE",
"699 1102 QCURVE SMOOTH",
"465 1102 OFFCURVE",
"360 897 QCURVE",
"357 897 LINE",
"366 1035 OFFCURVE",
"366 1094 QCURVE SMOOTH",
"366 1484 LINE",
"185 1484 LINE"
);
}
);
width = 1229;
}
);
note = h;
unicode = 0068;
},
{
glyphname = i;
lastChange = "2019-12-03 14:54:35 +0000";
layers = (
{
layerId = "BC15D09A-B757-48E3-911F-803B0089DB3F";
paths = (
{
closed = 1;
nodes = (
"745 1082 LINE",
"246 1082 LINE",
"246 940 LINE",
"565 940 LINE",
"565 142 LINE",
"143 142 LINE",
"143 0 LINE",
"1125 0 LINE",
"1125 142 LINE",
"745 142 LINE"
);
},
{
closed = 1;
nodes = (
"745 1292 LINE",
"745 1484 LINE",
"545 1484 LINE",
"545 1292 LINE"
);
}
);
width = 1229;
}
);
note = i;
unicode = 0069;
},
{
glyphname = j;
lastChange = "2019-12-03 14:54:35 +0000";
layers = (
{
layerId = "BC15D09A-B757-48E3-911F-803B0089DB3F";
paths = (
{
closed = 1;
nodes = (
"836 1082 LINE",
"249 1082 LINE",
"249 940 LINE",
"656 940 LINE",
"656 -25 LINE SMOOTH",
"656 -144 OFFCURVE",
"518 -276 OFFCURVE",
"390 -276 QCURVE SMOOTH",
"267 -276 OFFCURVE",
"117 -242 QCURVE",
"117 -382 LINE",
"162 -399 OFFCURVE",
"326 -425 OFFCURVE",
"405 -425 QCURVE SMOOTH",
"612 -425 OFFCURVE",
"836 -215 OFFCURVE",
"836 -28 QCURVE SMOOTH"
);
},
{
closed = 1;
nodes = (
"836 1292 LINE",
"836 1484 LINE",
"636 1484 LINE",
"636 1292 LINE"
);
}
);
width = 1229;
}
);
note = j;
unicode = 006A;
},
{
glyphname = k;
lastChange = "2019-12-03 14:54:35 +0000";
layers = (
{
layerId = "BC15D09A-B757-48E3-911F-803B0089DB3F";
paths = (
{
closed = 1;
nodes = (
"1125 0 LINE",
"663 617 LINE",
"1102 1082 LINE",
"891 1082 LINE",
"416 557 LINE",
"416 1484 LINE",
"236 1484 LINE",
"236 0 LINE",
"416 0 LINE",
"416 401 LINE",
"548 499 LINE",
"914 0 LINE"
);
}
);
width = 1229;
}
);
note = k;
unicode = 006B;
},
{
glyphname = l;
lastChange = "2019-12-03 14:54:35 +0000";
layers = (
{
layerId = "BC15D09A-B757-48E3-911F-803B0089DB3F";
paths = (
{
closed = 1;
nodes = (
"736 1484 LINE",
"267 1484 LINE",
"267 1342 LINE",
"556 1342 LINE",
"556 142 LINE",
"134 142 LINE",
"134 0 LINE",
"1116 0 LINE",
"1116 142 LINE",
"736 142 LINE"
);
}
);
width = 1229;
}
);
note = l;
unicode = 006C;
},
{
glyphname = m;
lastChange = "2019-12-03 14:54:35 +0000";
layers = (
{
layerId = "BC15D09A-B757-48E3-911F-803B0089DB3F";
paths = (
{
closed = 1;
nodes = (
"699 0 LINE",
"699 627 LINE SMOOTH",
"699 795 OFFCURVE",
"776 963 OFFCURVE",
"842 963 QCURVE SMOOTH",
"907 963 OFFCURVE",
"956 840 OFFCURVE",
"956 686 QCURVE SMOOTH",
"956 0 LINE",
"1124 0 LINE",
"1124 721 LINE SMOOTH",
"1124 930 OFFCURVE",
"1022 1102 OFFCURVE",
"904 1102 QCURVE SMOOTH",
"819 1102 OFFCURVE",
"708 1012 OFFCURVE",
"668 906 QCURVE",
"666 906 LINE",
"647 1006 OFFCURVE",
"560 1102 OFFCURVE",
"472 1102 QCURVE SMOOTH",
"394 1102 OFFCURVE",
"290 1009 OFFCURVE",
"256 907 QCURVE",
"254 907 LINE",
"254 955 LINE",
"248 1082 LINE",
"99 1082 LINE",
"105 1040 OFFCURVE",
"105 851 QCURVE SMOOTH",
"105 0 LINE",
"274 0 LINE",
"274 607 LINE SMOOTH",
"274 771 OFFCURVE",
"353 963 OFFCURVE",
"417 963 QCURVE SMOOTH",
"482 963 OFFCURVE",
"531 840 OFFCURVE",
"531 686 QCURVE SMOOTH",
"531 0 LINE"
);
}
);
width = 1229;
}
);
note = m;
unicode = 006D;
},
{
glyphname = n;
lastChange = "2019-12-03 14:54:35 +0000";
layers = (
{
layerId = "BC15D09A-B757-48E3-911F-803B0089DB3F";
paths = (
{
closed = 1;
nodes = (
"1049 0 LINE",
"1049 721 LINE SMOOTH",
"1049 915 OFFCURVE",
"879 1102 OFFCURVE",
"706 1102 QCURVE SMOOTH",
"465 1102 OFFCURVE",
"360 897 QCURVE",
"357 897 LINE",
"355 976 OFFCURVE",
"352 1033 OFFCURVE",
"350 1077 OFFCURVE",
"349 1082 QCURVE",
"179 1082 LINE",
"185 1040 OFFCURVE",
"185 851 QCURVE SMOOTH",
"185 0 LINE",
"365 0 LINE",
"365 627 LINE SMOOTH",
"365 782 OFFCURVE",
"524 963 OFFCURVE",
"648 963 QCURVE SMOOTH",
"763 963 OFFCURVE",
"868 831 OFFCURVE",
"868 695 QCURVE SMOOTH",
"868 0 LINE"
);
}
);
width = 1229;
}
);
note = n;
unicode = 006E;
},
{
glyphname = o;
lastChange = "2019-12-03 14:54:35 +0000";
layers = (
{
layerId = "BC15D09A-B757-48E3-911F-803B0089DB3F";
paths = (
{
closed = 1;
nodes = (
"1097 824 OFFCURVE",
"859 1102 OFFCURVE",
"615 1102 QCURVE SMOOTH",
"383 1102 OFFCURVE",
"130 821 OFFCURVE",
"130 542 QCURVE SMOOTH",
"130 272 OFFCURVE",
"377 -20 OFFCURVE",
"609 -20 QCURVE SMOOTH",
"846 -20 OFFCURVE",
"1097 269 OFFCURVE",
"1097 542 QCURVE SMOOTH"
);
},
{
closed = 1;
nodes = (
"908 327 OFFCURVE",
"766 113 OFFCURVE",
"607 113 QCURVE SMOOTH",
"463 113 OFFCURVE",
"319 332 OFFCURVE",
"319 542 QCURVE SMOOTH",
"319 753 OFFCURVE",
"463 969 OFFCURVE",
"618 969 QCURVE SMOOTH",
"771 969 OFFCURVE",
"908 757 OFFCURVE",
"908 542 QCURVE SMOOTH"
);
}
);
width = 1229;
}
);
note = o;
unicode = 006F;
},
{
glyphname = p;
lastChange = "2019-12-03 14:54:35 +0000";
layers = (
{
layerId = "BC15D09A-B757-48E3-911F-803B0089DB3F";
paths = (
{
closed = 1;
nodes = (
"1090 831 OFFCURVE",
"896 1104 OFFCURVE",
"698 1104 QCURVE SMOOTH",
"573 1104 OFFCURVE",
"418 1009 OFFCURVE",
"368 904 QCURVE",
"364 904 LINE",
"364 928 OFFCURVE",
"359 1027 OFFCURVE",
"355 1078 OFFCURVE",
"354 1082 QCURVE",
"179 1082 LINE",
"185 1028 OFFCURVE",
"185 858 QCURVE SMOOTH",
"185 -425 LINE",
"366 -425 LINE",
"366 -2 LINE SMOOTH",
"366 156 OFFCURVE",
"362 164 QCURVE",
"367 164 LINE",
"452 -20 OFFCURVE",
"698 -20 QCURVE SMOOTH",
"1090 -20 OFFCURVE",
"1090 546 QCURVE SMOOTH"
);
},
{
closed = 1;
nodes = (
"904 315 OFFCURVE",
"782 113 OFFCURVE",
"649 113 QCURVE SMOOTH",
"500 113 OFFCURVE",
"366 311 OFFCURVE",
"366 524 QCURVE SMOOTH",
"366 746 OFFCURVE",
"500 965 OFFCURVE",
"651 965 QCURVE SMOOTH",
"782 965 OFFCURVE",
"904 772 OFFCURVE",
"904 546 QCURVE SMOOTH"
);
}
);
width = 1229;
}
);
note = p;
unicode = 0070;
},
{
glyphname = q;
lastChange = "2019-12-03 14:54:35 +0000";
layers = (
{
layerId = "BC15D09A-B757-48E3-911F-803B0089DB3F";
paths = (
{
closed = 1;
nodes = (
"138 1098 OFFCURVE",
"138 532 QCURVE SMOOTH",
"138 255 OFFCURVE",
"328 -26 OFFCURVE",
"530 -26 QCURVE SMOOTH",
"654 -26 OFFCURVE",
"812 75 OFFCURVE",
"865 182 QCURVE",
"867 182 LINE",
"863 14 LINE",
"863 -425 LINE",
"1044 -425 LINE",
"1044 801 LINE SMOOTH",
"1044 1029 OFFCURVE",
"1050 1083 QCURVE",
"875 1083 LINE",
"870 1071 OFFCURVE",
"863 944 OFFCURVE",
"863 914 QCURVE",
"861 914 LINE",
"812 1009 OFFCURVE",
"658 1098 OFFCURVE",
"529 1098 QCURVE SMOOTH"
);
},
{
closed = 1;
nodes = (
"863 331 OFFCURVE",
"724 113 OFFCURVE",
"577 113 QCURVE SMOOTH",
"446 113 OFFCURVE",
"324 317 OFFCURVE",
"324 538 QCURVE SMOOTH",
"324 761 OFFCURVE",
"445 965 OFFCURVE",
"579 965 QCURVE SMOOTH",
"727 965 OFFCURVE",
"863 766 OFFCURVE",
"863 554 QCURVE SMOOTH"
);
}
);
width = 1229;
}
);
note = q;
unicode = 0071;
},
{
glyphname = r;
lastChange = "2019-12-03 14:54:35 +0000";
layers = (
{
layerId = "BC15D09A-B757-48E3-911F-803B0089DB3F";
paths = (
{
closed = 1;
nodes = (
"1045 1085 LINE",
"943 1102 OFFCURVE",
"839 1102 QCURVE SMOOTH",
"744 1102 OFFCURVE",
"612 1049 OFFCURVE",
"516 944 OFFCURVE",
"466 832 QCURVE",
"461 832 LINE",
"453 944 OFFCURVE",
"413 1082 QCURVE",
"242 1082 LINE",
"267 983 OFFCURVE",
"294 777 OFFCURVE",
"294 701 QCURVE SMOOTH",
"294 0 LINE",
"474 0 LINE",
"474 508 LINE SMOOTH",
"474 695 OFFCURVE",
"672 937 OFFCURVE",
"833 937 QCURVE SMOOTH",
"933 937 OFFCURVE",
"1045 918 QCURVE"
);
}
);
width = 1229;
}
);
note = r;
unicode = 0072;
},
{
glyphname = s;
lastChange = "2019-12-03 14:54:35 +0000";
layers = (
{
layerId = "BC15D09A-B757-48E3-911F-803B0089DB3F";
paths = (
{
closed = 1;
nodes = (
"1060 394 OFFCURVE",
"978 511 OFFCURVE",
"835 589 OFFCURVE",
"672 629 QCURVE SMOOTH",
"553 660 LINE SMOOTH",
"461 682 OFFCURVE",
"378 754 OFFCURVE",
"378 814 QCURVE SMOOTH",
"378 965 OFFCURVE",
"623 965 QCURVE SMOOTH",
"742 965 OFFCURVE",
"862 891 OFFCURVE",
"873 819 QCURVE",
"1035 839 LINE",
"1009 966 OFFCURVE",
"799 1099 OFFCURVE",
"623 1099 QCURVE SMOOTH",
"422 1099 OFFCURVE",
"210 933 OFFCURVE",
"210 786 QCURVE SMOOTH",
"210 703 OFFCURVE",
"286 592 OFFCURVE",
"428 518 OFFCURVE",
"692 453 QCURVE SMOOTH",
"793 428 OFFCURVE",
"891 349 OFFCURVE",
"891 285 QCURVE SMOOTH",
"891 114 OFFCURVE",
"621 114 QCURVE SMOOTH",
"470 114 OFFCURVE",
"345 193 OFFCURVE",
"326 279 QCURVE",
"167 248 LINE",
"200 109 OFFCURVE",
"415 -20 OFFCURVE",
"621 -20 QCURVE SMOOTH",
"827 -20 OFFCURVE",
"1060 155 OFFCURVE",
"1060 309 QCURVE SMOOTH"
);
}
);
width = 1229;
}
);
note = s;
unicode = 0073;
},
{
glyphname = t;
lastChange = "2019-12-03 14:54:35 +0000";
layers = (
{
layerId = "BC15D09A-B757-48E3-911F-803B0089DB3F";
paths = (
{
closed = 1;
nodes = (
"358 940 LINE",
"358 269 LINE SMOOTH",
"358 121 OFFCURVE",
"520 -16 OFFCURVE",
"682 -16 QCURVE SMOOTH",
"848 -16 OFFCURVE",
"1017 30 QCURVE",
"1017 167 LINE",
"854 133 OFFCURVE",
"720 133 QCURVE SMOOTH",
"623 133 OFFCURVE",
"538 209 OFFCURVE",
"538 288 QCURVE SMOOTH",
"538 940 LINE",
"970 940 LINE",
"970 1082 LINE",
"538 1082 LINE",
"538 1364 LINE",
"418 1364 LINE",
"360 1082 LINE",
"190 1082 LINE",
"190 940 LINE"
);
}
);
width = 1229;
}
);
note = t;
unicode = 0074;
},
{
glyphname = u;
lastChange = "2019-12-03 14:54:35 +0000";
layers = (
{
layerId = "BC15D09A-B757-48E3-911F-803B0089DB3F";
paths = (
{
closed = 1;
nodes = (
"185 1082 LINE",
"185 361 LINE SMOOTH",
"185 157 OFFCURVE",
"350 -20 OFFCURVE",
"528 -20 QCURVE SMOOTH",
"649 -20 OFFCURVE",
"812 73 OFFCURVE",
"874 185 QCURVE",
"877 185 LINE",
"879 106 OFFCURVE",
"882 49 OFFCURVE",
"884 5 OFFCURVE",
"885 0 QCURVE",
"1055 0 LINE",
"1049 42 OFFCURVE",
"1049 231 QCURVE SMOOTH",
"1049 1082 LINE",
"868 1082 LINE",
"868 455 LINE SMOOTH",
"868 295 OFFCURVE",
"718 119 OFFCURVE",
"589 119 QCURVE SMOOTH",
"463 119 OFFCURVE",
"365 240 OFFCURVE",
"365 396 QCURVE SMOOTH",
"365 1082 LINE"
);
}
);
width = 1229;
}
);
note = u;
unicode = 0075;
},
{
glyphname = v;
lastChange = "2019-12-03 14:54:35 +0000";
layers = (
{
layerId = "BC15D09A-B757-48E3-911F-803B0089DB3F";
paths = (
{
closed = 1;
nodes = (
"1159 1082 LINE",
"958 1082 LINE",
"682 376 LINE",
"643 258 LINE",
"608 141 LINE",
"556 325 LINE",
"539 378 LINE",
"271 1082 LINE",
"69 1082 LINE",
"502 0 LINE",
"715 0 LINE"
);
}
);
width = 1229;
}
);
note = v;
unicode = 0076;
},
{
glyphname = w;
lastChange = "2019-12-03 14:54:35 +0000";
layers = (
{
layerId = "BC15D09A-B757-48E3-911F-803B0089DB3F";
paths = (
{
closed = 1;
nodes = (
"1208 1082 LINE",
"1032 1082 LINE",
"931 475 LINE SMOOTH",
"928 450 OFFCURVE",
"916 364 OFFCURVE",
"904 269 OFFCURVE",
"896 179 OFFCURVE",
"896 149 QCURVE",
"873 257 OFFCURVE",
"841 362 QCURVE SMOOTH",
"711 787 LINE",
"518 787 LINE",
"383 363 LINE SMOOTH",
"364 309 OFFCURVE",
"325 149 QCURVE",
"325 211 OFFCURVE",
"292 475 QCURVE",
"199 1082 LINE",
"21 1082 LINE",
"204 0 LINE",
"407 0 LINE",
"575 534 LINE",
"614 673 LINE",
"671 471 LINE",
"814 0 LINE",
"1018 0 LINE"
);
}
);
width = 1229;
}
);
note = w;
unicode = 0077;
},
{
glyphname = x;
lastChange = "2019-12-03 14:54:35 +0000";
layers = (
{
layerId = "BC15D09A-B757-48E3-911F-803B0089DB3F";
paths = (
{
closed = 1;
nodes = (
"1133 0 LINE",
"713 558 LINE",
"1110 1082 LINE",
"909 1082 LINE",
"611 661 LINE",
"311 1082 LINE",
"112 1082 LINE",
"509 556 LINE",
"94 0 LINE",
"288 0 LINE",
"611 444 LINE",
"932 0 LINE"
);
}
);
width = 1229;
}
);
note = x;
unicode = 0078;
},
{
glyphname = y;
lastChange = "2019-12-03 14:54:35 +0000";
layers = (
{
layerId = "BC15D09A-B757-48E3-911F-803B0089DB3F";
paths = (
{
closed = 1;
nodes = (
"425 -425 OFFCURVE",
"616 -235 OFFCURVE",
"705 0 QCURVE",
"1161 1082 LINE",
"971 1082 LINE",
"661 296 LINE",
"620 186 LINE",
"613 216 OFFCURVE",
"522 440 QCURVE SMOOTH",
"258 1082 LINE",
"66 1082 LINE",
"536 11 LINE",
"518 -38 LINE SMOOTH",
"470 -167 OFFCURVE",
"331 -285 OFFCURVE",
"252 -285 QCURVE SMOOTH",
"206 -285 OFFCURVE",
"168 -279 QCURVE",
"168 -414 LINE",
"218 -425 OFFCURVE",
"292 -425 QCURVE SMOOTH"
);
}
);
width = 1229;
}
);
note = y;
unicode = 0079;
},
{
glyphname = z;
lastChange = "2019-12-03 14:54:35 +0000";
layers = (
{
layerId = "BC15D09A-B757-48E3-911F-803B0089DB3F";
paths = (
{
closed = 1;
nodes = (
"1068 0 LINE",
"1068 139 LINE",
"349 139 LINE",
"1031 945 LINE",
"1031 1082 LINE",
"187 1082 LINE",
"187 943 LINE",
"828 943 LINE",
"147 137 LINE",
"147 0 LINE"
);
}
);
width = 1229;
}
);
note = z;
unicode = 007A;
},
{
glyphname = braceleft;
lastChange = "2019-12-03 14:54:35 +0000";
layers = (
{
layerId = "BC15D09A-B757-48E3-911F-803B0089DB3F";
paths = (
{
closed = 1;
nodes = (
"1061 -425 LINE",
"1061 -286 LINE",
"848 -286 LINE SMOOTH",
"757 -286 OFFCURVE",
"677 -197 OFFCURVE",
"677 -91 QCURVE SMOOTH",
"677 256 LINE SMOOTH",
"677 359 OFFCURVE",
"548 506 OFFCURVE",
"446 530 QCURVE",
"446 532 LINE",
"549 557 OFFCURVE",
"677 706 OFFCURVE",
"677 804 QCURVE SMOOTH",
"677 1150 LINE SMOOTH",
"677 1257 OFFCURVE",
"757 1345 OFFCURVE",
"848 1345 QCURVE SMOOTH",
"1061 1345 LINE",
"1061 1484 LINE",
"796 1484 LINE SMOOTH",
"664 1484 OFFCURVE",
"502 1318 OFFCURVE",
"502 1181 QCURVE SMOOTH",
"502 829 LINE SMOOTH",
"502 725 OFFCURVE",
"357 603 OFFCURVE",
"227 598 QCURVE",
"227 461 LINE",
"356 456 OFFCURVE",
"502 336 OFFCURVE",
"502 229 QCURVE SMOOTH",
"502 -122 LINE SMOOTH",
"502 -256 OFFCURVE",
"666 -425 OFFCURVE",
"796 -425 QCURVE SMOOTH"
);
}
);
width = 1229;
}
);
note = braceleft;
unicode = 007B;
},
{
glyphname = bar;
lastChange = "2019-12-03 14:54:35 +0000";
layers = (
{
layerId = "BC15D09A-B757-48E3-911F-803B0089DB3F";
paths = (
{
closed = 1;
nodes = (
"697 -425 LINE",
"697 1484 LINE",
"531 1484 LINE",
"531 -425 LINE"
);
}
);
width = 1229;
}
);
note = bar;
unicode = 007C;
},
{
glyphname = braceright;
lastChange = "2019-12-03 14:54:35 +0000";
layers = (
{
layerId = "BC15D09A-B757-48E3-911F-803B0089DB3F";
paths = (
{
closed = 1;
nodes = (
"432 -425 LINE SMOOTH",
"562 -425 OFFCURVE",
"726 -257 OFFCURVE",
"726 -122 QCURVE SMOOTH",
"726 229 LINE SMOOTH",
"726 335 OFFCURVE",
"871 456 OFFCURVE",
"1001 461 QCURVE",
"1001 598 LINE",
"872 603 OFFCURVE",
"726 724 OFFCURVE",
"726 829 QCURVE SMOOTH",
"726 1181 LINE SMOOTH",
"726 1318 OFFCURVE",
"565 1484 OFFCURVE",
"432 1484 QCURVE SMOOTH",
"167 1484 LINE",
"167 1345 LINE",
"380 1345 LINE SMOOTH",
"472 1345 OFFCURVE",
"552 1255 OFFCURVE",
"552 1150 QCURVE SMOOTH",
"552 804 LINE SMOOTH",
"552 707 OFFCURVE",
"680 557 OFFCURVE",
"782 532 QCURVE",
"782 530 LINE",
"680 506 OFFCURVE",
"552 358 OFFCURVE",
"552 256 QCURVE SMOOTH",
"552 -91 LINE SMOOTH",
"552 -197 OFFCURVE",
"471 -286 OFFCURVE",
"380 -286 QCURVE SMOOTH",
"167 -286 LINE",
"167 -425 LINE"
);
}
);
width = 1229;
}
);
note = braceright;
unicode = 007D;
},
{
glyphname = asciitilde;
lastChange = "2019-12-03 14:54:35 +0000";
layers = (
{
layerId = "BC15D09A-B757-48E3-911F-803B0089DB3F";
paths = (
{
closed = 1;
nodes = (
"219 807 OFFCURVE",
"108 723 QCURVE",
"108 580 LINE",
"173 627 OFFCURVE",
"289 668 OFFCURVE",
"356 668 QCURVE SMOOTH",
"444 668 OFFCURVE",
"573 623 QCURVE SMOOTH",
"646 597 OFFCURVE",
"791 553 OFFCURVE",
"860 553 QCURVE SMOOTH",
"945 553 OFFCURVE",
"1060 591 OFFCURVE",
"1120 633 QCURVE",
"1120 782 LINE",
"1006 690 OFFCURVE",
"876 690 QCURVE SMOOTH",
"840 690 OFFCURVE",
"753 710 OFFCURVE",
"606 761 QCURVE SMOOTH",
"473 807 OFFCURVE",
"371 807 QCURVE SMOOTH"
);
}
);
width = 1229;
}
);
note = asciitilde;
unicode = 007E;
},
{
glyphname = dagger;
lastChange = "2019-12-03 14:54:35 +0000";
layers = (
{
layerId = "BC15D09A-B757-48E3-911F-803B0089DB3F";
paths = (
{
closed = 1;
nodes = (
"1046 972 LINE",
"1046 1136 LINE",
"685 1117 LINE",
"711 1483 LINE",
"516 1483 LINE",
"542 1117 LINE",
"182 1136 LINE",
"182 972 LINE",
"542 989 LINE",
"556 -213 LINE",
"671 -213 LINE",
"685 989 LINE"
);
}
);
width = 1229;
}
);
note = dagger;
unicode = 2020;
},
{
glyphname = degree;
lastChange = "2019-12-03 14:54:35 +0000";
layers = (
{
layerId = "BC15D09A-B757-48E3-911F-803B0089DB3F";
paths = (
{
closed = 1;
nodes = (
"901 1204 OFFCURVE",
"734 1370 OFFCURVE",
"614 1370 QCURVE SMOOTH",
"494 1370 OFFCURVE",
"327 1202 OFFCURVE",
"327 1085 QCURVE SMOOTH",
"327 968 OFFCURVE",
"496 800 OFFCURVE",
"614 800 QCURVE SMOOTH",
"732 800 OFFCURVE",
"901 966 OFFCURVE",
"901 1085 QCURVE SMOOTH"
);
},
{
closed = 1;
nodes = (
"792 1010 OFFCURVE",
"688 905 OFFCURVE",
"614 905 QCURVE SMOOTH",
"541 905 OFFCURVE",
"436 1011 OFFCURVE",
"436 1085 QCURVE SMOOTH",
"436 1159 OFFCURVE",
"539 1265 OFFCURVE",
"614 1265 QCURVE SMOOTH",
"689 1265 OFFCURVE",
"792 1161 OFFCURVE",
"792 1085 QCURVE SMOOTH"
);
}
);
width = 1229;
}
);
note = degree;
unicode = 00B0;
},
{
glyphname = cent;
lastChange = "2019-12-03 14:54:35 +0000";
layers = (
{
layerId = "BC15D09A-B757-48E3-911F-803B0089DB3F";
paths = (
{
closed = 1;
nodes = (
"484 269 OFFCURVE",
"316 470 OFFCURVE",
"316 668 QCURVE SMOOTH",
"316 857 OFFCURVE",
"477 1058 OFFCURVE",
"633 1058 QCURVE SMOOTH",
"755 1058 OFFCURVE",
"886 950 OFFCURVE",
"903 859 QCURVE",
"1088 873 LINE",
"1059 1013 OFFCURVE",
"855 1182 OFFCURVE",
"698 1195 QCURVE",
"698 1379 LINE",
"570 1379 LINE",
"570 1195 LINE",
"365 1177 OFFCURVE",
"133 896 OFFCURVE",
"133 656 QCURVE SMOOTH",
"133 424 OFFCURVE",
"362 149 OFFCURVE",
"570 134 QCURVE",
"570 -61 LINE",
"698 -61 LINE",
"698 134 LINE",
"859 148 OFFCURVE",
"1073 332 OFFCURVE",
"1094 474 QCURVE",
"912 486 LINE",
"895 381 OFFCURVE",
"748 269 OFFCURVE",
"635 269 QCURVE SMOOTH"
);
}
);
width = 1229;
}
);
note = cent;
unicode = 00A2;
},
{
glyphname = sterling;
lastChange = "2019-12-03 14:54:35 +0000";
layers = (
{
layerId = "BC15D09A-B757-48E3-911F-803B0089DB3F";
paths = (
{
closed = 1;
nodes = (
"1003 264 LINE",
"992 211 OFFCURVE",
"935 158 OFFCURVE",
"876 158 QCURVE SMOOTH",
"276 158 LINE",
"359 202 OFFCURVE",
"431 345 OFFCURVE",
"431 473 QCURVE SMOOTH",
"431 612 LINE",
"839 612 LINE",
"839 754 LINE",
"431 754 LINE",
"431 970 LINE SMOOTH",
"431 1095 OFFCURVE",
"551 1210 OFFCURVE",
"673 1210 QCURVE SMOOTH",
"751 1210 OFFCURVE",
"868 1146 OFFCURVE",
"890 1083 QCURVE",
"1064 1140 LINE",
"1030 1249 OFFCURVE",
"826 1370 OFFCURVE",
"673 1370 QCURVE SMOOTH",
"468 1370 OFFCURVE",
"251 1168 OFFCURVE",
"251 974 QCURVE SMOOTH",
"251 754 LINE",
"65 754 LINE",
"65 612 LINE",
"251 612 LINE",
"251 471 LINE SMOOTH",
"251 389 OFFCURVE",
"214 276 OFFCURVE",
"143 198 OFFCURVE",
"56 154 QCURVE",
"56 0 LINE",
"937 0 LINE SMOOTH",
"1121 0 OFFCURVE",
"1171 240 QCURVE"
);
}
);
width = 1229;
}
);
note = sterling;
unicode = 00A3;
},
{
glyphname = section;
lastChange = "2019-12-03 14:54:35 +0000";
layers = (
{
layerId = "BC15D09A-B757-48E3-911F-803B0089DB3F";
paths = (
{
closed = 1;
nodes = (
"429 1484 OFFCURVE",
"218 1329 OFFCURVE",
"218 1190 QCURVE SMOOTH",
"218 1104 OFFCURVE",
"329 970 OFFCURVE",
"425 938 QCURVE",
"320 908 OFFCURVE",
"197 760 OFFCURVE",
"197 671 QCURVE SMOOTH",
"197 559 OFFCURVE",
"367 403 OFFCURVE",
"562 358 QCURVE SMOOTH",
"721 319 OFFCURVE",
"838 263 OFFCURVE",
"902 185 OFFCURVE",
"902 129 QCURVE SMOOTH",
"902 44 OFFCURVE",
"752 -52 OFFCURVE",
"621 -52 QCURVE SMOOTH",
"483 -52 OFFCURVE",
"340 38 OFFCURVE",
"320 131 QCURVE",
"159 100 LINE",
"193 -39 OFFCURVE",
"412 -172 OFFCURVE",
"621 -172 QCURVE SMOOTH",
"831 -172 OFFCURVE",
"1062 -3 OFFCURVE",
"1062 145 QCURVE SMOOTH",
"1062 236 OFFCURVE",
"961 365 OFFCURVE",
"849 413 QCURVE",
"949 437 OFFCURVE",
"1068 587 OFFCURVE",
"1068 686 QCURVE SMOOTH",
"1068 767 OFFCURVE",
"982 885 OFFCURVE",
"826 968 OFFCURVE",
"679 1003 QCURVE SMOOTH",
"549 1034 OFFCURVE",
"438 1086 OFFCURVE",
"378 1156 OFFCURVE",
"378 1204 QCURVE SMOOTH",
"378 1275 OFFCURVE",
"507 1364 OFFCURVE",
"632 1364 QCURVE SMOOTH",
"741 1364 OFFCURVE",
"870 1283 OFFCURVE",
"884 1204 QCURVE",
"1045 1224 LINE",
"1018 1351 OFFCURVE",
"805 1484 OFFCURVE",
"632 1484 QCURVE SMOOTH"
);
},
{
closed = 1;
nodes = (
"910 578 OFFCURVE",
"775 477 OFFCURVE",
"656 475 QCURVE",
"527 508 OFFCURVE",
"416 562 OFFCURVE",
"357 635 OFFCURVE",
"357 684 QCURVE SMOOTH",
"357 768 OFFCURVE",
"486 874 OFFCURVE",
"595 880 QCURVE",
"771 839 OFFCURVE",
"910 735 OFFCURVE",
"910 663 QCURVE SMOOTH"
);
}
);
width = 1229;
}
);
note = section;
unicode = 00A7;
},
{
glyphname = bullet;
lastChange = "2019-12-03 14:54:35 +0000";
layers = (
{
layerId = "BC15D09A-B757-48E3-911F-803B0089DB3F";
paths = (
{
closed = 1;
nodes = (
"891 797 OFFCURVE",
"725 956 OFFCURVE",
"610 956 QCURVE SMOOTH",
"498 956 OFFCURVE",
"336 797 OFFCURVE",
"336 682 QCURVE SMOOTH",
"336 565 OFFCURVE",
"499 401 OFFCURVE",
"610 401 QCURVE SMOOTH",
"724 401 OFFCURVE",
"891 565 OFFCURVE",
"891 682 QCURVE SMOOTH"
);
}
);
width = 1229;
}
);
note = bullet;
unicode = 2022;
},
{
glyphname = paragraph;
lastChange = "2019-12-03 14:54:35 +0000";
layers = (
{
layerId = "BC15D09A-B757-48E3-911F-803B0089DB3F";
paths = (
{
closed = 1;
nodes = (
"1080 1227 LINE",
"1080 1349 LINE",
"497 1349 LINE SMOOTH",
"324 1349 OFFCURVE",
"127 1158 OFFCURVE",
"127 989 QCURVE SMOOTH",
"127 819 OFFCURVE",
"321 634 OFFCURVE",
"489 634 QCURVE",
"489 -324 LINE",
"622 -324 LINE",
"622 1227 LINE",
"819 1227 LINE",
"819 -324 LINE",
"951 -324 LINE",
"951 1227 LINE"
);
}
);
width = 1229;
}
);
note = paragraph;
unicode = 00B6;
},
{
glyphname = germandbls;
lastChange = "2019-12-03 14:54:35 +0000";
layers = (
{
layerId = "BC15D09A-B757-48E3-911F-803B0089DB3F";
paths = (
{
closed = 1;
nodes = (
"1167 390 OFFCURVE",
"1072 540 OFFCURVE",
"983 600 QCURVE SMOOTH",
"864 680 OFFCURVE",
"798 749 OFFCURVE",
"798 791 QCURVE SMOOTH",
"798 825 OFFCURVE",
"840 885 OFFCURVE",
"911 948 QCURVE SMOOTH",
"1024 1049 OFFCURVE",
"1024 1187 QCURVE SMOOTH",
"1024 1323 OFFCURVE",
"799 1484 OFFCURVE",
"609 1484 QCURVE SMOOTH",
"377 1484 OFFCURVE",
"142 1254 OFFCURVE",
"142 1027 QCURVE SMOOTH",
"142 0 LINE",
"322 0 LINE",
"322 1021 LINE SMOOTH",
"322 1183 OFFCURVE",
"461 1343 OFFCURVE",
"609 1343 QCURVE SMOOTH",
"718 1343 OFFCURVE",
"852 1250 OFFCURVE",
"852 1173 QCURVE SMOOTH",
"852 1123 OFFCURVE",
"799 1039 OFFCURVE",
"741 991 QCURVE SMOOTH",
"687 946 OFFCURVE",
"630 846 OFFCURVE",
"630 785 QCURVE SMOOTH",
"630 703 OFFCURVE",
"721 577 OFFCURVE",
"813 522 QCURVE SMOOTH",
"913 461 OFFCURVE",
"995 356 OFFCURVE",
"995 289 QCURVE SMOOTH",
"995 210 OFFCURVE",
"897 115 OFFCURVE",
"805 115 QCURVE SMOOTH",
"736 115 OFFCURVE",
"582 151 OFFCURVE",
"524 184 QCURVE",
"526 20 LINE",
"638 -29 OFFCURVE",
"809 -29 QCURVE SMOOTH",
"977 -29 OFFCURVE",
"1167 143 OFFCURVE",
"1167 295 QCURVE SMOOTH"
);
}
);
width = 1229;
}
);
note = germandbls;
unicode = 00DF;
},
{
glyphname = registered;
lastChange = "2019-12-03 14:54:35 +0000";
layers = (
{
layerId = "BC15D09A-B757-48E3-911F-803B0089DB3F";
paths = (
{
closed = 1;
nodes = (
"1197 989 OFFCURVE",
"1055 1314 OFFCURVE",
"790 1484 OFFCURVE",
"614 1484 QCURVE SMOOTH",
"438 1484 OFFCURVE",
"173 1313 OFFCURVE",
"31 987 OFFCURVE",
"31 761 QCURVE SMOOTH",
"31 535 OFFCURVE",
"174 209 OFFCURVE",
"437 38 OFFCURVE",
"614 38 QCURVE SMOOTH",
"791 38 OFFCURVE",
"1055 207 OFFCURVE",
"1197 534 OFFCURVE",
"1197 761 QCURVE SMOOTH"
);
},
{
closed = 1;
nodes = (
"1105 460 OFFCURVE",
"847 132 OFFCURVE",
"614 132 QCURVE SMOOTH",
"381 132 OFFCURVE",
"126 462 OFFCURVE",
"126 761 QCURVE SMOOTH",
"126 961 OFFCURVE",
"244 1244 OFFCURVE",
"463 1389 OFFCURVE",
"614 1389 QCURVE SMOOTH",
"845 1389 OFFCURVE",
"1105 1062 OFFCURVE",
"1105 761 QCURVE SMOOTH"
);
},
{
closed = 1;
nodes = (
"960 343 LINE",
"739 693 LINE",
"824 712 OFFCURVE",
"928 835 OFFCURVE",
"928 937 QCURVE SMOOTH",
"928 1048 OFFCURVE",
"777 1174 OFFCURVE",
"635 1174 QCURVE SMOOTH",
"328 1174 LINE",
"328 343 LINE",
"455 343 LINE",
"455 679 LINE",
"616 679 LINE",
"815 343 LINE"
);
},
{
closed = 1;
nodes = (
"801 860 OFFCURVE",
"717 775 OFFCURVE",
"637 775 QCURVE SMOOTH",
"455 775 LINE",
"455 1076 LINE",
"625 1076 LINE SMOOTH",
"706 1076 OFFCURVE",
"801 1004 OFFCURVE",
"801 935 QCURVE SMOOTH"
);
}
);
width = 1229;
}
);
note = registered;
unicode = 00AE;
},
{
glyphname = copyright;
lastChange = "2019-12-03 14:54:35 +0000";
layers = (
{
layerId = "BC15D09A-B757-48E3-911F-803B0089DB3F";
paths = (
{
closed = 1;
nodes = (
"398 921 OFFCURVE",
"510 1082 OFFCURVE",
"617 1082 QCURVE SMOOTH",
"681 1082 OFFCURVE",
"778 1012 OFFCURVE",
"804 945 QCURVE",
"918 978 LINE",
"832 1187 OFFCURVE",
"615 1187 QCURVE SMOOTH",
"447 1187 OFFCURVE",
"269 965 OFFCURVE",
"269 763 QCURVE SMOOTH",
"269 560 OFFCURVE",
"454 333 OFFCURVE",
"622 333 QCURVE SMOOTH",
"728 333 OFFCURVE",
"881 440 OFFCURVE",
"933 558 QCURVE",
"818 593 LINE",
"783 511 OFFCURVE",
"687 437 OFFCURVE",
"622 437 QCURVE SMOOTH",
"516 437 OFFCURVE",
"398 610 OFFCURVE",
"398 763 QCURVE SMOOTH"
);
},
{
closed = 1;
nodes = (
"1197 989 OFFCURVE",
"1055 1314 OFFCURVE",
"790 1484 OFFCURVE",
"614 1484 QCURVE SMOOTH",
"438 1484 OFFCURVE",
"173 1313 OFFCURVE",
"31 987 OFFCURVE",
"31 761 QCURVE SMOOTH",
"31 535 OFFCURVE",
"174 209 OFFCURVE",
"437 38 OFFCURVE",
"614 38 QCURVE SMOOTH",
"791 38 OFFCURVE",
"1055 207 OFFCURVE",
"1197 534 OFFCURVE",
"1197 761 QCURVE SMOOTH"
);
},
{
closed = 1;
nodes = (
"1105 460 OFFCURVE",
"847 132 OFFCURVE",
"614 132 QCURVE SMOOTH",
"381 132 OFFCURVE",
"126 462 OFFCURVE",
"126 761 QCURVE SMOOTH",
"126 961 OFFCURVE",
"244 1244 OFFCURVE",
"463 1389 OFFCURVE",
"614 1389 QCURVE SMOOTH",
"845 1389 OFFCURVE",
"1105 1062 OFFCURVE",
"1105 761 QCURVE SMOOTH"
);
}
);
width = 1229;
}
);
note = copyright;
unicode = 00A9;
},
{
glyphname = trademark;
lastChange = "2019-12-03 14:54:35 +0000";
layers = (
{
layerId = "BC15D09A-B757-48E3-911F-803B0089DB3F";
paths = (
{
closed = 1;
nodes = (
"1224 842 LINE",
"1224 1483 LINE",
"1072 1483 LINE",
"933 1141 LINE",
"872 983 LINE",
"859 1018 LINE",
"675 1483 LINE",
"519 1483 LINE",
"519 842 LINE",
"624 842 LINE",
"624 1354 LINE",
"671 1230 OFFCURVE",
"824 842 QCURVE",
"913 842 LINE",
"1113 1336 LINE",
"1119 1354 LINE",
"1119 842 LINE"
);
},
{
closed = 1;
nodes = (
"461 1391 LINE",
"461 1483 LINE",
"4 1483 LINE",
"4 1391 LINE",
"175 1391 LINE",
"175 842 LINE",
"286 842 LINE",
"286 1391 LINE"
);
}
);
width = 1229;
}
);
note = trademark;
unicode = 2122;
},
{
glyphname = acute;
lastChange = "2019-12-03 14:54:35 +0000";
layers = (
{
layerId = "BC15D09A-B757-48E3-911F-803B0089DB3F";
paths = (
{
closed = 1;
nodes = (
"526 1201 LINE",
"826 1431 LINE",
"826 1460 LINE",
"629 1460 LINE",
"402 1221 LINE",
"402 1201 LINE"
);
}
);
width = 1229;
}
);
note = acute;
unicode = 00B4;
},
{
glyphname = dieresis;
lastChange = "2019-12-03 14:54:35 +0000";
layers = (
{
layerId = "BC15D09A-B757-48E3-911F-803B0089DB3F";
paths = (
{
closed = 1;
nodes = (
"892 1219 LINE",
"892 1403 LINE",
"729 1403 LINE",
"729 1219 LINE"
);
},
{
closed = 1;
nodes = (
"500 1219 LINE",
"500 1403 LINE",
"335 1403 LINE",
"335 1219 LINE"
);
}
);
width = 1229;
}
);
note = dieresis;
unicode = 00A8;
},
{
glyphname = notequal;
lastChange = "2019-12-03 14:54:35 +0000";
layers = (
{
layerId = "BC15D09A-B757-48E3-911F-803B0089DB3F";
paths = (
{
closed = 1;
nodes = (
"1111 344 LINE",
"1111 492 LINE",
"570 492 LINE",
"761 856 LINE",
"1111 856 LINE",
"1111 1004 LINE",
"834 1004 LINE",
"986 1296 LINE",
"843 1296 LINE",
"689 1004 LINE",
"116 1004 LINE",
"116 856 LINE",
"617 856 LINE",
"427 492 LINE",
"116 492 LINE",
"116 344 LINE",
"353 344 LINE",
"202 55 LINE",
"347 55 LINE",
"499 344 LINE"
);
}
);
width = 1229;
}
);
note = notequal;
unicode = 2260;
},
{
glyphname = AE;
lastChange = "2019-12-03 14:54:35 +0000";
layers = (
{
layerId = "BC15D09A-B757-48E3-911F-803B0089DB3F";
paths = (
{
closed = 1;
nodes = (
"646 0 LINE",
"1195 0 LINE",
"1195 152 LINE",
"817 152 LINE",
"817 617 LINE",
"1144 617 LINE",
"1144 767 LINE",
"817 767 LINE",
"817 1197 LINE",
"1154 1197 LINE",
"1154 1349 LINE",
"487 1349 LINE",
"1 0 LINE",
"169 0 LINE",
"311 412 LINE",
"646 412 LINE"
);
},
{
closed = 1;
nodes = (
"646 561 LINE",
"362 561 LINE",
"492 926 OFFCURVE",
"569 1186 OFFCURVE",
"573 1202 QCURVE",
"646 1202 LINE"
);
}
);
width = 1229;
}
);
note = AE;
unicode = 00C6;
},
{
glyphname = Oslash;
lastChange = "2019-12-03 14:54:35 +0000";
layers = (
{
layerId = "BC15D09A-B757-48E3-911F-803B0089DB3F";
paths = (
{
closed = 1;
nodes = (
"1126 970 OFFCURVE",
"1030 1140 QCURVE",
"1170 1327 LINE",
"1076 1392 LINE",
"960 1236 LINE",
"832 1370 OFFCURVE",
"615 1370 QCURVE SMOOTH",
"362 1370 OFFCURVE",
"102 1018 OFFCURVE",
"102 681 QCURVE SMOOTH",
"102 390 OFFCURVE",
"197 216 QCURVE",
"56 27 LINE",
"150 -38 LINE",
"267 118 LINE",
"395 -20 OFFCURVE",
"613 -20 QCURVE SMOOTH",
"861 -20 OFFCURVE",
"1126 344 OFFCURVE",
"1126 681 QCURVE SMOOTH"
);
},
{
closed = 1;
nodes = (
"925 415 OFFCURVE",
"777 135 OFFCURVE",
"614 135 QCURVE SMOOTH",
"462 135 OFFCURVE",
"383 273 QCURVE",
"895 959 LINE",
"925 845 OFFCURVE",
"925 681 QCURVE SMOOTH"
);
},
{
closed = 1;
nodes = (
"303 1214 OFFCURVE",
"615 1214 QCURVE SMOOTH",
"768 1214 OFFCURVE",
"845 1083 QCURVE",
"333 399 LINE",
"303 515 OFFCURVE",
"303 681 QCURVE SMOOTH"
);
}
);
width = 1229;
}
);
note = Oslash;
unicode = 00D8;
},
{
glyphname = infinity;
lastChange = "2019-12-03 14:54:35 +0000";
layers = (
{
layerId = "BC15D09A-B757-48E3-911F-803B0089DB3F";
paths = (
{
closed = 1;
nodes = (
"1195 764 OFFCURVE",
"1042 977 OFFCURVE",
"915 977 QCURVE SMOOTH",
"741 977 OFFCURVE",
"611 700 QCURVE",
"496 983 OFFCURVE",
"313 983 QCURVE SMOOTH",
"190 983 OFFCURVE",
"29 767 OFFCURVE",
"29 596 QCURVE SMOOTH",
"29 421 OFFCURVE",
"187 209 OFFCURVE",
"313 209 QCURVE SMOOTH",
"395 209 OFFCURVE",
"553 359 OFFCURVE",
"609 485 QCURVE",
"728 203 OFFCURVE",
"913 203 QCURVE SMOOTH",
"1035 203 OFFCURVE",
"1195 424 OFFCURVE",
"1195 590 QCURVE SMOOTH"
);
},
{
closed = 1;
nodes = (
"962 846 OFFCURVE",
"1056 699 OFFCURVE",
"1056 592 QCURVE SMOOTH",
"1056 477 OFFCURVE",
"962 334 OFFCURVE",
"890 334 QCURVE SMOOTH",
"824 334 OFFCURVE",
"722 462 OFFCURVE",
"677 590 QCURVE",
"725 720 OFFCURVE",
"828 846 OFFCURVE",
"889 846 QCURVE SMOOTH"
);
},
{
closed = 1;
nodes = (
"451 340 OFFCURVE",
"334 340 QCURVE SMOOTH",
"261 340 OFFCURVE",
"169 479 OFFCURVE",
"169 594 QCURVE SMOOTH",
"169 706 OFFCURVE",
"261 852 OFFCURVE",
"332 852 QCURVE SMOOTH",
"399 852 OFFCURVE",
"502 724 OFFCURVE",
"546 596 QCURVE"
);
}
);
width = 1229;
}
);
note = infinity;
unicode = 221E;
},
{
glyphname = plusminus;
lastChange = "2019-12-03 14:54:35 +0000";
layers = (
{
layerId = "BC15D09A-B757-48E3-911F-803B0089DB3F";
paths = (
{
closed = 1;
nodes = (
"1111 680 LINE",
"1111 825 LINE",
"687 825 LINE",
"687 1219 LINE",
"540 1219 LINE",
"540 825 LINE",
"116 825 LINE",
"116 680 LINE",
"540 680 LINE",
"540 285 LINE",
"687 285 LINE",
"687 680 LINE"
);
},
{
closed = 1;
nodes = (
"1111 0 LINE",
"1111 145 LINE",
"116 145 LINE",
"116 0 LINE"
);
}
);
width = 1229;
}
);
note = plusminus;
unicode = 00B1;
},
{
glyphname = lessequal;
lastChange = "2019-12-03 14:54:35 +0000";
layers = (
{
layerId = "BC15D09A-B757-48E3-911F-803B0089DB3F";
paths = (
{
closed = 1;
nodes = (
"1112 236 LINE",
"1112 389 LINE",
"254 733 LINE",
"1112 1077 LINE",
"1112 1231 LINE",
"117 836 LINE",
"117 631 LINE"
);
},
{
closed = 1;
nodes = (
"1110 0 LINE",
"1110 145 LINE",
"115 145 LINE",
"115 0 LINE"
);
}
);
width = 1229;
}
);
note = lessequal;
unicode = 2264;
},
{
glyphname = greaterequal;
lastChange = "2019-12-03 14:54:35 +0000";
layers = (
{
layerId = "BC15D09A-B757-48E3-911F-803B0089DB3F";
paths = (
{
closed = 1;
nodes = (
"1111 631 LINE",
"1111 836 LINE",
"116 1231 LINE",
"116 1077 LINE",
"974 733 LINE",
"116 389 LINE",
"116 236 LINE"
);
},
{
closed = 1;
nodes = (
"1111 0 LINE",
"1111 145 LINE",
"116 145 LINE",
"116 0 LINE"
);
}
);
width = 1229;
}
);
note = greaterequal;
unicode = 2265;
},
{
glyphname = yen;
lastChange = "2019-12-03 14:54:35 +0000";
layers = (
{
layerId = "BC15D09A-B757-48E3-911F-803B0089DB3F";
paths = (
{
closed = 1;
nodes = (
"1176 1349 LINE",
"977 1349 LINE",
"612 732 LINE",
"251 1349 LINE",
"52 1349 LINE",
"463 679 LINE",
"143 679 LINE",
"143 537 LINE",
"526 537 LINE",
"524 400 LINE",
"143 400 LINE",
"143 256 LINE",
"524 256 LINE",
"524 0 LINE",
"702 0 LINE",
"702 256 LINE",
"1085 256 LINE",
"1085 400 LINE",
"702 400 LINE",
"702 537 LINE",
"1085 537 LINE",
"1085 679 LINE",
"764 679 LINE"
);
}
);
width = 1229;
}
);
note = yen;
unicode = 00A5;
},
{
glyphname = mu1;
lastChange = "2019-12-03 14:54:35 +0000";
layers = (
{
layerId = "BC15D09A-B757-48E3-911F-803B0089DB3F";
paths = (
{
closed = 1;
nodes = (
"1084 0 LINE",
"1078 42 OFFCURVE",
"1078 233 QCURVE SMOOTH",
"1078 1082 LINE",
"897 1082 LINE",
"897 465 LINE SMOOTH",
"897 314 OFFCURVE",
"721 121 OFFCURVE",
"590 121 QCURVE SMOOTH",
"326 121 OFFCURVE",
"326 438 QCURVE SMOOTH",
"326 1082 LINE",
"144 1082 LINE",
"144 -393 LINE",
"326 -393 LINE",
"326 -20 LINE SMOOTH",
"326 59 OFFCURVE",
"322 102 QCURVE",
"326 102 LINE",
"358 44 OFFCURVE",
"486 -20 OFFCURVE",
"568 -20 QCURVE SMOOTH",
"796 -20 OFFCURVE",
"902 199 QCURVE",
"906 199 LINE",
"906 173 OFFCURVE",
"914 11 OFFCURVE",
"916 0 QCURVE"
);
}
);
width = 1229;
}
);
note = mu1;
unicode = 00B5;
},
{
glyphname = partialdiff;
lastChange = "2019-12-03 14:54:35 +0000";
layers = (
{
layerId = "BC15D09A-B757-48E3-911F-803B0089DB3F";
paths = (
{
closed = 1;
nodes = (
"1123 1201 OFFCURVE",
"895 1477 OFFCURVE",
"685 1477 QCURVE SMOOTH",
"563 1477 OFFCURVE",
"439 1415 QCURVE",
"400 1268 LINE",
"452 1304 OFFCURVE",
"590 1343 OFFCURVE",
"650 1343 QCURVE SMOOTH",
"795 1343 OFFCURVE",
"941 1134 OFFCURVE",
"941 938 QCURVE SMOOTH",
"941 884 OFFCURVE",
"936 821 QCURVE",
"932 821 LINE",
"895 905 OFFCURVE",
"741 1004 OFFCURVE",
"641 1004 QCURVE SMOOTH",
"524 1004 OFFCURVE",
"329 904 OFFCURVE",
"189 725 OFFCURVE",
"105 474 OFFCURVE",
"105 356 QCURVE SMOOTH",
"105 174 OFFCURVE",
"301 -27 OFFCURVE",
"482 -27 QCURVE SMOOTH",
"627 -27 OFFCURVE",
"862 110 OFFCURVE",
"1031 377 OFFCURVE",
"1123 759 OFFCURVE",
"1123 938 QCURVE SMOOTH"
);
},
{
closed = 1;
nodes = (
"883 521 OFFCURVE",
"766 258 OFFCURVE",
"601 109 OFFCURVE",
"506 109 QCURVE SMOOTH",
"406 109 OFFCURVE",
"295 243 OFFCURVE",
"295 358 QCURVE SMOOTH",
"295 487 OFFCURVE",
"401 750 OFFCURVE",
"565 883 OFFCURVE",
"666 883 QCURVE SMOOTH",
"751 883 OFFCURVE",
"885 769 OFFCURVE",
"906 680 QCURVE"
);
}
);
width = 1229;
}
);
note = partialdiff;
unicode = 2202;
},
{
glyphname = summation;
lastChange = "2019-12-03 14:54:35 +0000";
layers = (
{
layerId = "BC15D09A-B757-48E3-911F-803B0089DB3F";
paths = (
{
closed = 1;
nodes = (
"1201 -455 LINE",
"1201 -303 LINE",
"271 -303 LINE",
"871 458 LINE",
"287 1197 LINE",
"1133 1197 LINE",
"1133 1349 LINE",
"43 1349 LINE",
"43 1243 LINE",
"662 456 LINE",
"27 -346 LINE",
"27 -455 LINE"
);
}
);
width = 1229;
}
);
note = summation;
unicode = 2211;
},
{
glyphname = product;
lastChange = "2019-12-03 14:54:35 +0000";
layers = (
{
layerId = "BC15D09A-B757-48E3-911F-803B0089DB3F";
paths = (
{
closed = 1;
nodes = (
"1122 -455 LINE",
"1122 1349 LINE",
"105 1349 LINE",
"105 -455 LINE",
"296 -455 LINE",
"296 1187 LINE",
"938 1187 LINE",
"938 -455 LINE"
);
}
);
width = 1229;
}
);
note = product;
unicode = 220F;
},
{
glyphname = integral;
lastChange = "2019-12-03 14:54:35 +0000";
layers = (
{
layerId = "BC15D09A-B757-48E3-911F-803B0089DB3F";
paths = (
{
closed = 1;
nodes = (
"944 1368 OFFCURVE",
"993 1341 QCURVE",
"993 1489 LINE",
"949 1507 OFFCURVE",
"862 1507 QCURVE SMOOTH",
"696 1507 OFFCURVE",
"522 1325 OFFCURVE",
"522 1153 QCURVE SMOOTH",
"522 -80 LINE SMOOTH",
"522 -313 OFFCURVE",
"352 -313 QCURVE SMOOTH",
"295 -313 OFFCURVE",
"235 -289 QCURVE",
"235 -436 LINE",
"290 -455 OFFCURVE",
"369 -455 QCURVE SMOOTH",
"532 -455 OFFCURVE",
"706 -272 OFFCURVE",
"706 -100 QCURVE SMOOTH",
"706 1135 LINE SMOOTH",
"706 1249 OFFCURVE",
"795 1368 OFFCURVE",
"878 1368 QCURVE SMOOTH"
);
}
);
width = 1229;
}
);
note = integral;
unicode = 222B;
},
{
glyphname = ordfeminine;
lastChange = "2019-12-03 14:54:35 +0000";
layers = (
{
layerId = "BC15D09A-B757-48E3-911F-803B0089DB3F";
paths = (
{
closed = 1;
nodes = (
"206 765 OFFCURVE",
"343 651 OFFCURVE",
"464 651 QCURVE SMOOTH",
"566 651 OFFCURVE",
"712 740 OFFCURVE",
"755 817 QCURVE",
"759 817 LINE",
"765 657 OFFCURVE",
"919 657 QCURVE SMOOTH",
"971 657 OFFCURVE",
"1021 670 QCURVE",
"1021 764 LINE",
"997 756 OFFCURVE",
"972 756 QCURVE SMOOTH",
"929 756 OFFCURVE",
"898 816 OFFCURVE",
"898 874 QCURVE SMOOTH",
"898 1165 LINE SMOOTH",
"898 1298 OFFCURVE",
"732 1432 OFFCURVE",
"579 1432 QCURVE SMOOTH",
"433 1432 OFFCURVE",
"257 1312 OFFCURVE",
"239 1206 QCURVE",
"388 1196 LINE",
"399 1273 OFFCURVE",
"491 1341 OFFCURVE",
"575 1341 QCURVE SMOOTH",
"755 1341 OFFCURVE",
"755 1159 QCURVE SMOOTH",
"755 1116 LINE",
"564 1112 LINE SMOOTH",
"386 1110 OFFCURVE",
"206 987 OFFCURVE",
"206 870 QCURVE SMOOTH"
);
},
{
closed = 1;
nodes = (
"353 960 OFFCURVE",
"471 1027 OFFCURVE",
"601 1030 QCURVE SMOOTH",
"755 1034 LINE",
"755 983 LINE SMOOTH",
"755 929 OFFCURVE",
"689 820 OFFCURVE",
"574 752 OFFCURVE",
"505 752 QCURVE SMOOTH",
"435 752 OFFCURVE",
"353 826 OFFCURVE",
"353 890 QCURVE SMOOTH"
);
}
);
width = 1229;
}
);
note = ordfeminine;
unicode = 00AA;
},
{
glyphname = ordmasculine;
lastChange = "2019-12-03 14:54:35 +0000";
layers = (
{
layerId = "BC15D09A-B757-48E3-911F-803B0089DB3F";
paths = (
{
closed = 1;
nodes = (
"1002 1231 OFFCURVE",
"804 1432 OFFCURVE",
"615 1432 QCURVE SMOOTH",
"432 1432 OFFCURVE",
"226 1224 OFFCURVE",
"226 1042 QCURVE SMOOTH",
"226 865 OFFCURVE",
"429 651 OFFCURVE",
"611 651 QCURVE SMOOTH",
"797 651 OFFCURVE",
"1002 859 OFFCURVE",
"1002 1042 QCURVE SMOOTH"
);
},
{
closed = 1;
nodes = (
"853 889 OFFCURVE",
"726 756 OFFCURVE",
"609 756 QCURVE SMOOTH",
"496 756 OFFCURVE",
"378 902 OFFCURVE",
"378 1042 QCURVE SMOOTH",
"378 1327 OFFCURVE",
"619 1327 QCURVE SMOOTH",
"733 1327 OFFCURVE",
"853 1193 OFFCURVE",
"853 1042 QCURVE SMOOTH"
);
}
);
width = 1229;
}
);
note = ordmasculine;
unicode = 00BA;
},
{
glyphname = Ohm;
lastChange = "2019-12-03 14:54:35 +0000";
layers = (
{
layerId = "BC15D09A-B757-48E3-911F-803B0089DB3F";
paths = (
{
closed = 1;
nodes = (
"370 1370 OFFCURVE",
"83 1047 OFFCURVE",
"83 771 QCURVE SMOOTH",
"83 583 OFFCURVE",
"257 254 OFFCURVE",
"420 145 QCURVE",
"303 156 OFFCURVE",
"259 156 QCURVE SMOOTH",
"59 156 LINE",
"59 0 LINE",
"542 0 LINE",
"542 224 LINE",
"409 322 OFFCURVE",
"278 585 OFFCURVE",
"278 758 QCURVE SMOOTH",
"278 978 OFFCURVE",
"448 1214 OFFCURVE",
"616 1214 QCURVE SMOOTH",
"780 1214 OFFCURVE",
"952 982 OFFCURVE",
"952 758 QCURVE SMOOTH",
"952 586 OFFCURVE",
"822 322 OFFCURVE",
"688 224 QCURVE",
"688 0 LINE",
"1171 0 LINE",
"1171 156 LINE",
"971 156 LINE SMOOTH",
"927 156 OFFCURVE",
"810 145 QCURVE",
"973 253 OFFCURVE",
"1147 582 OFFCURVE",
"1147 771 QCURVE SMOOTH",
"1147 1046 OFFCURVE",
"860 1370 OFFCURVE",
"615 1370 QCURVE SMOOTH"
);
}
);
width = 1229;
}
);
note = Ohm;
unicode = 2126;
},
{
glyphname = ae;
lastChange = "2019-12-03 14:54:35 +0000";
layers = (
{
layerId = "BC15D09A-B757-48E3-911F-803B0089DB3F";
paths = (
{
closed = 1;
nodes = (
"1208 503 LINE",
"1208 527 LINE SMOOTH",
"1208 819 OFFCURVE",
"1039 1102 OFFCURVE",
"873 1102 QCURVE SMOOTH",
"712 1102 OFFCURVE",
"627 963 QCURVE",
"556 1102 OFFCURVE",
"380 1102 QCURVE SMOOTH",
"239 1102 OFFCURVE",
"84 961 OFFCURVE",
"65 810 QCURVE",
"233 793 LINE",
"240 884 OFFCURVE",
"307 965 OFFCURVE",
"381 965 QCURVE SMOOTH",
"453 965 OFFCURVE",
"517 854 OFFCURVE",
"517 719 QCURVE SMOOTH",
"517 660 LINE",
"350 656 LINE SMOOTH",
"20 651 OFFCURVE",
"20 302 QCURVE SMOOTH",
"20 144 OFFCURVE",
"149 -20 OFFCURVE",
"278 -20 QCURVE SMOOTH",
"375 -20 OFFCURVE",
"524 90 OFFCURVE",
"576 212 QCURVE",
"610 90 OFFCURVE",
"747 -20 OFFCURVE",
"868 -20 QCURVE SMOOTH",
"1114 -20 OFFCURVE",
"1182 236 QCURVE",
"1044 281 LINE",
"1028 209 OFFCURVE",
"939 115 OFFCURVE",
"864 115 QCURVE SMOOTH",
"684 115 OFFCURVE",
"679 486 QCURVE SMOOTH",
"679 503 LINE"
);
},
{
closed = 1;
nodes = (
"189 380 OFFCURVE",
"235 480 OFFCURVE",
"316 528 OFFCURVE",
"395 530 QCURVE SMOOTH",
"517 534 LINE",
"517 445 LINE SMOOTH",
"517 357 OFFCURVE",
"463 206 OFFCURVE",
"367 117 OFFCURVE",
"303 117 QCURVE SMOOTH",
"246 117 OFFCURVE",
"189 217 OFFCURVE",
"189 299 QCURVE SMOOTH"
);
},
{
closed = 1;
nodes = (
"945 969 OFFCURVE",
"1033 812 OFFCURVE",
"1042 641 QCURVE",
"681 641 LINE",
"684 795 OFFCURVE",
"777 969 OFFCURVE",
"859 969 QCURVE SMOOTH"
);
}
);
width = 1229;
}
);
note = ae;
unicode = 00E6;
},
{
glyphname = oslash;
lastChange = "2019-12-03 14:54:35 +0000";
layers = (
{
layerId = "BC15D09A-B757-48E3-911F-803B0089DB3F";
paths = (
{
closed = 1;
nodes = (
"1117 789 OFFCURVE",
"1020 926 QCURVE",
"1100 1016 LINE",
"1022 1084 LINE",
"950 1002 LINE",
"828 1102 OFFCURVE",
"615 1102 QCURVE SMOOTH",
"367 1102 OFFCURVE",
"110 814 OFFCURVE",
"110 542 QCURVE SMOOTH",
"110 305 OFFCURVE",
"209 163 QCURVE",
"125 68 LINE",
"201 0 LINE",
"278 87 LINE",
"405 -20 OFFCURVE",
"609 -20 QCURVE SMOOTH",
"857 -20 OFFCURVE",
"1117 270 OFFCURVE",
"1117 542 QCURVE SMOOTH"
);
},
{
closed = 1;
nodes = (
"928 326 OFFCURVE",
"775 113 OFFCURVE",
"607 113 QCURVE SMOOTH",
"463 113 OFFCURVE",
"386 208 QCURVE",
"895 784 LINE",
"928 689 OFFCURVE",
"928 542 QCURVE SMOOTH"
);
},
{
closed = 1;
nodes = (
"299 754 OFFCURVE",
"454 969 OFFCURVE",
"618 969 QCURVE SMOOTH",
"767 969 OFFCURVE",
"842 880 QCURVE",
"333 304 LINE",
"299 396 OFFCURVE",
"299 542 QCURVE SMOOTH"
);
}
);
width = 1229;
}
);
note = oslash;
unicode = 00F8;
},
{
glyphname = questiondown;
lastChange = "2019-12-03 14:54:35 +0000";
layers = (
{
layerId = "BC15D09A-B757-48E3-911F-803B0089DB3F";
paths = (
{
closed = 1;
nodes = (
"153 -96 OFFCURVE",
"409 -289 OFFCURVE",
"632 -289 QCURVE SMOOTH",
"839 -289 OFFCURVE",
"1106 -76 OFFCURVE",
"1132 121 QCURVE",
"948 133 LINE",
"934 7 OFFCURVE",
"765 -139 OFFCURVE",
"630 -139 QCURVE SMOOTH",
"494 -139 OFFCURVE",
"335 -22 OFFCURVE",
"335 87 QCURVE SMOOTH",
"335 142 OFFCURVE",
"375 227 OFFCURVE",
"442 301 OFFCURVE",
"549 380 QCURVE SMOOTH",
"644 450 OFFCURVE",
"723 543 OFFCURVE",
"768 654 OFFCURVE",
"770 724 QCURVE",
"595 724 LINE",
"594 669 OFFCURVE",
"553 583 OFFCURVE",
"482 509 OFFCURVE",
"372 430 QCURVE SMOOTH",
"280 363 OFFCURVE",
"197 266 OFFCURVE",
"153 152 OFFCURVE",
"153 79 QCURVE SMOOTH"
);
},
{
closed = 1;
nodes = (
"583 1081 LINE",
"583 880 LINE",
"778 880 LINE",
"778 1081 LINE"
);
}
);
width = 1229;
}
);
note = questiondown;
unicode = 00BF;
},
{
glyphname = exclamdown;
lastChange = "2019-12-03 14:54:35 +0000";
layers = (
{
layerId = "BC15D09A-B757-48E3-911F-803B0089DB3F";
paths = (
{
closed = 1;
nodes = (
"515 -266 LINE",
"711 -266 LINE",
"687 685 LINE",
"539 685 LINE"
);
},
{
closed = 1;
nodes = (
"519 1082 LINE",
"519 881 LINE",
"713 881 LINE",
"713 1082 LINE"
);
}
);
width = 1229;
}
);
note = exclamdown;
unicode = 00A1;
},
{
glyphname = logicalnot;
lastChange = "2019-12-03 14:54:35 +0000";
layers = (
{
layerId = "BC15D09A-B757-48E3-911F-803B0089DB3F";
paths = (
{
closed = 1;
nodes = (
"1111 180 LINE",
"1111 754 LINE",
"116 754 LINE",
"116 608 LINE",
"966 608 LINE",
"966 180 LINE"
);
}
);
width = 1229;
}
);
note = logicalnot;
unicode = 00AC;
},
{
glyphname = radical;
lastChange = "2019-12-03 14:54:35 +0000";
layers = (
{
layerId = "BC15D09A-B757-48E3-911F-803B0089DB3F";
paths = (
{
closed = 1;
nodes = (
"1149 1620 LINE",
"1020 1620 LINE",
"590 205 LINE",
"348 895 LINE",
"78 895 LINE",
"78 778 LINE",
"260 778 LINE",
"543 -14 LINE",
"649 -14 LINE"
);
}
);
width = 1229;
}
);
note = radical;
unicode = 221A;
},
{
glyphname = florin;
lastChange = "2019-12-03 14:54:35 +0000";
layers = (
{
layerId = "BC15D09A-B757-48E3-911F-803B0089DB3F";
paths = (
{
closed = 1;
nodes = (
"894 1349 LINE",
"859 1359 OFFCURVE",
"777 1369 OFFCURVE",
"741 1369 QCURVE SMOOTH",
"608 1369 OFFCURVE",
"478 1229 OFFCURVE",
"478 1069 QCURVE SMOOTH",
"478 936 LINE",
"325 936 LINE",
"325 805 LINE",
"477 805 LINE",
"477 -425 LINE",
"657 -425 LINE",
"657 805 LINE",
"870 805 LINE",
"870 936 LINE",
"659 936 LINE",
"659 1074 LINE SMOOTH",
"659 1165 OFFCURVE",
"719 1242 OFFCURVE",
"782 1242 QCURVE SMOOTH",
"815 1242 OFFCURVE",
"877 1232 OFFCURVE",
"894 1227 QCURVE"
);
}
);
width = 1229;
}
);
note = florin;
unicode = 0192;
},
{
glyphname = approxequal;
lastChange = "2019-12-03 14:54:35 +0000";
layers = (
{
layerId = "BC15D09A-B757-48E3-911F-803B0089DB3F";
paths = (
{
closed = 1;
nodes = (
"945 758 OFFCURVE",
"1060 796 OFFCURVE",
"1120 838 QCURVE",
"1120 987 LINE",
"1006 893 OFFCURVE",
"876 893 QCURVE SMOOTH",
"847 893 OFFCURVE",
"769 908 OFFCURVE",
"680 938 QCURVE SMOOTH",
"665 943 LINE SMOOTH",
"595 968 OFFCURVE",
"448 1012 OFFCURVE",
"371 1012 QCURVE SMOOTH",
"222 1012 OFFCURVE",
"108 928 QCURVE",
"108 784 LINE",
"179 835 OFFCURVE",
"293 872 OFFCURVE",
"356 872 QCURVE SMOOTH",
"440 872 OFFCURVE",
"573 827 QCURVE SMOOTH",
"646 801 OFFCURVE",
"791 758 OFFCURVE",
"860 758 QCURVE SMOOTH"
);
},
{
closed = 1;
nodes = (
"840 473 OFFCURVE",
"753 493 OFFCURVE",
"606 544 QCURVE SMOOTH",
"473 590 OFFCURVE",
"371 590 QCURVE SMOOTH",
"219 590 OFFCURVE",
"108 506 QCURVE",
"108 365 LINE",
"173 412 OFFCURVE",
"289 453 OFFCURVE",
"356 453 QCURVE SMOOTH",
"440 453 OFFCURVE",
"573 406 QCURVE SMOOTH",
"646 380 OFFCURVE",
"791 336 OFFCURVE",
"860 336 QCURVE SMOOTH",
"943 336 OFFCURVE",
"1060 373 OFFCURVE",
"1120 418 QCURVE",
"1120 565 LINE",
"1006 473 OFFCURVE",
"876 473 QCURVE SMOOTH"
);
}
);
width = 1229;
}
);
note = approxequal;
unicode = 2248;
},
{
glyphname = uni2206;
lastChange = "2019-12-03 14:54:35 +0000";
layers = (
{
layerId = "BC15D09A-B757-48E3-911F-803B0089DB3F";
paths = (
{
closed = 1;
nodes = (
"1216 0 LINE",
"1216 147 LINE",
"733 1409 LINE",
"489 1409 LINE",
"12 145 LINE",
"12 0 LINE"
);
},
{
closed = 1;
nodes = (
"710 997 LINE",
"1024 156 LINE",
"204 156 LINE",
"514 997 LINE",
"612 1274 LINE"
);
}
);
width = 1229;
}
);
note = uni2206;
unicode = 2206;
},
{
glyphname = guillemotleft;
lastChange = "2019-12-03 14:54:35 +0000";
layers = (
{
layerId = "BC15D09A-B757-48E3-911F-803B0089DB3F";
paths = (
{
closed = 1;
nodes = (
"1120 141 LINE",
"1120 170 LINE",
"780 537 LINE",
"1118 909 LINE",
"1118 940 LINE",
"940 940 LINE",
"602 569 LINE",
"602 506 LINE",
"940 141 LINE"
);
},
{
closed = 1;
nodes = (
"642 141 LINE",
"642 170 LINE",
"305 537 LINE",
"640 909 LINE",
"640 940 LINE",
"463 940 LINE",
"127 569 LINE",
"127 506 LINE",
"463 141 LINE"
);
}
);
width = 1229;
}
);
note = guillemotleft;
unicode = 00AB;
},
{
glyphname = guillemotright;
lastChange = "2019-12-03 14:54:35 +0000";
layers = (
{
layerId = "BC15D09A-B757-48E3-911F-803B0089DB3F";
paths = (
{
closed = 1;
nodes = (
"1100 506 LINE",
"1100 569 LINE",
"762 940 LINE",
"586 940 LINE",
"586 909 LINE",
"922 537 LINE",
"584 170 LINE",
"584 141 LINE",
"762 141 LINE"
);
},
{
closed = 1;
nodes = (
"622 506 LINE",
"622 569 LINE",
"287 940 LINE",
"109 940 LINE",
"109 909 LINE",
"445 537 LINE",
"107 170 LINE",
"107 141 LINE",
"287 141 LINE"
);
}
);
width = 1229;
}
);
note = guillemotright;
unicode = 00BB;
},
{
glyphname = ellipsis;
lastChange = "2019-12-03 14:54:35 +0000";
layers = (
{
layerId = "BC15D09A-B757-48E3-911F-803B0089DB3F";
paths = (
{
closed = 1;
nodes = (
"1112 0 LINE",
"1112 219 LINE",
"938 219 LINE",
"938 0 LINE"
);
},
{
closed = 1;
nodes = (
"701 0 LINE",
"701 219 LINE",
"529 219 LINE",
"529 0 LINE"
);
},
{
closed = 1;
nodes = (
"292 0 LINE",
"292 219 LINE",
"117 219 LINE",
"117 0 LINE"
);
}
);
width = 1229;
}
);
note = ellipsis;
unicode = 2026;
},
{
glyphname = OE;
lastChange = "2019-12-03 14:54:35 +0000";
layers = (
{
layerId = "BC15D09A-B757-48E3-911F-803B0089DB3F";
paths = (
{
closed = 1;
nodes = (
"1221 0 LINE",
"1221 152 LINE",
"782 152 LINE",
"782 607 LINE",
"1149 607 LINE",
"1149 757 LINE",
"782 757 LINE",
"782 1197 LINE",
"1180 1197 LINE",
"1180 1349 LINE",
"622 1349 LINE",
"571 1355 OFFCURVE",
"513 1355 QCURVE SMOOTH",
"257 1355 OFFCURVE",
"20 1031 OFFCURVE",
"20 681 QCURVE SMOOTH",
"20 333 OFFCURVE",
"256 -5 OFFCURVE",
"511 -5 QCURVE SMOOTH",
"552 -5 OFFCURVE",
"609 0 QCURVE"
);
},
{
closed = 1;
nodes = (
"355 140 OFFCURVE",
"201 406 OFFCURVE",
"201 681 QCURVE SMOOTH",
"201 953 OFFCURVE",
"350 1209 OFFCURVE",
"513 1209 QCURVE SMOOTH",
"574 1209 OFFCURVE",
"612 1203 QCURVE",
"612 146 LINE",
"584 140 OFFCURVE",
"512 140 QCURVE SMOOTH"
);
}
);
width = 1229;
}
);
note = OE;
unicode = 0152;
},
{
glyphname = oe;
lastChange = "2019-12-03 14:54:35 +0000";
layers = (
{
layerId = "BC15D09A-B757-48E3-911F-803B0089DB3F";
paths = (
{
closed = 1;
nodes = (
"1204 503 LINE",
"1204 527 LINE SMOOTH",
"1204 1102 OFFCURVE",
"885 1102 QCURVE SMOOTH",
"711 1102 OFFCURVE",
"626 925 QCURVE",
"547 1102 OFFCURVE",
"360 1102 QCURVE SMOOTH",
"198 1102 OFFCURVE",
"28 821 OFFCURVE",
"28 542 QCURVE SMOOTH",
"28 269 OFFCURVE",
"196 -20 OFFCURVE",
"353 -20 QCURVE SMOOTH",
"536 -20 OFFCURVE",
"619 163 QCURVE",
"700 -20 OFFCURVE",
"882 -20 QCURVE SMOOTH",
"1112 -20 OFFCURVE",
"1175 236 QCURVE",
"1037 281 LINE",
"1023 209 OFFCURVE",
"945 115 OFFCURVE",
"880 115 QCURVE SMOOTH",
"799 115 OFFCURVE",
"712 314 OFFCURVE",
"712 503 QCURVE"
);
},
{
closed = 1;
nodes = (
"543 322 OFFCURVE",
"461 113 OFFCURVE",
"367 113 QCURVE SMOOTH",
"197 113 OFFCURVE",
"197 542 QCURVE SMOOTH",
"197 761 OFFCURVE",
"282 969 OFFCURVE",
"373 969 QCURVE SMOOTH",
"464 969 OFFCURVE",
"543 761 OFFCURVE",
"543 542 QCURVE SMOOTH"
);
},
{
closed = 1;
nodes = (
"950 969 OFFCURVE",
"1030 812 OFFCURVE",
"1038 641 QCURVE",
"714 641 LINE",
"717 796 OFFCURVE",
"803 969 OFFCURVE",
"875 969 QCURVE SMOOTH"
);
}
);
width = 1229;
}
);
note = oe;
unicode = 0153;
},
{
glyphname = endash;
lastChange = "2019-12-03 14:54:35 +0000";
layers = (
{
layerId = "BC15D09A-B757-48E3-911F-803B0089DB3F";
paths = (
{
closed = 1;
nodes = (
"1058 451 LINE",
"1058 588 LINE",
"170 588 LINE",
"170 451 LINE"
);
}
);
width = 1229;
}
);
note = endash;
unicode = 2013;
},
{
glyphname = emdash;
lastChange = "2019-12-03 14:54:35 +0000";
layers = (
{
layerId = "BC15D09A-B757-48E3-911F-803B0089DB3F";
paths = (
{
closed = 1;
nodes = (
"1238 451 LINE",
"1238 588 LINE",
"-10 588 LINE",
"-10 451 LINE"
);
}
);
width = 1229;
}
);
note = emdash;
unicode = 2014;
},
{
glyphname = quotedblleft;
lastChange = "2019-12-03 14:54:35 +0000";
layers = (
{
layerId = "BC15D09A-B757-48E3-911F-803B0089DB3F";
paths = (
{
closed = 1;
nodes = (
"488 1484 LINE",
"177 862 LINE",
"442 862 LINE",
"611 1484 LINE"
);
},
{
closed = 1;
nodes = (
"927 1484 LINE",
"616 862 LINE",
"881 862 LINE",
"1050 1484 LINE"
);
}
);
width = 1229;
}
);
note = quotedblleft;
unicode = 201C;
},
{
glyphname = quotedblright;
lastChange = "2019-12-03 14:54:35 +0000";
layers = (
{
layerId = "BC15D09A-B757-48E3-911F-803B0089DB3F";
paths = (
{
closed = 1;
nodes = (
"740 862 LINE",
"1051 1484 LINE",
"786 1484 LINE",
"617 862 LINE"
);
},
{
closed = 1;
nodes = (
"301 862 LINE",
"612 1484 LINE",
"347 1484 LINE",
"178 862 LINE"
);
}
);
width = 1229;
}
);
note = quotedblright;
unicode = 201D;
},
{
glyphname = quoteleft;
lastChange = "2019-12-03 14:54:35 +0000";
layers = (
{
layerId = "BC15D09A-B757-48E3-911F-803B0089DB3F";
paths = (
{
closed = 1;
nodes = (
"708 1484 LINE",
"397 862 LINE",
"662 862 LINE",
"831 1484 LINE"
);
}
);
width = 1229;
}
);
note = quoteleft;
unicode = 2018;
},
{
glyphname = quoteright;
lastChange = "2019-12-03 14:54:35 +0000";
layers = (
{
layerId = "BC15D09A-B757-48E3-911F-803B0089DB3F";
paths = (
{
closed = 1;
nodes = (
"522 862 LINE",
"833 1484 LINE",
"568 1484 LINE",
"399 862 LINE"
);
}
);
width = 1229;
}
);
note = quoteright;
unicode = 2019;
},
{
glyphname = divide;
lastChange = "2019-12-03 14:54:35 +0000";
layers = (
{
layerId = "BC15D09A-B757-48E3-911F-803B0089DB3F";
paths = (
{
closed = 1;
nodes = (
"697 958 LINE",
"697 1141 LINE",
"529 1141 LINE",
"529 958 LINE"
);
},
{
closed = 1;
nodes = (
"1111 608 LINE",
"1111 754 LINE",
"116 754 LINE",
"116 608 LINE"
);
},
{
closed = 1;
nodes = (
"697 223 LINE",
"697 406 LINE",
"529 406 LINE",
"529 223 LINE"
);
}
);
width = 1229;
}
);
note = divide;
unicode = 00F7;
},
{
glyphname = lozenge;
lastChange = "2019-12-03 14:54:35 +0000";
layers = (
{
layerId = "BC15D09A-B757-48E3-911F-803B0089DB3F";
paths = (
{
closed = 1;
nodes = (
"1113 721 LINE",
"654 1440 LINE",
"572 1440 LINE",
"115 719 LINE",
"572 0 LINE",
"654 0 LINE"
);
},
{
closed = 1;
nodes = (
"967 721 LINE",
"615 147 LINE",
"261 721 LINE",
"615 1286 LINE"
);
}
);
width = 1229;
}
);
note = lozenge;
unicode = 25CA;
},
{
glyphname = fraction;
lastChange = "2019-12-03 14:54:35 +0000";
layers = (
{
layerId = "BC15D09A-B757-48E3-911F-803B0089DB3F";
paths = (
{
closed = 1;
nodes = (
"1022 1349 LINE",
"907 1349 LINE",
"204 0 LINE",
"322 0 LINE"
);
}
);
width = 1229;
}
);
note = fraction;
unicode = "2044,2215";
},
{
glyphname = Euro;
lastChange = "2019-12-03 14:54:35 +0000";
layers = (
{
layerId = "BC15D09A-B757-48E3-911F-803B0089DB3F";
paths = (
{
closed = 1;
nodes = (
"873 605 LINE",
"399 605 LINE",
"396 679 LINE",
"398 757 LINE",
"873 757 LINE",
"873 898 LINE",
"412 898 LINE",
"432 1069 OFFCURVE",
"580 1214 OFFCURVE",
"744 1214 QCURVE SMOOTH",
"888 1214 OFFCURVE",
"1026 1114 QCURVE",
"1108 1254 LINE",
"1017 1317 OFFCURVE",
"835 1370 OFFCURVE",
"729 1370 QCURVE SMOOTH",
"278 1370 OFFCURVE",
"220 900 QCURVE",
"91 900 LINE",
"91 758 LINE",
"210 758 LINE",
"206 722 OFFCURVE",
"206 679 QCURVE SMOOTH",
"210 604 LINE",
"91 604 LINE",
"91 460 LINE",
"222 460 LINE",
"251 220 OFFCURVE",
"506 -20 OFFCURVE",
"727 -20 QCURVE SMOOTH",
"833 -20 OFFCURVE",
"1023 37 OFFCURVE",
"1123 104 QCURVE",
"1047 239 LINE",
"950 178 OFFCURVE",
"812 135 OFFCURVE",
"737 135 QCURVE SMOOTH",
"586 135 OFFCURVE",
"431 291 OFFCURVE",
"414 463 QCURVE",
"873 463 LINE"
);
}
);
width = 1229;
}
);
note = Euro;
unicode = 20AC;
},
{
glyphname = guilsinglleft;
lastChange = "2019-12-03 14:54:35 +0000";
layers = (
{
layerId = "BC15D09A-B757-48E3-911F-803B0089DB3F";
paths = (
{
closed = 1;
nodes = (
"861 141 LINE",
"861 170 LINE",
"524 537 LINE",
"859 909 LINE",
"859 940 LINE",
"682 940 LINE",
"346 569 LINE",
"346 506 LINE",
"682 141 LINE"
);
}
);
width = 1229;
}
);
note = guilsinglleft;
unicode = 2039;
},
{
glyphname = guilsinglright;
lastChange = "2019-12-03 14:54:35 +0000";
layers = (
{
layerId = "BC15D09A-B757-48E3-911F-803B0089DB3F";
paths = (
{
closed = 1;
nodes = (
"881 506 LINE",
"881 569 LINE",
"544 940 LINE",
"368 940 LINE",
"368 909 LINE",
"704 537 LINE",
"366 170 LINE",
"366 141 LINE",
"544 141 LINE"
);
}
);
width = 1229;
}
);
note = guilsinglright;
unicode = 203A;
},
{
glyphname = fi;
lastChange = "2019-12-03 14:54:35 +0000";
layers = (
{
layerId = "BC15D09A-B757-48E3-911F-803B0089DB3F";
paths = (
{
closed = 1;
nodes = (
"627 951 LINE",
"627 1082 LINE",
"416 1082 LINE",
"416 1179 LINE SMOOTH",
"416 1271 OFFCURVE",
"478 1341 OFFCURVE",
"547 1341 QCURVE SMOOTH",
"582 1341 OFFCURVE",
"627 1333 QCURVE",
"627 1470 LINE",
"575 1482 OFFCURVE",
"500 1482 QCURVE SMOOTH",
"366 1482 OFFCURVE",
"236 1352 OFFCURVE",
"236 1204 QCURVE SMOOTH",
"236 1082 LINE",
"84 1082 LINE",
"84 951 LINE",
"236 951 LINE",
"236 0 LINE",
"416 0 LINE",
"416 951 LINE"
);
},
{
closed = 1;
nodes = (
"1061 1312 LINE",
"1061 1484 LINE",
"881 1484 LINE",
"881 1312 LINE"
);
},
{
closed = 1;
nodes = (
"1061 0 LINE",
"1061 1082 LINE",
"881 1082 LINE",
"881 0 LINE"
);
}
);
width = 1229;
}
);
note = fi;
unicode = FB01;
},
{
glyphname = fl;
lastChange = "2019-12-03 14:54:35 +0000";
layers = (
{
layerId = "BC15D09A-B757-48E3-911F-803B0089DB3F";
paths = (
{
closed = 1;
nodes = (
"627 951 LINE",
"627 1082 LINE",
"416 1082 LINE",
"416 1179 LINE SMOOTH",
"416 1271 OFFCURVE",
"478 1341 OFFCURVE",
"547 1341 QCURVE SMOOTH",
"582 1341 OFFCURVE",
"627 1333 QCURVE",
"627 1470 LINE",
"575 1482 OFFCURVE",
"500 1482 QCURVE SMOOTH",
"366 1482 OFFCURVE",
"236 1352 OFFCURVE",
"236 1204 QCURVE SMOOTH",
"236 1082 LINE",
"84 1082 LINE",
"84 951 LINE",
"236 951 LINE",
"236 0 LINE",
"416 0 LINE",
"416 951 LINE"
);
},
{
closed = 1;
nodes = (
"1061 0 LINE",
"1061 1484 LINE",
"881 1484 LINE",
"881 0 LINE"
);
}
);
width = 1229;
}
);
note = fl;
unicode = FB02;
},
{
glyphname = daggerdbl;
lastChange = "2019-12-03 14:54:35 +0000";
layers = (
{
layerId = "BC15D09A-B757-48E3-911F-803B0089DB3F";
paths = (
{
closed = 1;
nodes = (
"685 281 LINE",
"651 635 LINE",
"685 989 LINE",
"1046 972 LINE",
"1046 1136 LINE",
"685 1117 LINE",
"711 1483 LINE",
"516 1483 LINE",
"542 1117 LINE",
"182 1136 LINE",
"182 972 LINE",
"542 989 LINE",
"576 635 LINE",
"542 281 LINE",
"182 298 LINE",
"182 134 LINE",
"542 153 LINE",
"516 -213 LINE",
"711 -213 LINE",
"685 153 LINE",
"1046 134 LINE",
"1046 298 LINE"
);
}
);
width = 1229;
}
);
note = daggerdbl;
unicode = 2021;
},
{
glyphname = periodcentered;
lastChange = "2019-12-03 14:54:35 +0000";
layers = (
{
layerId = "BC15D09A-B757-48E3-911F-803B0089DB3F";
paths = (
{
closed = 1;
nodes = (
"731 420 LINE",
"731 719 LINE",
"496 719 LINE",
"496 420 LINE"
);
}
);
width = 1229;
}
);
note = periodcentered;
unicode = 2219;
},
{
glyphname = quotesinglbase;
lastChange = "2019-12-03 14:54:35 +0000";
layers = (
{
layerId = "BC15D09A-B757-48E3-911F-803B0089DB3F";
paths = (
{
closed = 1;
nodes = (
"472 -363 LINE",
"783 259 LINE",
"518 259 LINE",
"349 -363 LINE"
);
}
);
width = 1229;
}
);
note = quotesinglbase;
unicode = 201A;
},
{
glyphname = quotedblbase;
lastChange = "2019-12-03 14:54:35 +0000";
layers = (
{
layerId = "BC15D09A-B757-48E3-911F-803B0089DB3F";
paths = (
{
closed = 1;
nodes = (
"740 -364 LINE",
"1051 258 LINE",
"786 258 LINE",
"617 -364 LINE"
);
},
{
closed = 1;
nodes = (
"301 -364 LINE",
"612 258 LINE",
"347 258 LINE",
"178 -364 LINE"
);
}
);
width = 1229;
}
);
note = quotedblbase;
unicode = 201E;
},
{
glyphname = perthousand;
lastChange = "2019-12-03 14:54:35 +0000";
layers = (
{
layerId = "BC15D09A-B757-48E3-911F-803B0089DB3F";
paths = (
{
closed = 1;
nodes = (
"732 1034 LINE",
"585 1034 LINE",
"2 395 LINE",
"147 395 LINE"
);
},
{
closed = 1;
nodes = (
"114 1411 OFFCURVE",
"0 1263 OFFCURVE",
"0 1115 QCURVE SMOOTH",
"0 968 OFFCURVE",
"116 814 OFFCURVE",
"232 814 QCURVE SMOOTH",
"345 814 OFFCURVE",
"464 966 OFFCURVE",
"464 1115 QCURVE SMOOTH",
"464 1262 OFFCURVE",
"353 1411 OFFCURVE",
"236 1411 QCURVE SMOOTH"
);
},
{
closed = 1;
nodes = (
"334 927 OFFCURVE",
"234 927 QCURVE SMOOTH",
"180 927 OFFCURVE",
"130 1014 OFFCURVE",
"130 1115 QCURVE SMOOTH",
"130 1216 OFFCURVE",
"178 1303 OFFCURVE",
"235 1303 QCURVE SMOOTH",
"289 1303 OFFCURVE",
"334 1213 OFFCURVE",
"334 1115 QCURVE SMOOTH"
);
},
{
closed = 1;
nodes = (
"373 597 OFFCURVE",
"259 449 OFFCURVE",
"259 301 QCURVE SMOOTH",
"259 152 OFFCURVE",
"377 0 OFFCURVE",
"492 0 QCURVE SMOOTH",
"605 0 OFFCURVE",
"724 152 OFFCURVE",
"724 301 QCURVE SMOOTH",
"724 597 OFFCURVE",
"495 597 QCURVE SMOOTH"
);
},
{
closed = 1;
nodes = (
"594 202 OFFCURVE",
"544 113 OFFCURVE",
"493 113 QCURVE SMOOTH",
"437 113 OFFCURVE",
"389 206 OFFCURVE",
"389 301 QCURVE SMOOTH",
"389 403 OFFCURVE",
"438 489 OFFCURVE",
"494 489 QCURVE SMOOTH",
"546 489 OFFCURVE",
"594 402 OFFCURVE",
"594 301 QCURVE SMOOTH"
);
},
{
closed = 1;
nodes = (
"878 597 OFFCURVE",
"764 449 OFFCURVE",
"764 301 QCURVE SMOOTH",
"764 153 OFFCURVE",
"882 0 OFFCURVE",
"996 0 QCURVE SMOOTH",
"1109 0 OFFCURVE",
"1228 152 OFFCURVE",
"1228 301 QCURVE SMOOTH",
"1228 448 OFFCURVE",
"1117 597 OFFCURVE",
"1000 597 QCURVE SMOOTH"
);
},
{
closed = 1;
nodes = (
"1099 113 OFFCURVE",
"998 113 QCURVE SMOOTH",
"944 113 OFFCURVE",
"894 200 OFFCURVE",
"894 301 QCURVE SMOOTH",
"894 402 OFFCURVE",
"942 489 OFFCURVE",
"999 489 QCURVE SMOOTH",
"1051 489 OFFCURVE",
"1099 402 OFFCURVE",
"1099 301 QCURVE SMOOTH"
);
}
);
width = 1229;
}
);
note = perthousand;
unicode = 2030;
},
{
glyphname = dotlessi;
lastChange = "2019-12-03 14:54:35 +0000";
layers = (
{
layerId = "BC15D09A-B757-48E3-911F-803B0089DB3F";
paths = (
{
closed = 1;
nodes = (
"745 1082 LINE",
"246 1082 LINE",
"246 940 LINE",
"565 940 LINE",
"565 142 LINE",
"143 142 LINE",
"143 0 LINE",
"1125 0 LINE",
"1125 142 LINE",
"745 142 LINE"
);
}
);
width = 1229;
}
);
note = dotlessi;
unicode = 0131;
},
{
glyphname = circumflex;
lastChange = "2019-12-03 14:54:35 +0000";
layers = (
{
layerId = "BC15D09A-B757-48E3-911F-803B0089DB3F";
paths = (
{
closed = 1;
nodes = (
"701 1460 LINE",
"537 1460 LINE",
"283 1221 LINE",
"283 1201 LINE",
"387 1201 LINE",
"619 1339 LINE",
"621 1339 LINE",
"840 1201 LINE",
"945 1201 LINE",
"945 1221 LINE"
);
}
);
width = 1229;
}
);
note = circumflex;
unicode = 02C6;
},
{
glyphname = tilde;
lastChange = "2019-12-03 14:54:35 +0000";
layers = (
{
layerId = "BC15D09A-B757-48E3-911F-803B0089DB3F";
paths = (
{
closed = 1;
nodes = (
"857 1201 OFFCURVE",
"956 1311 OFFCURVE",
"972 1449 QCURVE",
"860 1449 LINE",
"850 1377 OFFCURVE",
"810 1330 OFFCURVE",
"773 1330 QCURVE SMOOTH",
"740 1330 OFFCURVE",
"666 1367 OFFCURVE",
"586 1412 OFFCURVE",
"502 1449 OFFCURVE",
"458 1449 QCURVE SMOOTH",
"395 1449 OFFCURVE",
"313 1395 OFFCURVE",
"266 1297 OFFCURVE",
"255 1201 QCURVE",
"366 1201 LINE",
"377 1265 OFFCURVE",
"397 1301 OFFCURVE",
"427 1320 OFFCURVE",
"452 1320 QCURVE SMOOTH",
"487 1320 OFFCURVE",
"564 1283 OFFCURVE",
"644 1238 OFFCURVE",
"728 1201 OFFCURVE",
"770 1201 QCURVE SMOOTH"
);
}
);
width = 1229;
}
);
note = tilde;
unicode = 02DC;
},
{
glyphname = uni02C9;
lastChange = "2019-12-03 14:54:35 +0000";
layers = (
{
layerId = "BC15D09A-B757-48E3-911F-803B0089DB3F";
paths = (
{
closed = 1;
nodes = (
"888 1363 LINE",
"337 1363 LINE",
"337 1236 LINE",
"888 1236 LINE"
);
}
);
width = 1229;
}
);
note = uni02C9;
unicode = 02C9;
},
{
glyphname = breve;
lastChange = "2019-12-03 14:54:35 +0000";
layers = (
{
layerId = "BC15D09A-B757-48E3-911F-803B0089DB3F";
paths = (
{
closed = 1;
nodes = (
"738 1201 OFFCURVE",
"903 1341 OFFCURVE",
"927 1460 QCURVE",
"800 1460 LINE",
"783 1397 OFFCURVE",
"698 1327 OFFCURVE",
"613 1327 QCURVE SMOOTH",
"531 1327 OFFCURVE",
"445 1397 OFFCURVE",
"428 1460 QCURVE",
"301 1460 LINE",
"322 1343 OFFCURVE",
"489 1201 OFFCURVE",
"613 1201 QCURVE SMOOTH"
);
}
);
width = 1229;
}
);
note = breve;
unicode = 02D8;
},
{
glyphname = dotaccent;
lastChange = "2019-12-03 14:54:35 +0000";
layers = (
{
layerId = "BC15D09A-B757-48E3-911F-803B0089DB3F";
paths = (
{
closed = 1;
nodes = (
"715 1292 LINE",
"715 1484 LINE",
"515 1484 LINE",
"515 1292 LINE"
);
}
);
width = 1229;
}
);
note = dotaccent;
unicode = 02D9;
},
{
glyphname = ring;
lastChange = "2019-12-03 14:54:35 +0000";
layers = (
{
layerId = "BC15D09A-B757-48E3-911F-803B0089DB3F";
paths = (
{
closed = 1;
nodes = (
"856 1436 OFFCURVE",
"725 1547 OFFCURVE",
"614 1547 QCURVE SMOOTH",
"505 1547 OFFCURVE",
"372 1437 OFFCURVE",
"372 1348 QCURVE SMOOTH",
"372 1261 OFFCURVE",
"502 1148 OFFCURVE",
"614 1148 QCURVE SMOOTH",
"725 1148 OFFCURVE",
"856 1261 OFFCURVE",
"856 1348 QCURVE SMOOTH"
);
},
{
closed = 1;
nodes = (
"735 1310 OFFCURVE",
"670 1264 OFFCURVE",
"614 1264 QCURVE SMOOTH",
"559 1264 OFFCURVE",
"492 1310 OFFCURVE",
"492 1348 QCURVE SMOOTH",
"492 1385 OFFCURVE",
"559 1431 OFFCURVE",
"614 1431 QCURVE SMOOTH",
"670 1431 OFFCURVE",
"735 1385 OFFCURVE",
"735 1348 QCURVE SMOOTH"
);
}
);
width = 1229;
}
);
note = ring;
unicode = 02DA;
},
{
glyphname = cedilla;
lastChange = "2019-12-03 14:54:35 +0000";
layers = (
{
layerId = "BC15D09A-B757-48E3-911F-803B0089DB3F";
paths = (
{
closed = 1;
nodes = (
"483 -186 OFFCURVE",
"389 -103 OFFCURVE",
"295 -100 QCURVE",
"334 0 LINE",
"227 0 LINE",
"162 -182 LINE",
"176 -180 OFFCURVE",
"219 -180 QCURVE SMOOTH",
"291 -180 OFFCURVE",
"352 -222 OFFCURVE",
"352 -262 QCURVE SMOOTH",
"352 -348 OFFCURVE",
"205 -348 QCURVE SMOOTH",
"169 -348 OFFCURVE",
"119 -342 QCURVE",
"119 -440 LINE",
"152 -444 OFFCURVE",
"209 -444 QCURVE SMOOTH",
"483 -444 OFFCURVE",
"483 -258 QCURVE SMOOTH"
);
}
);
width = 1229;
}
);
note = cedilla;
unicode = 00B8;
},
{
glyphname = hungarumlaut;
lastChange = "2019-12-03 14:54:35 +0000";
layers = (
{
layerId = "BC15D09A-B757-48E3-911F-803B0089DB3F";
paths = (
{
closed = 1;
nodes = (
"487 1201 LINE",
"787 1431 LINE",
"787 1460 LINE",
"600 1460 LINE",
"393 1221 LINE",
"393 1201 LINE"
);
},
{
closed = 1;
nodes = (
"123 1201 LINE",
"423 1431 LINE",
"423 1460 LINE",
"236 1460 LINE",
"29 1221 LINE",
"29 1201 LINE"
);
}
);
width = 1229;
}
);
note = hungarumlaut;
unicode = 02DD;
},
{
glyphname = ogonek;
lastChange = "2019-12-03 14:54:35 +0000";
layers = (
{
layerId = "BC15D09A-B757-48E3-911F-803B0089DB3F";
paths = (
{
closed = 1;
nodes = (
"791 -293 LINE",
"730 -317 OFFCURVE",
"676 -317 QCURVE SMOOTH",
"631 -317 OFFCURVE",
"582 -269 OFFCURVE",
"582 -227 QCURVE SMOOTH",
"582 -161 OFFCURVE",
"665 -36 OFFCURVE",
"729 0 QCURVE",
"596 0 LINE",
"524 -41 OFFCURVE",
"441 -172 OFFCURVE",
"441 -240 QCURVE SMOOTH",
"441 -325 OFFCURVE",
"547 -427 OFFCURVE",
"652 -427 QCURVE SMOOTH",
"728 -427 OFFCURVE",
"791 -400 QCURVE"
);
}
);
width = 1229;
}
);
note = ogonek;
unicode = 02DB;
},
{
glyphname = caron;
lastChange = "2019-12-03 14:54:35 +0000";
layers = (
{
layerId = "BC15D09A-B757-48E3-911F-803B0089DB3F";
paths = (
{
closed = 1;
nodes = (
"945 1440 LINE",
"945 1460 LINE",
"840 1460 LINE",
"621 1322 LINE",
"619 1322 LINE",
"387 1460 LINE",
"283 1460 LINE",
"283 1440 LINE",
"537 1201 LINE",
"701 1201 LINE"
);
}
);
width = 1229;
}
);
note = caron;
unicode = 02C7;
},
{
glyphname = Lslash;
lastChange = "2019-12-03 14:54:35 +0000";
layers = (
{
layerId = "BC15D09A-B757-48E3-911F-803B0089DB3F";
paths = (
{
closed = 1;
nodes = (
"1100 0 LINE",
"1100 156 LINE",
"428 156 LINE",
"428 558 LINE",
"781 743 LINE",
"720 864 LINE",
"428 713 LINE",
"428 1349 LINE",
"237 1349 LINE",
"237 614 LINE",
"54 518 LINE",
"120 397 LINE",
"237 458 LINE",
"237 0 LINE"
);
}
);
width = 1229;
}
);
note = Lslash;
unicode = 0141;
},
{
glyphname = lslash;
lastChange = "2019-12-03 14:54:35 +0000";
layers = (
{
layerId = "BC15D09A-B757-48E3-911F-803B0089DB3F";
paths = (
{
closed = 1;
nodes = (
"736 1484 LINE",
"217 1484 LINE",
"217 1342 LINE",
"556 1342 LINE",
"556 783 LINE",
"274 624 LINE",
"338 512 LINE",
"556 635 LINE",
"556 142 LINE",
"134 142 LINE",
"134 0 LINE",
"1116 0 LINE",
"1116 142 LINE",
"736 142 LINE",
"736 736 LINE",
"1023 900 LINE",
"961 1013 LINE",
"736 884 LINE"
);
}
);
width = 1229;
}
);
note = lslash;
unicode = 0142;
},
{
glyphname = brokenbar;
lastChange = "2019-12-03 14:54:35 +0000";
layers = (
{
layerId = "BC15D09A-B757-48E3-911F-803B0089DB3F";
paths = (
{
closed = 1;
nodes = (
"697 676 LINE",
"697 1454 LINE",
"531 1454 LINE",
"531 676 LINE"
);
},
{
closed = 1;
nodes = (
"697 -455 LINE",
"697 324 LINE",
"531 324 LINE",
"531 -455 LINE"
);
}
);
width = 1229;
}
);
note = brokenbar;
unicode = 00A6;
},
{
glyphname = Eth;
lastChange = "2019-12-03 14:54:35 +0000";
layers = (
{
layerId = "BC15D09A-B757-48E3-911F-803B0089DB3F";
paths = (
{
closed = 1;
nodes = (
"1125 1020 OFFCURVE",
"802 1349 OFFCURVE",
"473 1349 QCURVE SMOOTH",
"162 1349 LINE",
"162 746 LINE",
"27 746 LINE",
"27 597 LINE",
"162 597 LINE",
"162 0 LINE",
"532 0 LINE SMOOTH",
"818 0 OFFCURVE",
"1125 357 OFFCURVE",
"1125 688 QCURVE SMOOTH"
);
},
{
closed = 1;
nodes = (
"642 746 LINE",
"353 746 LINE",
"353 1193 LINE",
"474 1193 LINE SMOOTH",
"713 1193 OFFCURVE",
"933 952 OFFCURVE",
"933 688 QCURVE SMOOTH",
"933 422 OFFCURVE",
"727 156 OFFCURVE",
"515 156 QCURVE SMOOTH",
"353 156 LINE",
"353 597 LINE",
"642 597 LINE"
);
}
);
width = 1229;
}
);
note = Eth;
unicode = 00D0;
},
{
glyphname = eth;
lastChange = "2019-12-03 14:54:35 +0000";
layers = (
{
layerId = "BC15D09A-B757-48E3-911F-803B0089DB3F";
paths = (
{
closed = 1;
nodes = (
"373 979 OFFCURVE",
"125 725 OFFCURVE",
"125 481 QCURVE SMOOTH",
"125 238 OFFCURVE",
"373 -20 OFFCURVE",
"605 -20 QCURVE SMOOTH",
"851 -20 OFFCURVE",
"1102 249 OFFCURVE",
"1102 510 QCURVE SMOOTH",
"1102 516 LINE SMOOTH",
"1102 995 OFFCURVE",
"771 1296 QCURVE",
"982 1388 LINE",
"927 1496 LINE",
"663 1382 LINE",
"573 1448 OFFCURVE",
"493 1484 QCURVE",
"284 1484 LINE",
"417 1413 OFFCURVE",
"526 1326 QCURVE",
"308 1232 LINE",
"363 1122 LINE",
"623 1237 LINE",
"758 1115 OFFCURVE",
"843 920 QCURVE",
"749 979 OFFCURVE",
"612 979 QCURVE SMOOTH"
);
},
{
closed = 1;
nodes = (
"913 288 OFFCURVE",
"764 113 OFFCURVE",
"603 113 QCURVE SMOOTH",
"458 113 OFFCURVE",
"314 291 OFFCURVE",
"314 481 QCURVE SMOOTH",
"314 672 OFFCURVE",
"459 846 OFFCURVE",
"616 846 QCURVE SMOOTH",
"772 846 OFFCURVE",
"913 673 OFFCURVE",
"913 481 QCURVE SMOOTH"
);
}
);
width = 1229;
}
);
note = eth;
unicode = 00F0;
},
{
glyphname = Thorn;
lastChange = "2019-12-03 14:54:35 +0000";
layers = (
{
layerId = "BC15D09A-B757-48E3-911F-803B0089DB3F";
paths = (
{
closed = 1;
nodes = (
"1119 892 OFFCURVE",
"861 1114 OFFCURVE",
"622 1114 QCURVE SMOOTH",
"353 1114 LINE",
"353 1349 LINE",
"162 1349 LINE",
"162 0 LINE",
"353 0 LINE",
"353 254 LINE",
"634 254 LINE SMOOTH",
"784 254 OFFCURVE",
"1003 365 OFFCURVE",
"1119 564 OFFCURVE",
"1119 692 QCURVE SMOOTH"
);
},
{
closed = 1;
nodes = (
"927 550 OFFCURVE",
"760 395 OFFCURVE",
"607 395 QCURVE SMOOTH",
"353 395 LINE",
"353 971 LINE",
"599 971 LINE SMOOTH",
"763 971 OFFCURVE",
"927 822 OFFCURVE",
"927 688 QCURVE SMOOTH"
);
}
);
width = 1229;
}
);
note = Thorn;
unicode = 00DE;
},
{
glyphname = thorn;
lastChange = "2019-12-03 14:54:35 +0000";
layers = (
{
layerId = "BC15D09A-B757-48E3-911F-803B0089DB3F";
paths = (
{
closed = 1;
nodes = (
"904 315 OFFCURVE",
"782 113 OFFCURVE",
"649 113 QCURVE SMOOTH",
"500 113 OFFCURVE",
"366 311 OFFCURVE",
"366 524 QCURVE SMOOTH",
"366 746 OFFCURVE",
"500 965 OFFCURVE",
"651 965 QCURVE SMOOTH",
"782 965 OFFCURVE",
"904 772 OFFCURVE",
"904 546 QCURVE SMOOTH"
);
},
{
closed = 1;
nodes = (
"361 904 LINE",
"365 996 OFFCURVE",
"365 1061 QCURVE SMOOTH",
"365 1484 LINE",
"185 1484 LINE",
"185 -425 LINE",
"366 -425 LINE",
"366 -2 LINE SMOOTH",
"366 156 OFFCURVE",
"362 164 QCURVE",
"367 164 LINE",
"452 -20 OFFCURVE",
"698 -20 QCURVE SMOOTH",
"1090 -20 OFFCURVE",
"1090 546 QCURVE SMOOTH",
"1090 831 OFFCURVE",
"896 1104 OFFCURVE",
"698 1104 QCURVE SMOOTH",
"573 1104 OFFCURVE",
"418 1009 OFFCURVE",
"368 904 QCURVE"
);
}
);
width = 1229;
}
);
note = thorn;
unicode = 00FE;
},
{
glyphname = minus;
lastChange = "2019-12-03 14:54:35 +0000";
layers = (
{
layerId = "BC15D09A-B757-48E3-911F-803B0089DB3F";
paths = (
{
closed = 1;
nodes = (
"1112 608 LINE",
"1112 754 LINE",
"117 754 LINE",
"117 608 LINE"
);
}
);
width = 1229;
}
);
note = minus;
unicode = 2212;
},
{
glyphname = multiply;
lastChange = "2019-12-03 14:54:35 +0000";
layers = (
{
layerId = "BC15D09A-B757-48E3-911F-803B0089DB3F";
paths = (
{
closed = 1;
nodes = (
"259 225 LINE",
"615 580 LINE",
"968 227 LINE",
"1070 332 LINE",
"718 684 LINE",
"1068 1032 LINE",
"963 1137 LINE",
"613 786 LINE",
"263 1139 LINE",
"159 1036 LINE",
"511 684 LINE",
"157 330 LINE"
);
}
);
width = 1229;
}
);
note = multiply;
unicode = 00D7;
},
{
glyphname = onesuperior;
lastChange = "2019-12-03 14:54:35 +0000";
layers = (
{
layerId = "BC15D09A-B757-48E3-911F-803B0089DB3F";
paths = (
{
closed = 1;
nodes = (
"923 563 LINE",
"923 670 LINE",
"687 670 LINE",
"687 1410 LINE",
"566 1410 LINE",
"533 1347 OFFCURVE",
"384 1274 OFFCURVE",
"285 1274 QCURVE",
"285 1165 LINE",
"373 1165 OFFCURVE",
"531 1230 OFFCURVE",
"556 1280 QCURVE",
"556 670 LINE",
"291 670 LINE",
"291 563 LINE"
);
}
);
width = 1229;
}
);
note = onesuperior;
unicode = 00B9;
},
{
glyphname = twosuperior;
lastChange = "2019-12-03 14:54:35 +0000";
layers = (
{
layerId = "BC15D09A-B757-48E3-911F-803B0089DB3F";
paths = (
{
closed = 1;
nodes = (
"916 563 LINE",
"914 670 LINE",
"455 670 LINE",
"479 720 OFFCURVE",
"579 812 OFFCURVE",
"711 905 QCURVE SMOOTH",
"807 973 OFFCURVE",
"901 1107 OFFCURVE",
"901 1182 QCURVE SMOOTH",
"901 1294 OFFCURVE",
"756 1421 OFFCURVE",
"625 1421 QCURVE SMOOTH",
"499 1421 OFFCURVE",
"335 1290 OFFCURVE",
"322 1182 QCURVE",
"455 1174 LINE",
"463 1242 OFFCURVE",
"551 1315 OFFCURVE",
"619 1315 QCURVE SMOOTH",
"693 1315 OFFCURVE",
"764 1240 OFFCURVE",
"764 1178 QCURVE SMOOTH",
"764 1118 OFFCURVE",
"676 1004 OFFCURVE",
"579 938 QCURVE SMOOTH",
"471 863 OFFCURVE",
"343 735 OFFCURVE",
"312 666 QCURVE",
"314 563 LINE"
);
}
);
width = 1229;
}
);
note = twosuperior;
unicode = 00B2;
},
{
glyphname = threesuperior;
lastChange = "2019-12-03 14:54:35 +0000";
layers = (
{
layerId = "BC15D09A-B757-48E3-911F-803B0089DB3F";
paths = (
{
closed = 1;
nodes = (
"921 883 OFFCURVE",
"815 988 OFFCURVE",
"724 997 QCURVE",
"724 999 LINE",
"814 1019 OFFCURVE",
"900 1129 OFFCURVE",
"900 1204 QCURVE SMOOTH",
"900 1302 OFFCURVE",
"752 1421 OFFCURVE",
"622 1421 QCURVE SMOOTH",
"495 1421 OFFCURVE",
"338 1301 OFFCURVE",
"325 1192 QCURVE",
"460 1180 LINE",
"466 1245 OFFCURVE",
"550 1315 OFFCURVE",
"618 1315 QCURVE SMOOTH",
"689 1315 OFFCURVE",
"763 1246 OFFCURVE",
"763 1186 QCURVE SMOOTH",
"763 1121 OFFCURVE",
"671 1049 OFFCURVE",
"591 1049 QCURVE SMOOTH",
"534 1049 LINE",
"534 940 LINE",
"595 940 LINE SMOOTH",
"784 940 OFFCURVE",
"784 803 QCURVE SMOOTH",
"784 655 OFFCURVE",
"624 655 QCURVE SMOOTH",
"460 655 OFFCURVE",
"442 791 QCURVE",
"306 778 LINE",
"338 551 OFFCURVE",
"624 551 QCURVE SMOOTH",
"766 551 OFFCURVE",
"921 679 OFFCURVE",
"921 795 QCURVE SMOOTH"
);
}
);
width = 1229;
}
);
note = threesuperior;
unicode = 00B3;
},
{
glyphname = franc;
lastChange = "2019-12-03 14:54:35 +0000";
layers = (
{
layerId = "BC15D09A-B757-48E3-911F-803B0089DB3F";
paths = (
{
closed = 1;
nodes = (
"1100 1193 LINE",
"1100 1349 LINE",
"209 1349 LINE",
"209 388 LINE",
"34 388 LINE",
"34 259 LINE",
"209 259 LINE",
"209 0 LINE",
"400 0 LINE",
"400 259 LINE",
"791 259 LINE",
"791 388 LINE",
"400 388 LINE",
"400 591 LINE",
"1076 591 LINE",
"1076 749 LINE",
"400 749 LINE",
"400 1193 LINE"
);
}
);
width = 1229;
}
);
note = franc;
unicode = 20A3;
},
{
glyphname = dcroat;
lastChange = "2019-12-03 14:54:35 +0000";
layers = (
{
layerId = "BC15D09A-B757-48E3-911F-803B0089DB3F";
paths = (
{
closed = 1;
nodes = (
"1174 1196 LINE",
"1174 1327 LINE",
"1043 1327 LINE",
"1043 1484 LINE",
"863 1484 LINE",
"863 1327 LINE",
"563 1327 LINE",
"563 1196 LINE",
"863 1196 LINE",
"863 1039 LINE",
"865 888 LINE",
"863 888 LINE",
"814 986 OFFCURVE",
"651 1072 OFFCURVE",
"530 1072 QCURVE SMOOTH",
"138 1072 OFFCURVE",
"138 517 QCURVE SMOOTH",
"138 245 OFFCURVE",
"328 -26 OFFCURVE",
"530 -26 QCURVE SMOOTH",
"651 -26 OFFCURVE",
"813 69 OFFCURVE",
"862 174 QCURVE",
"867 174 LINE",
"867 131 OFFCURVE",
"873 15 OFFCURVE",
"877 0 QCURVE",
"1049 0 LINE",
"1043 54 OFFCURVE",
"1043 223 QCURVE SMOOTH",
"1043 1196 LINE"
);
},
{
closed = 1;
nodes = (
"324 736 OFFCURVE",
"445 939 OFFCURVE",
"579 939 QCURVE SMOOTH",
"730 939 OFFCURVE",
"863 745 OFFCURVE",
"863 538 QCURVE SMOOTH",
"863 319 OFFCURVE",
"724 113 OFFCURVE",
"577 113 QCURVE SMOOTH",
"442 113 OFFCURVE",
"324 308 OFFCURVE",
"324 523 QCURVE SMOOTH"
);
}
);
width = 1229;
}
);
note = dcroat;
unicode = 0111;
},
{
glyphname = dcaron;
lastChange = "2019-12-03 14:54:35 +0000";
layers = (
{
layerId = "BC15D09A-B757-48E3-911F-803B0089DB3F";
paths = (
{
closed = 1;
nodes = (
"667 174 LINE",
"667 131 OFFCURVE",
"673 15 OFFCURVE",
"677 0 QCURVE",
"849 0 LINE",
"843 54 OFFCURVE",
"843 223 QCURVE SMOOTH",
"843 1484 LINE",
"663 1484 LINE",
"663 1065 LINE",
"665 914 LINE",
"663 914 LINE",
"614 1012 OFFCURVE",
"482 1098 OFFCURVE",
"384 1098 QCURVE SMOOTH",
"219 1098 OFFCURVE",
"31 801 OFFCURVE",
"31 532 QCURVE SMOOTH",
"31 265 OFFCURVE",
"214 -26 OFFCURVE",
"384 -26 QCURVE SMOOTH",
"481 -26 OFFCURVE",
"614 69 OFFCURVE",
"663 174 QCURVE"
);
},
{
closed = 1;
nodes = (
"217 757 OFFCURVE",
"313 965 OFFCURVE",
"416 965 QCURVE SMOOTH",
"530 965 OFFCURVE",
"663 743 OFFCURVE",
"663 554 QCURVE SMOOTH",
"663 353 OFFCURVE",
"526 113 OFFCURVE",
"415 113 QCURVE SMOOTH",
"310 113 OFFCURVE",
"217 321 OFFCURVE",
"217 538 QCURVE SMOOTH"
);
},
{
closed = 1;
nodes = (
"1060 1159 LINE",
"1231 1447 LINE",
"1231 1484 LINE",
"1034 1484 LINE",
"955 1192 LINE",
"955 1159 LINE"
);
}
);
width = 1229;
}
);
note = dcaron;
unicode = 010F;
},
{
glyphname = lacute;
lastChange = "2019-12-03 14:54:35 +0000";
layers = (
{
layerId = "BC15D09A-B757-48E3-911F-803B0089DB3F";
paths = (
{
closed = 1;
nodes = (
"736 1349 LINE",
"267 1349 LINE",
"267 1207 LINE",
"556 1207 LINE",
"556 142 LINE",
"134 142 LINE",
"134 0 LINE",
"1116 0 LINE",
"1116 142 LINE",
"736 142 LINE"
);
},
{
closed = 1;
nodes = (
"655 1445 LINE",
"955 1676 LINE",
"955 1705 LINE",
"758 1705 LINE",
"531 1465 LINE",
"531 1445 LINE"
);
}
);
width = 1229;
}
);
note = lacute;
unicode = 013A;
},
{
glyphname = Gamma;
lastChange = "2019-12-03 14:54:35 +0000";
layers = (
{
layerId = "BC15D09A-B757-48E3-911F-803B0089DB3F";
paths = (
{
closed = 1;
nodes = (
"415 1193 LINE",
"1115 1193 LINE",
"1115 1349 LINE",
"224 1349 LINE",
"224 0 LINE",
"415 0 LINE"
);
}
);
width = 1229;
}
);
note = Gamma;
unicode = 0393;
},
{
glyphname = Theta;
lastChange = "2019-12-03 14:54:35 +0000";
layers = (
{
layerId = "BC15D09A-B757-48E3-911F-803B0089DB3F";
paths = (
{
closed = 1;
nodes = (
"1126 1023 OFFCURVE",
"862 1370 OFFCURVE",
"615 1370 QCURVE SMOOTH",
"362 1370 OFFCURVE",
"102 1018 OFFCURVE",
"102 681 QCURVE SMOOTH",
"102 338 OFFCURVE",
"364 -20 OFFCURVE",
"613 -20 QCURVE SMOOTH",
"861 -20 OFFCURVE",
"1126 344 OFFCURVE",
"1126 681 QCURVE SMOOTH"
);
},
{
closed = 1;
nodes = (
"925 415 OFFCURVE",
"777 135 OFFCURVE",
"614 135 QCURVE SMOOTH",
"461 135 OFFCURVE",
"303 411 OFFCURVE",
"303 681 QCURVE SMOOTH",
"303 1214 OFFCURVE",
"615 1214 QCURVE SMOOTH",
"925 1214 OFFCURVE",
"925 681 QCURVE SMOOTH"
);
},
{
closed = 1;
nodes = (
"447 757 LINE",
"447 603 LINE",
"782 603 LINE",
"782 757 LINE"
);
}
);
width = 1229;
}
);
note = Theta;
unicode = 0398;
},
{
glyphname = Phi;
lastChange = "2019-12-03 14:54:35 +0000";
layers = (
{
layerId = "BC15D09A-B757-48E3-911F-803B0089DB3F";
paths = (
{
closed = 1;
nodes = (
"1221 927 OFFCURVE",
"958 1187 OFFCURVE",
"734 1187 QCURVE SMOOTH",
"705 1187 LINE",
"705 1359 LINE",
"524 1359 LINE",
"524 1187 LINE",
"494 1187 LINE SMOOTH",
"270 1187 OFFCURVE",
"8 926 OFFCURVE",
"8 706 QCURVE SMOOTH",
"8 569 OFFCURVE",
"128 336 OFFCURVE",
"344 206 OFFCURVE",
"483 206 QCURVE SMOOTH",
"524 206 LINE",
"524 -11 LINE",
"705 -11 LINE",
"705 206 LINE",
"746 206 LINE SMOOTH",
"886 206 OFFCURVE",
"1101 337 OFFCURVE",
"1221 568 OFFCURVE",
"1221 706 QCURVE SMOOTH"
);
},
{
closed = 1;
nodes = (
"1027 541 OFFCURVE",
"864 348 OFFCURVE",
"717 348 QCURVE SMOOTH",
"705 348 LINE",
"705 1044 LINE",
"710 1044 LINE SMOOTH",
"862 1044 OFFCURVE",
"1027 866 OFFCURVE",
"1027 702 QCURVE SMOOTH"
);
},
{
closed = 1;
nodes = (
"202 868 OFFCURVE",
"367 1044 OFFCURVE",
"516 1044 QCURVE SMOOTH",
"524 1044 LINE",
"524 348 LINE",
"512 348 LINE SMOOTH",
"365 348 OFFCURVE",
"202 540 OFFCURVE",
"202 702 QCURVE SMOOTH"
);
}
);
width = 1229;
}
);
note = Phi;
unicode = 03A6;
},
{
glyphname = alpha;
lastChange = "2019-12-03 14:54:35 +0000";
layers = (
{
layerId = "BC15D09A-B757-48E3-911F-803B0089DB3F";
paths = (
{
closed = 1;
nodes = (
"890 237 LINE",
"895 204 OFFCURVE",
"930 61 OFFCURVE",
"954 0 QCURVE",
"1137 0 LINE",
"1090 103 OFFCURVE",
"1031 411 OFFCURVE",
"1026 571 QCURVE",
"1034 669 OFFCURVE",
"1118 976 OFFCURVE",
"1168 1082 QCURVE",
"980 1082 LINE",
"930 966 OFFCURVE",
"907 847 QCURVE",
"905 847 LINE",
"860 968 OFFCURVE",
"681 1102 OFFCURVE",
"555 1102 QCURVE SMOOTH",
"346 1102 OFFCURVE",
"129 820 OFFCURVE",
"129 536 QCURVE SMOOTH",
"129 256 OFFCURVE",
"322 -20 OFFCURVE",
"527 -20 QCURVE SMOOTH",
"771 -20 OFFCURVE",
"886 237 QCURVE"
);
},
{
closed = 1;
nodes = (
"318 768 OFFCURVE",
"439 969 OFFCURVE",
"575 969 QCURVE SMOOTH",
"694 969 OFFCURVE",
"846 757 OFFCURVE",
"875 546 QCURVE",
"849 350 OFFCURVE",
"684 119 OFFCURVE",
"564 119 QCURVE SMOOTH",
"432 119 OFFCURVE",
"318 320 OFFCURVE",
"318 542 QCURVE SMOOTH"
);
}
);
width = 1229;
}
);
note = alpha;
unicode = 03B1;
},
{
glyphname = delta;
lastChange = "2019-12-03 14:54:35 +0000";
layers = (
{
layerId = "BC15D09A-B757-48E3-911F-803B0089DB3F";
paths = (
{
closed = 1;
nodes = (
"920 297 OFFCURVE",
"759 113 OFFCURVE",
"612 113 QCURVE SMOOTH",
"468 113 OFFCURVE",
"301 308 OFFCURVE",
"301 471 QCURVE SMOOTH",
"301 624 OFFCURVE",
"501 864 OFFCURVE",
"685 929 QCURVE",
"783 827 OFFCURVE",
"864 705 OFFCURVE",
"920 557 OFFCURVE",
"920 471 QCURVE SMOOTH"
);
},
{
closed = 1;
nodes = (
"1021 1341 LINE",
"1021 1484 LINE",
"273 1484 LINE",
"273 1354 LINE",
"592 1026 LINE",
"354 944 OFFCURVE",
"112 662 OFFCURVE",
"112 473 QCURVE SMOOTH",
"112 245 OFFCURVE",
"382 -20 OFFCURVE",
"612 -20 QCURVE SMOOTH",
"841 -20 OFFCURVE",
"1109 253 OFFCURVE",
"1109 475 QCURVE SMOOTH",
"1109 579 OFFCURVE",
"1049 751 OFFCURVE",
"938 910 OFFCURVE",
"810 1036 QCURVE SMOOTH",
"494 1349 LINE",
"648 1341 LINE"
);
}
);
width = 1229;
}
);
note = delta;
unicode = 03B4;
},
{
glyphname = epsilon;
lastChange = "2019-12-03 14:54:35 +0000";
layers = (
{
layerId = "BC15D09A-B757-48E3-911F-803B0089DB3F";
paths = (
{
closed = 1;
nodes = (
"494 114 OFFCURVE",
"362 207 OFFCURVE",
"362 298 QCURVE SMOOTH",
"362 399 OFFCURVE",
"562 498 OFFCURVE",
"818 498 QCURVE",
"818 633 LINE",
"581 633 OFFCURVE",
"390 721 OFFCURVE",
"390 809 QCURVE SMOOTH",
"390 883 OFFCURVE",
"509 968 OFFCURVE",
"637 968 QCURVE SMOOTH",
"742 968 OFFCURVE",
"887 900 OFFCURVE",
"934 829 QCURVE",
"1062 917 LINE",
"995 1016 OFFCURVE",
"784 1102 OFFCURVE",
"636 1102 QCURVE SMOOTH",
"440 1102 OFFCURVE",
"208 946 OFFCURVE",
"208 813 QCURVE SMOOTH",
"208 715 OFFCURVE",
"342 579 OFFCURVE",
"449 566 QCURVE",
"449 564 LINE",
"330 553 OFFCURVE",
"175 403 OFFCURVE",
"175 295 QCURVE SMOOTH",
"175 144 OFFCURVE",
"395 -20 OFFCURVE",
"609 -20 QCURVE SMOOTH",
"764 -20 OFFCURVE",
"1009 78 OFFCURVE",
"1089 175 QCURVE",
"984 275 LINE",
"920 198 OFFCURVE",
"729 114 OFFCURVE",
"621 114 QCURVE SMOOTH"
);
}
);
width = 1229;
}
);
note = epsilon;
unicode = 03B5;
},
{
glyphname = sigma;
lastChange = "2019-12-03 14:54:35 +0000";
layers = (
{
layerId = "BC15D09A-B757-48E3-911F-803B0089DB3F";
paths = (
{
closed = 1;
nodes = (
"1078 605 OFFCURVE",
"1010 816 OFFCURVE",
"926 942 QCURVE",
"926 946 LINE",
"1074 940 LINE",
"1229 940 LINE",
"1229 1082 LINE",
"670 1082 LINE SMOOTH",
"392 1082 OFFCURVE",
"92 789 OFFCURVE",
"92 524 QCURVE SMOOTH",
"92 261 OFFCURVE",
"348 -20 OFFCURVE",
"588 -20 QCURVE SMOOTH",
"817 -20 OFFCURVE",
"1078 250 OFFCURVE",
"1078 491 QCURVE SMOOTH"
);
},
{
closed = 1;
nodes = (
"889 306 OFFCURVE",
"731 113 OFFCURVE",
"580 113 QCURVE SMOOTH",
"282 113 OFFCURVE",
"282 526 QCURVE SMOOTH",
"282 725 OFFCURVE",
"490 940 OFFCURVE",
"676 940 QCURVE SMOOTH",
"765 940 LINE",
"889 732 OFFCURVE",
"889 488 QCURVE SMOOTH"
);
}
);
width = 1229;
}
);
note = sigma;
unicode = 03C3;
},
{
glyphname = tau;
lastChange = "2019-12-03 14:54:35 +0000";
layers = (
{
layerId = "BC15D09A-B757-48E3-911F-803B0089DB3F";
paths = (
{
closed = 1;
nodes = (
"498 940 LINE",
"498 227 LINE SMOOTH",
"498 99 OFFCURVE",
"617 -20 OFFCURVE",
"745 -20 QCURVE SMOOTH",
"801 -20 OFFCURVE",
"915 -6 OFFCURVE",
"938 0 QCURVE",
"938 131 LINE",
"858 121 OFFCURVE",
"802 121 QCURVE SMOOTH",
"678 121 OFFCURVE",
"678 256 QCURVE SMOOTH",
"678 940 LINE",
"1052 940 LINE",
"1052 1082 LINE",
"332 1082 LINE SMOOTH",
"280 1082 OFFCURVE",
"173 1065 OFFCURVE",
"149 1053 QCURVE",
"149 903 LINE",
"171 916 OFFCURVE",
"319 940 OFFCURVE",
"401 940 QCURVE SMOOTH"
);
}
);
width = 1229;
}
);
note = tau;
unicode = 03C4;
},
{
glyphname = phi;
lastChange = "2019-12-03 14:54:35 +0000";
layers = (
{
layerId = "BC15D09A-B757-48E3-911F-803B0089DB3F";
paths = (
{
closed = 1;
nodes = (
"1177 813 OFFCURVE",
"994 1104 OFFCURVE",
"834 1104 QCURVE SMOOTH",
"685 1104 OFFCURVE",
"527 884 OFFCURVE",
"527 689 QCURVE SMOOTH",
"527 109 LINE",
"219 125 OFFCURVE",
"219 541 QCURVE SMOOTH",
"219 714 OFFCURVE",
"354 942 OFFCURVE",
"476 970 QCURVE",
"455 1106 LINE",
"263 1073 OFFCURVE",
"50 774 OFFCURVE",
"50 545 QCURVE SMOOTH",
"50 277 OFFCURVE",
"294 -7 OFFCURVE",
"527 -18 QCURVE",
"527 -425 LINE",
"687 -425 LINE",
"687 -18 LINE",
"926 -5 OFFCURVE",
"1177 292 OFFCURVE",
"1177 565 QCURVE SMOOTH"
);
},
{
closed = 1;
nodes = (
"1008 122 OFFCURVE",
"687 109 QCURVE",
"687 692 LINE SMOOTH",
"687 981 OFFCURVE",
"836 981 QCURVE SMOOTH",
"917 981 OFFCURVE",
"1008 758 OFFCURVE",
"1008 567 QCURVE SMOOTH"
);
}
);
width = 1229;
}
);
note = phi;
unicode = 03C6;
},
{
glyphname = underscoredbl;
lastChange = "2019-12-03 14:54:35 +0000";
layers = (
{
layerId = "BC15D09A-B757-48E3-911F-803B0089DB3F";
paths = (
{
closed = 1;
nodes = (
"1233 -220 LINE",
"1233 -124 LINE",
"-5 -124 LINE",
"-5 -220 LINE"
);
},
{
closed = 1;
nodes = (
"1233 -425 LINE",
"1233 -329 LINE",
"-5 -329 LINE",
"-5 -425 LINE"
);
}
);
width = 1229;
}
);
note = underscoredbl;
unicode = 2017;
},
{
glyphname = exclamdbl;
lastChange = "2019-12-03 14:54:35 +0000";
layers = (
{
layerId = "BC15D09A-B757-48E3-911F-803B0089DB3F";
paths = (
{
closed = 1;
nodes = (
"435 1348 LINE",
"239 1348 LINE",
"263 397 LINE",
"411 397 LINE"
);
},
{
closed = 1;
nodes = (
"431 0 LINE",
"431 201 LINE",
"237 201 LINE",
"237 0 LINE"
);
},
{
closed = 1;
nodes = (
"992 1348 LINE",
"796 1348 LINE",
"820 397 LINE",
"968 397 LINE"
);
},
{
closed = 1;
nodes = (
"988 0 LINE",
"988 201 LINE",
"794 201 LINE",
"794 0 LINE"
);
}
);
width = 1229;
}
);
note = exclamdbl;
unicode = 203C;
},
{
glyphname = nsuperior;
lastChange = "2019-12-03 14:54:35 +0000";
layers = (
{
layerId = "BC15D09A-B757-48E3-911F-803B0089DB3F";
paths = (
{
closed = 1;
nodes = (
"899 519 LINE",
"899 952 LINE SMOOTH",
"899 1073 OFFCURVE",
"802 1181 OFFCURVE",
"692 1181 QCURVE SMOOTH",
"618 1181 OFFCURVE",
"519 1123 OFFCURVE",
"484 1058 QCURVE",
"482 1058 LINE",
"476 1169 LINE",
"357 1169 LINE",
"361 1030 LINE",
"361 519 LINE",
"489 519 LINE",
"489 883 LINE SMOOTH",
"489 977 OFFCURVE",
"574 1077 OFFCURVE",
"646 1077 QCURVE SMOOTH",
"716 1077 OFFCURVE",
"770 1007 OFFCURVE",
"770 917 QCURVE SMOOTH",
"770 519 LINE"
);
}
);
width = 1229;
}
);
note = nsuperior;
unicode = 207F;
},
{
glyphname = peseta;
lastChange = "2019-12-03 14:54:35 +0000";
layers = (
{
layerId = "BC15D09A-B757-48E3-911F-803B0089DB3F";
paths = (
{
closed = 1;
nodes = (
"582 1349 OFFCURVE",
"255 1349 QCURVE SMOOTH",
"45 1349 LINE",
"45 0 LINE",
"206 0 LINE",
"206 654 LINE",
"267 654 LINE SMOOTH",
"412 654 OFFCURVE",
"582 850 OFFCURVE",
"582 1015 QCURVE SMOOTH"
);
},
{
closed = 1;
nodes = (
"1204 282 OFFCURVE",
"1073 371 QCURVE SMOOTH",
"1022 406 OFFCURVE",
"969 463 OFFCURVE",
"969 500 QCURVE SMOOTH",
"969 573 OFFCURVE",
"1024 573 QCURVE SMOOTH",
"1043 573 OFFCURVE",
"1078 538 OFFCURVE",
"1083 494 QCURVE",
"1192 506 LINE",
"1184 578 OFFCURVE",
"1096 664 OFFCURVE",
"1026 664 QCURVE SMOOTH",
"939 664 OFFCURVE",
"845 578 OFFCURVE",
"845 499 QCURVE SMOOTH",
"845 443 OFFCURVE",
"910 342 OFFCURVE",
"987 290 QCURVE SMOOTH",
"1035 257 OFFCURVE",
"1080 195 OFFCURVE",
"1080 159 QCURVE SMOOTH",
"1080 119 OFFCURVE",
"1046 82 OFFCURVE",
"1020 82 QCURVE SMOOTH",
"959 82 OFFCURVE",
"943 170 QCURVE",
"835 153 LINE",
"846 73 OFFCURVE",
"944 -10 OFFCURVE",
"1018 -10 QCURVE SMOOTH",
"1108 -10 OFFCURVE",
"1204 90 OFFCURVE",
"1204 173 QCURVE SMOOTH"
);
},
{
closed = 1;
nodes = (
"420 909 OFFCURVE",
"345 795 OFFCURVE",
"270 795 QCURVE SMOOTH",
"206 795 LINE",
"206 1206 LINE",
"262 1206 LINE SMOOTH",
"343 1206 OFFCURVE",
"420 1112 OFFCURVE",
"420 1012 QCURVE SMOOTH"
);
},
{
closed = 1;
nodes = (
"534 553 LINE",
"534 151 LINE SMOOTH",
"534 -10 OFFCURVE",
"702 -10 QCURVE SMOOTH",
"754 -10 OFFCURVE",
"805 1 QCURVE",
"805 98 LINE",
"778 91 OFFCURVE",
"733 91 QCURVE SMOOTH",
"665 91 OFFCURVE",
"665 169 QCURVE SMOOTH",
"665 553 LINE",
"814 553 LINE",
"814 650 LINE",
"665 650 LINE",
"665 792 LINE",
"594 792 LINE",
"535 650 LINE",
"445 650 LINE",
"445 553 LINE"
);
}
);
width = 1229;
}
);
note = peseta;
unicode = 20A7;
},
{
glyphname = arrowleft;
lastChange = "2019-12-03 14:54:35 +0000";
layers = (
{
layerId = "BC15D09A-B757-48E3-911F-803B0089DB3F";
paths = (
{
closed = 1;
nodes = (
"1220 487 LINE",
"1220 573 LINE",
"231 573 LINE",
"288 640 OFFCURVE",
"350 770 QCURVE",
"278 770 LINE",
"151 621 OFFCURVE",
"8 548 QCURVE",
"8 512 LINE",
"151 439 OFFCURVE",
"278 290 QCURVE",
"350 290 LINE",
"288 420 OFFCURVE",
"231 487 QCURVE"
);
}
);
width = 1229;
}
);
note = arrowleft;
unicode = 2190;
},
{
glyphname = arrowup;
lastChange = "2019-12-03 14:54:35 +0000";
layers = (
{
layerId = "BC15D09A-B757-48E3-911F-803B0089DB3F";
paths = (
{
closed = 1;
nodes = (
"571 -61 LINE",
"657 -61 LINE",
"657 928 LINE",
"724 871 OFFCURVE",
"854 809 QCURVE",
"854 881 LINE",
"705 1008 OFFCURVE",
"632 1151 QCURVE",
"596 1151 LINE",
"523 1008 OFFCURVE",
"374 881 QCURVE",
"374 809 LINE",
"504 871 OFFCURVE",
"571 928 QCURVE"
);
}
);
width = 1229;
}
);
note = arrowup;
unicode = 2191;
},
{
glyphname = arrowright;
lastChange = "2019-12-03 14:54:35 +0000";
layers = (
{
layerId = "BC15D09A-B757-48E3-911F-803B0089DB3F";
paths = (
{
closed = 1;
nodes = (
"8 573 LINE",
"8 487 LINE",
"997 487 LINE",
"940 420 OFFCURVE",
"878 290 QCURVE",
"950 290 LINE",
"1077 439 OFFCURVE",
"1220 512 QCURVE",
"1220 548 LINE",
"1077 621 OFFCURVE",
"950 770 QCURVE",
"878 770 LINE",
"940 640 OFFCURVE",
"997 573 QCURVE"
);
}
);
width = 1229;
}
);
note = arrowright;
unicode = 2192;
},
{
glyphname = arrowdown;
lastChange = "2019-12-03 14:54:35 +0000";
layers = (
{
layerId = "BC15D09A-B757-48E3-911F-803B0089DB3F";
paths = (
{
closed = 1;
nodes = (
"657 1151 LINE",
"571 1151 LINE",
"571 162 LINE",
"504 219 OFFCURVE",
"374 281 QCURVE",
"374 209 LINE",
"523 82 OFFCURVE",
"596 -61 QCURVE",
"632 -61 LINE",
"705 82 OFFCURVE",
"854 209 QCURVE",
"854 281 LINE",
"724 219 OFFCURVE",
"657 162 QCURVE"
);
}
);
width = 1229;
}
);
note = arrowdown;
unicode = 2193;
},
{
glyphname = arrowboth;
lastChange = "2019-12-03 14:54:35 +0000";
layers = (
{
layerId = "BC15D09A-B757-48E3-911F-803B0089DB3F";
paths = (
{
closed = 1;
nodes = (
"997 487 LINE",
"940 420 OFFCURVE",
"878 290 QCURVE",
"950 290 LINE",
"1077 439 OFFCURVE",
"1220 512 QCURVE",
"1220 548 LINE",
"1077 621 OFFCURVE",
"950 770 QCURVE",
"878 770 LINE",
"940 640 OFFCURVE",
"997 573 QCURVE",
"231 573 LINE",
"288 640 OFFCURVE",
"350 770 QCURVE",
"278 770 LINE",
"151 621 OFFCURVE",
"8 548 QCURVE",
"8 512 LINE",
"151 439 OFFCURVE",
"278 290 QCURVE",
"350 290 LINE",
"288 420 OFFCURVE",
"231 487 QCURVE"
);
}
);
width = 1229;
}
);
note = arrowboth;
unicode = 2194;
},
{
glyphname = arrowupdn;
lastChange = "2019-12-03 14:54:35 +0000";
layers = (
{
layerId = "BC15D09A-B757-48E3-911F-803B0089DB3F";
paths = (
{
closed = 1;
nodes = (
"571 162 LINE",
"504 219 OFFCURVE",
"374 281 QCURVE",
"374 209 LINE",
"523 82 OFFCURVE",
"596 -61 QCURVE",
"632 -61 LINE",
"705 82 OFFCURVE",
"854 209 QCURVE",
"854 281 LINE",
"724 219 OFFCURVE",
"657 162 QCURVE",
"657 928 LINE",
"724 871 OFFCURVE",
"854 809 QCURVE",
"854 881 LINE",
"705 1008 OFFCURVE",
"632 1151 QCURVE",
"596 1151 LINE",
"523 1008 OFFCURVE",
"374 881 QCURVE",
"374 809 LINE",
"504 871 OFFCURVE",
"571 928 QCURVE"
);
}
);
width = 1229;
}
);
note = arrowupdn;
unicode = 2195;
},
{
glyphname = arrowupdnbse;
lastChange = "2019-12-03 14:54:35 +0000";
layers = (
{
layerId = "BC15D09A-B757-48E3-911F-803B0089DB3F";
paths = (
{
closed = 1;
nodes = (
"374 -184 LINE",
"854 -184 LINE",
"854 -104 LINE",
"374 -104 LINE"
);
},
{
closed = 1;
nodes = (
"571 162 LINE",
"504 219 OFFCURVE",
"374 281 QCURVE",
"374 209 LINE",
"523 82 OFFCURVE",
"596 -61 QCURVE",
"632 -61 LINE",
"705 82 OFFCURVE",
"854 209 QCURVE",
"854 281 LINE",
"724 219 OFFCURVE",
"657 162 QCURVE",
"657 928 LINE",
"724 871 OFFCURVE",
"854 809 QCURVE",
"854 881 LINE",
"705 1008 OFFCURVE",
"632 1151 QCURVE",
"596 1151 LINE",
"523 1008 OFFCURVE",
"374 881 QCURVE",
"374 809 LINE",
"504 871 OFFCURVE",
"571 928 QCURVE"
);
}
);
width = 1229;
}
);
note = arrowupdnbse;
unicode = 21A8;
},
{
glyphname = orthogonal;
lastChange = "2019-12-03 14:54:35 +0000";
layers = (
{
layerId = "BC15D09A-B757-48E3-911F-803B0089DB3F";
paths = (
{
closed = 1;
nodes = (
"52 0 LINE",
"1176 0 LINE",
"1176 94 LINE",
"146 94 LINE",
"146 1223 LINE",
"52 1223 LINE"
);
}
);
width = 1229;
}
);
note = orthogonal;
unicode = 221F;
},
{
glyphname = intersection;
lastChange = "2019-12-03 14:54:35 +0000";
layers = (
{
layerId = "BC15D09A-B757-48E3-911F-803B0089DB3F";
paths = (
{
closed = 1;
nodes = (
"259 -2 LINE",
"259 510 LINE SMOOTH",
"259 704 OFFCURVE",
"451 930 OFFCURVE",
"613 930 QCURVE SMOOTH",
"773 930 OFFCURVE",
"969 702 OFFCURVE",
"969 512 QCURVE SMOOTH",
"969 -2 LINE",
"1072 -2 LINE",
"1072 510 LINE SMOOTH",
"1072 658 OFFCURVE",
"953 900 OFFCURVE",
"742 1032 OFFCURVE",
"611 1032 QCURVE SMOOTH",
"481 1032 OFFCURVE",
"272 899 OFFCURVE",
"156 660 OFFCURVE",
"156 510 QCURVE SMOOTH",
"156 -2 LINE"
);
}
);
width = 1229;
}
);
note = intersection;
unicode = 2229;
},
{
glyphname = equivalence;
lastChange = "2019-12-03 14:54:35 +0000";
layers = (
{
layerId = "BC15D09A-B757-48E3-911F-803B0089DB3F";
paths = (
{
closed = 1;
nodes = (
"1111 956 LINE",
"1111 1104 LINE",
"116 1104 LINE",
"116 956 LINE"
);
},
{
closed = 1;
nodes = (
"1111 244 LINE",
"1111 392 LINE",
"116 392 LINE",
"116 244 LINE"
);
},
{
closed = 1;
nodes = (
"1111 600 LINE",
"1111 748 LINE",
"116 748 LINE",
"116 600 LINE"
);
}
);
width = 1229;
}
);
note = equivalence;
unicode = 2261;
},
{
glyphname = house;
lastChange = "2019-12-03 14:54:35 +0000";
layers = (
{
layerId = "BC15D09A-B757-48E3-911F-803B0089DB3F";
paths = (
{
closed = 1;
nodes = (
"1090 0 LINE",
"1090 635 LINE",
"614 1083 LINE",
"138 635 LINE",
"138 0 LINE"
);
},
{
closed = 1;
nodes = (
"221 597 LINE",
"614 967 LINE",
"1007 597 LINE",
"1007 85 LINE",
"221 85 LINE"
);
}
);
width = 1229;
}
);
note = house;
unicode = 2302;
},
{
glyphname = revlogicalnot;
lastChange = "2019-12-03 14:54:35 +0000";
layers = (
{
layerId = "BC15D09A-B757-48E3-911F-803B0089DB3F";
paths = (
{
closed = 1;
nodes = (
"1111 608 LINE",
"1111 754 LINE",
"116 754 LINE",
"115 180 LINE",
"262 180 LINE",
"262 608 LINE"
);
}
);
width = 1229;
}
);
note = revlogicalnot;
unicode = 2310;
},
{
glyphname = integraltp;
lastChange = "2019-12-03 14:54:35 +0000";
layers = (
{
layerId = "BC15D09A-B757-48E3-911F-803B0089DB3F";
paths = (
{
closed = 1;
nodes = (
"687 1285 LINE SMOOTH",
"687 1452 OFFCURVE",
"730 1603 OFFCURVE",
"781 1603 QCURVE SMOOTH",
"803 1603 OFFCURVE",
"830 1567 OFFCURVE",
"859 1524 OFFCURVE",
"902 1488 OFFCURVE",
"941 1488 QCURVE SMOOTH",
"976 1488 OFFCURVE",
"1026 1537 OFFCURVE",
"1026 1576 QCURVE SMOOTH",
"1026 1632 OFFCURVE",
"925 1705 OFFCURVE",
"855 1705 QCURVE SMOOTH",
"706 1705 OFFCURVE",
"542 1440 OFFCURVE",
"542 1207 QCURVE SMOOTH",
"542 -615 LINE",
"687 -615 LINE"
);
}
);
width = 1229;
}
);
note = integraltp;
unicode = 2320;
},
{
glyphname = integralbt;
lastChange = "2019-12-03 14:54:35 +0000";
layers = (
{
layerId = "BC15D09A-B757-48E3-911F-803B0089DB3F";
paths = (
{
closed = 1;
nodes = (
"542 -195 LINE SMOOTH",
"542 -362 OFFCURVE",
"499 -513 OFFCURVE",
"448 -513 QCURVE SMOOTH",
"426 -513 OFFCURVE",
"399 -477 OFFCURVE",
"370 -434 OFFCURVE",
"327 -398 OFFCURVE",
"288 -398 QCURVE SMOOTH",
"253 -398 OFFCURVE",
"203 -447 OFFCURVE",
"203 -486 QCURVE SMOOTH",
"203 -542 OFFCURVE",
"304 -615 OFFCURVE",
"374 -615 QCURVE SMOOTH",
"521 -615 OFFCURVE",
"687 -354 OFFCURVE",
"687 -117 QCURVE SMOOTH",
"687 1705 LINE",
"542 1705 LINE"
);
}
);
width = 1229;
}
);
note = integralbt;
unicode = 2321;
},
{
glyphname = uni2500;
lastChange = "2019-12-03 14:54:35 +0000";
layers = (
{
layerId = "BC15D09A-B757-48E3-911F-803B0089DB3F";
paths = (
{
closed = 1;
nodes = (
"1239 555 LINE",
"1239 700 LINE",
"-10 700 LINE",
"-10 555 LINE"
);
}
);
width = 1229;
}
);
note = uni2500;
unicode = 2500;
},
{
glyphname = uni2502;
lastChange = "2019-12-03 14:54:35 +0000";
layers = (
{
layerId = "BC15D09A-B757-48E3-911F-803B0089DB3F";
paths = (
{
closed = 1;
nodes = (
"542 -615 LINE",
"687 -615 LINE",
"687 1705 LINE",
"542 1705 LINE"
);
}
);
width = 1229;
}
);
note = uni2502;
unicode = 2502;
},
{
glyphname = uni250C;
lastChange = "2019-12-03 14:54:35 +0000";
layers = (
{
layerId = "BC15D09A-B757-48E3-911F-803B0089DB3F";
paths = (
{
closed = 1;
nodes = (
"542 -615 LINE",
"687 -615 LINE",
"687 555 LINE",
"1239 555 LINE",
"1239 700 LINE",
"542 700 LINE"
);
}
);
width = 1229;
}
);
note = uni250C;
unicode = 250C;
},
{
glyphname = uni2510;
lastChange = "2019-12-03 14:54:35 +0000";
layers = (
{
layerId = "BC15D09A-B757-48E3-911F-803B0089DB3F";
paths = (
{
closed = 1;
nodes = (
"542 555 LINE",
"542 -615 LINE",
"687 -615 LINE",
"687 700 LINE",
"-10 700 LINE",
"-10 555 LINE"
);
}
);
width = 1229;
}
);
note = uni2510;
unicode = 2510;
},
{
glyphname = uni2514;
lastChange = "2019-12-03 14:54:35 +0000";
layers = (
{
layerId = "BC15D09A-B757-48E3-911F-803B0089DB3F";
paths = (
{
closed = 1;
nodes = (
"542 555 LINE",
"1239 555 LINE",
"1239 700 LINE",
"687 700 LINE",
"687 1705 LINE",
"542 1705 LINE"
);
}
);
width = 1229;
}
);
note = uni2514;
unicode = 2514;
},
{
glyphname = uni2518;
lastChange = "2019-12-03 14:54:35 +0000";
layers = (
{
layerId = "BC15D09A-B757-48E3-911F-803B0089DB3F";
paths = (
{
closed = 1;
nodes = (
"687 555 LINE",
"687 1705 LINE",
"542 1705 LINE",
"542 700 LINE",
"-10 700 LINE",
"-10 555 LINE"
);
}
);
width = 1229;
}
);
note = uni2518;
unicode = 2518;
},
{
glyphname = uni251C;
lastChange = "2019-12-03 14:54:35 +0000";
layers = (
{
layerId = "BC15D09A-B757-48E3-911F-803B0089DB3F";
paths = (
{
closed = 1;
nodes = (
"542 -615 LINE",
"687 -615 LINE",
"687 555 LINE",
"1239 555 LINE",
"1239 700 LINE",
"687 700 LINE",
"687 1705 LINE",
"542 1705 LINE"
);
}
);
width = 1229;
}
);
note = uni251C;
unicode = 251C;
},
{
glyphname = uni2524;
lastChange = "2019-12-03 14:54:35 +0000";
layers = (
{
layerId = "BC15D09A-B757-48E3-911F-803B0089DB3F";
paths = (
{
closed = 1;
nodes = (
"542 555 LINE",
"542 -615 LINE",
"687 -615 LINE",
"687 1705 LINE",
"542 1705 LINE",
"542 700 LINE",
"-10 700 LINE",
"-10 555 LINE"
);
}
);
width = 1229;
}
);
note = uni2524;
unicode = 2524;
},
{
glyphname = uni252C;
lastChange = "2019-12-03 14:54:35 +0000";
layers = (
{
layerId = "BC15D09A-B757-48E3-911F-803B0089DB3F";
paths = (
{
closed = 1;
nodes = (
"542 555 LINE",
"542 -615 LINE",
"687 -615 LINE",
"687 555 LINE",
"1239 555 LINE",
"1239 700 LINE",
"-10 700 LINE",
"-10 555 LINE"
);
}
);
width = 1229;
}
);
note = uni252C;
unicode = 252C;
},
{
glyphname = uni2534;
lastChange = "2019-12-03 14:54:35 +0000";
layers = (
{
layerId = "BC15D09A-B757-48E3-911F-803B0089DB3F";
paths = (
{
closed = 1;
nodes = (
"1239 555 LINE",
"1239 700 LINE",
"687 700 LINE",
"687 1705 LINE",
"542 1705 LINE",
"542 700 LINE",
"-10 700 LINE",
"-10 555 LINE"
);
}
);
width = 1229;
}
);
note = uni2534;
unicode = 2534;
},
{
glyphname = uni253C;
lastChange = "2019-12-03 14:54:35 +0000";
layers = (
{
layerId = "BC15D09A-B757-48E3-911F-803B0089DB3F";
paths = (
{
closed = 1;
nodes = (
"542 555 LINE",
"542 -615 LINE",
"687 -615 LINE",
"687 555 LINE",
"1239 555 LINE",
"1239 700 LINE",
"687 700 LINE",
"687 1705 LINE",
"542 1705 LINE",
"542 700 LINE",
"-10 700 LINE",
"-10 555 LINE"
);
}
);
width = 1229;
}
);
note = uni253C;
unicode = 253C;
},
{
glyphname = uni2550;
lastChange = "2019-12-03 14:54:35 +0000";
layers = (
{
layerId = "BC15D09A-B757-48E3-911F-803B0089DB3F";
paths = (
{
closed = 1;
nodes = (
"1239 735 LINE",
"1239 880 LINE",
"-10 880 LINE",
"-10 735 LINE"
);
},
{
closed = 1;
nodes = (
"1239 375 LINE",
"1239 520 LINE",
"-10 520 LINE",
"-10 375 LINE"
);
}
);
width = 1229;
}
);
note = uni2550;
unicode = 2550;
},
{
glyphname = uni2551;
lastChange = "2019-12-03 14:54:35 +0000";
layers = (
{
layerId = "BC15D09A-B757-48E3-911F-803B0089DB3F";
paths = (
{
closed = 1;
nodes = (
"362 -615 LINE",
"507 -615 LINE",
"507 1705 LINE",
"362 1705 LINE"
);
},
{
closed = 1;
nodes = (
"722 -615 LINE",
"867 -615 LINE",
"867 1705 LINE",
"722 1705 LINE"
);
}
);
width = 1229;
}
);
note = uni2551;
unicode = 2551;
},
{
glyphname = uni2552;
lastChange = "2019-12-03 14:54:35 +0000";
layers = (
{
layerId = "BC15D09A-B757-48E3-911F-803B0089DB3F";
paths = (
{
closed = 1;
nodes = (
"542 -615 LINE",
"687 -615 LINE",
"687 375 LINE",
"1239 375 LINE",
"1239 520 LINE",
"687 520 LINE",
"687 735 LINE",
"1239 735 LINE",
"1239 880 LINE",
"542 880 LINE"
);
}
);
width = 1229;
}
);
note = uni2552;
unicode = 2552;
},
{
glyphname = uni2553;
lastChange = "2019-12-03 14:54:35 +0000";
layers = (
{
layerId = "BC15D09A-B757-48E3-911F-803B0089DB3F";
paths = (
{
closed = 1;
nodes = (
"362 700 LINE",
"362 -615 LINE",
"507 -615 LINE",
"507 555 LINE",
"722 555 LINE",
"722 -615 LINE",
"867 -615 LINE",
"867 555 LINE",
"1239 555 LINE",
"1239 700 LINE"
);
}
);
width = 1229;
}
);
note = uni2553;
unicode = 2553;
},
{
glyphname = uni2554;
lastChange = "2019-12-03 14:54:35 +0000";
layers = (
{
layerId = "BC15D09A-B757-48E3-911F-803B0089DB3F";
paths = (
{
closed = 1;
nodes = (
"362 -615 LINE",
"507 -615 LINE",
"507 735 LINE",
"1239 735 LINE",
"1239 880 LINE",
"362 880 LINE"
);
},
{
closed = 1;
nodes = (
"722 -615 LINE",
"867 -615 LINE",
"867 375 LINE",
"1239 375 LINE",
"1239 520 LINE",
"722 520 LINE"
);
}
);
width = 1229;
}
);
note = uni2554;
unicode = 2554;
},
{
glyphname = uni2555;
lastChange = "2019-12-03 14:54:35 +0000";
layers = (
{
layerId = "BC15D09A-B757-48E3-911F-803B0089DB3F";
paths = (
{
closed = 1;
nodes = (
"542 375 LINE",
"542 -615 LINE",
"687 -615 LINE",
"687 880 LINE",
"-10 880 LINE",
"-10 735 LINE",
"542 735 LINE",
"542 520 LINE",
"-10 520 LINE",
"-10 375 LINE"
);
}
);
width = 1229;
}
);
note = uni2555;
unicode = 2555;
},
{
glyphname = uni2556;
lastChange = "2019-12-03 14:54:35 +0000";
layers = (
{
layerId = "BC15D09A-B757-48E3-911F-803B0089DB3F";
paths = (
{
closed = 1;
nodes = (
"362 555 LINE",
"362 -615 LINE",
"507 -615 LINE",
"507 555 LINE",
"722 555 LINE",
"722 -615 LINE",
"867 -615 LINE",
"867 700 LINE",
"-10 700 LINE",
"-10 555 LINE"
);
}
);
width = 1229;
}
);
note = uni2556;
unicode = 2556;
},
{
glyphname = uni2557;
lastChange = "2019-12-03 14:54:35 +0000";
layers = (
{
layerId = "BC15D09A-B757-48E3-911F-803B0089DB3F";
paths = (
{
closed = 1;
nodes = (
"-10 880 LINE",
"-10 735 LINE",
"722 735 LINE",
"722 -615 LINE",
"867 -615 LINE",
"867 880 LINE"
);
},
{
closed = 1;
nodes = (
"507 520 LINE",
"-10 520 LINE",
"-10 375 LINE",
"362 375 LINE",
"362 -615 LINE",
"507 -615 LINE"
);
}
);
width = 1229;
}
);
note = uni2557;
unicode = 2557;
},
{
glyphname = uni2558;
lastChange = "2019-12-03 14:54:35 +0000";
layers = (
{
layerId = "BC15D09A-B757-48E3-911F-803B0089DB3F";
paths = (
{
closed = 1;
nodes = (
"542 375 LINE",
"1239 375 LINE",
"1239 520 LINE",
"687 520 LINE",
"687 735 LINE",
"1239 735 LINE",
"1239 880 LINE",
"687 880 LINE",
"687 1705 LINE",
"542 1705 LINE"
);
}
);
width = 1229;
}
);
note = uni2558;
unicode = 2558;
},
{
glyphname = uni2559;
lastChange = "2019-12-03 14:54:35 +0000";
layers = (
{
layerId = "BC15D09A-B757-48E3-911F-803B0089DB3F";
paths = (
{
closed = 1;
nodes = (
"722 700 LINE",
"507 700 LINE",
"507 1705 LINE",
"362 1705 LINE",
"362 555 LINE",
"1239 555 LINE",
"1239 700 LINE",
"867 700 LINE",
"867 1705 LINE",
"722 1705 LINE"
);
}
);
width = 1229;
}
);
note = uni2559;
unicode = 2559;
},
{
glyphname = uni255A;
lastChange = "2019-12-03 14:54:35 +0000";
layers = (
{
layerId = "BC15D09A-B757-48E3-911F-803B0089DB3F";
paths = (
{
closed = 1;
nodes = (
"362 375 LINE",
"1239 375 LINE",
"1239 520 LINE",
"507 520 LINE",
"507 1705 LINE",
"362 1705 LINE"
);
},
{
closed = 1;
nodes = (
"722 735 LINE",
"1239 735 LINE",
"1239 880 LINE",
"867 880 LINE",
"867 1705 LINE",
"722 1705 LINE"
);
}
);
width = 1229;
}
);
note = uni255A;
unicode = 255A;
},
{
glyphname = uni255B;
lastChange = "2019-12-03 14:54:35 +0000";
layers = (
{
layerId = "BC15D09A-B757-48E3-911F-803B0089DB3F";
paths = (
{
closed = 1;
nodes = (
"687 375 LINE",
"687 1705 LINE",
"542 1705 LINE",
"542 880 LINE",
"-10 880 LINE",
"-10 735 LINE",
"542 735 LINE",
"542 520 LINE",
"-10 520 LINE",
"-10 375 LINE"
);
}
);
width = 1229;
}
);
note = uni255B;
unicode = 255B;
},
{
glyphname = uni255C;
lastChange = "2019-12-03 14:54:35 +0000";
layers = (
{
layerId = "BC15D09A-B757-48E3-911F-803B0089DB3F";
paths = (
{
closed = 1;
nodes = (
"867 1705 LINE",
"722 1705 LINE",
"722 700 LINE",
"507 700 LINE",
"507 1705 LINE",
"362 1705 LINE",
"362 700 LINE",
"-10 700 LINE",
"-10 555 LINE",
"867 555 LINE"
);
}
);
width = 1229;
}
);
note = uni255C;
unicode = 255C;
},
{
glyphname = uni255D;
lastChange = "2019-12-03 14:54:35 +0000";
layers = (
{
layerId = "BC15D09A-B757-48E3-911F-803B0089DB3F";
paths = (
{
closed = 1;
nodes = (
"867 1705 LINE",
"722 1705 LINE",
"722 520 LINE",
"-10 520 LINE",
"-10 375 LINE",
"867 375 LINE"
);
},
{
closed = 1;
nodes = (
"362 880 LINE",
"-10 880 LINE",
"-10 735 LINE",
"507 735 LINE",
"507 1705 LINE",
"362 1705 LINE"
);
}
);
width = 1229;
}
);
note = uni255D;
unicode = 255D;
},
{
glyphname = uni255E;
lastChange = "2019-12-03 14:54:35 +0000";
layers = (
{
layerId = "BC15D09A-B757-48E3-911F-803B0089DB3F";
paths = (
{
closed = 1;
nodes = (
"542 -615 LINE",
"687 -615 LINE",
"687 375 LINE",
"1239 375 LINE",
"1239 520 LINE",
"687 520 LINE",
"687 735 LINE",
"1239 735 LINE",
"1239 880 LINE",
"687 880 LINE",
"687 1705 LINE",
"542 1705 LINE"
);
}
);
width = 1229;
}
);
note = uni255E;
unicode = 255E;
},
{
glyphname = uni255F;
lastChange = "2019-12-03 14:54:35 +0000";
layers = (
{
layerId = "BC15D09A-B757-48E3-911F-803B0089DB3F";
paths = (
{
closed = 1;
nodes = (
"722 -615 LINE",
"867 -615 LINE",
"867 555 LINE",
"1239 555 LINE",
"1239 700 LINE",
"867 700 LINE",
"867 1705 LINE",
"722 1705 LINE"
);
},
{
closed = 1;
nodes = (
"362 -615 LINE",
"507 -615 LINE",
"507 1705 LINE",
"362 1705 LINE"
);
}
);
width = 1229;
}
);
note = uni255F;
unicode = 255F;
},
{
glyphname = uni2560;
lastChange = "2019-12-03 14:54:35 +0000";
layers = (
{
layerId = "BC15D09A-B757-48E3-911F-803B0089DB3F";
paths = (
{
closed = 1;
nodes = (
"507 1705 LINE",
"362 1705 LINE",
"362 -615 LINE",
"507 -615 LINE"
);
},
{
closed = 1;
nodes = (
"722 -615 LINE",
"867 -615 LINE",
"867 375 LINE",
"1239 375 LINE",
"1239 520 LINE",
"722 520 LINE"
);
},
{
closed = 1;
nodes = (
"722 735 LINE",
"1239 735 LINE",
"1239 880 LINE",
"867 880 LINE",
"867 1705 LINE",
"722 1705 LINE"
);
}
);
width = 1229;
}
);
note = uni2560;
unicode = 2560;
},
{
glyphname = uni2561;
lastChange = "2019-12-03 14:54:35 +0000";
layers = (
{
layerId = "BC15D09A-B757-48E3-911F-803B0089DB3F";
paths = (
{
closed = 1;
nodes = (
"542 375 LINE",
"542 -615 LINE",
"687 -615 LINE",
"687 1705 LINE",
"542 1705 LINE",
"542 880 LINE",
"-10 880 LINE",
"-10 735 LINE",
"542 735 LINE",
"542 520 LINE",
"-10 520 LINE",
"-10 375 LINE"
);
}
);
width = 1229;
}
);
note = uni2561;
unicode = 2561;
},
{
glyphname = uni2562;
lastChange = "2019-12-03 14:54:35 +0000";
layers = (
{
layerId = "BC15D09A-B757-48E3-911F-803B0089DB3F";
paths = (
{
closed = 1;
nodes = (
"362 555 LINE",
"362 -615 LINE",
"507 -615 LINE",
"507 1705 LINE",
"362 1705 LINE",
"362 700 LINE",
"-10 700 LINE",
"-10 555 LINE"
);
},
{
closed = 1;
nodes = (
"722 -615 LINE",
"867 -615 LINE",
"867 1705 LINE",
"722 1705 LINE"
);
}
);
width = 1229;
}
);
note = uni2562;
unicode = 2562;
},
{
glyphname = uni2563;
lastChange = "2019-12-03 14:54:35 +0000";
layers = (
{
layerId = "BC15D09A-B757-48E3-911F-803B0089DB3F";
paths = (
{
closed = 1;
nodes = (
"722 -615 LINE",
"867 -615 LINE",
"867 1705 LINE",
"722 1705 LINE"
);
},
{
closed = 1;
nodes = (
"362 880 LINE",
"-10 880 LINE",
"-10 735 LINE",
"507 735 LINE",
"507 1705 LINE",
"362 1705 LINE"
);
},
{
closed = 1;
nodes = (
"507 520 LINE",
"-10 520 LINE",
"-10 375 LINE",
"362 375 LINE",
"362 -615 LINE",
"507 -615 LINE"
);
}
);
width = 1229;
}
);
note = uni2563;
unicode = 2563;
},
{
glyphname = uni2564;
lastChange = "2019-12-03 14:54:35 +0000";
layers = (
{
layerId = "BC15D09A-B757-48E3-911F-803B0089DB3F";
paths = (
{
closed = 1;
nodes = (
"542 375 LINE",
"542 -615 LINE",
"687 -615 LINE",
"687 375 LINE",
"1239 375 LINE",
"1239 520 LINE",
"-10 520 LINE",
"-10 375 LINE"
);
},
{
closed = 1;
nodes = (
"1239 735 LINE",
"1239 880 LINE",
"-10 880 LINE",
"-10 735 LINE"
);
}
);
width = 1229;
}
);
note = uni2564;
unicode = 2564;
},
{
glyphname = uni2565;
lastChange = "2019-12-03 14:54:35 +0000";
layers = (
{
layerId = "BC15D09A-B757-48E3-911F-803B0089DB3F";
paths = (
{
closed = 1;
nodes = (
"362 555 LINE",
"362 -615 LINE",
"507 -615 LINE",
"507 555 LINE",
"722 555 LINE",
"722 -615 LINE",
"867 -615 LINE",
"867 555 LINE",
"1239 555 LINE",
"1239 700 LINE",
"-10 700 LINE",
"-10 555 LINE"
);
}
);
width = 1229;
}
);
note = uni2565;
unicode = 2565;
},
{
glyphname = uni2566;
lastChange = "2019-12-03 14:54:35 +0000";
layers = (
{
layerId = "BC15D09A-B757-48E3-911F-803B0089DB3F";
paths = (
{
closed = 1;
nodes = (
"507 520 LINE",
"-10 520 LINE",
"-10 375 LINE",
"362 375 LINE",
"362 -615 LINE",
"507 -615 LINE"
);
},
{
closed = 1;
nodes = (
"722 -615 LINE",
"867 -615 LINE",
"867 375 LINE",
"1239 375 LINE",
"1239 520 LINE",
"722 520 LINE"
);
},
{
closed = 1;
nodes = (
"-10 880 LINE",
"-10 735 LINE",
"1239 735 LINE",
"1239 880 LINE"
);
}
);
width = 1229;
}
);
note = uni2566;
unicode = 2566;
},
{
glyphname = uni2567;
lastChange = "2019-12-03 14:54:35 +0000";
layers = (
{
layerId = "BC15D09A-B757-48E3-911F-803B0089DB3F";
paths = (
{
closed = 1;
nodes = (
"1239 735 LINE",
"1239 880 LINE",
"687 880 LINE",
"687 1705 LINE",
"542 1705 LINE",
"542 880 LINE",
"-10 880 LINE",
"-10 735 LINE"
);
},
{
closed = 1;
nodes = (
"1239 375 LINE",
"1239 520 LINE",
"-10 520 LINE",
"-10 375 LINE"
);
}
);
width = 1229;
}
);
note = uni2567;
unicode = 2567;
},
{
glyphname = uni2568;
lastChange = "2019-12-03 14:54:35 +0000";
layers = (
{
layerId = "BC15D09A-B757-48E3-911F-803B0089DB3F";
paths = (
{
closed = 1;
nodes = (
"1239 555 LINE",
"1239 700 LINE",
"867 700 LINE",
"867 1705 LINE",
"722 1705 LINE",
"722 700 LINE",
"507 700 LINE",
"507 1705 LINE",
"362 1705 LINE",
"362 700 LINE",
"-10 700 LINE",
"-10 555 LINE"
);
}
);
width = 1229;
}
);
note = uni2568;
unicode = 2568;
},
{
glyphname = uni2569;
lastChange = "2019-12-03 14:54:35 +0000";
layers = (
{
layerId = "BC15D09A-B757-48E3-911F-803B0089DB3F";
paths = (
{
closed = 1;
nodes = (
"722 735 LINE",
"1239 735 LINE",
"1239 880 LINE",
"867 880 LINE",
"867 1705 LINE",
"722 1705 LINE"
);
},
{
closed = 1;
nodes = (
"362 880 LINE",
"-10 880 LINE",
"-10 735 LINE",
"507 735 LINE",
"507 1705 LINE",
"362 1705 LINE"
);
},
{
closed = 1;
nodes = (
"1239 375 LINE",
"1239 520 LINE",
"-10 520 LINE",
"-10 375 LINE"
);
}
);
width = 1229;
}
);
note = uni2569;
unicode = 2569;
},
{
glyphname = uni256A;
lastChange = "2019-12-03 14:54:35 +0000";
layers = (
{
layerId = "BC15D09A-B757-48E3-911F-803B0089DB3F";
paths = (
{
closed = 1;
nodes = (
"542 375 LINE",
"542 -615 LINE",
"687 -615 LINE",
"687 375 LINE",
"1239 375 LINE",
"1239 520 LINE",
"687 520 LINE",
"687 735 LINE",
"1239 735 LINE",
"1239 880 LINE",
"687 880 LINE",
"687 1705 LINE",
"542 1705 LINE",
"542 880 LINE",
"-10 880 LINE",
"-10 735 LINE",
"542 735 LINE",
"542 520 LINE",
"-10 520 LINE",
"-10 375 LINE"
);
}
);
width = 1229;
}
);
note = uni256A;
unicode = 256A;
},
{
glyphname = uni256B;
lastChange = "2019-12-03 14:54:35 +0000";
layers = (
{
layerId = "BC15D09A-B757-48E3-911F-803B0089DB3F";
paths = (
{
closed = 1;
nodes = (
"722 700 LINE",
"507 700 LINE",
"507 1705 LINE",
"362 1705 LINE",
"362 700 LINE",
"-10 700 LINE",
"-10 555 LINE",
"362 555 LINE",
"362 -615 LINE",
"507 -615 LINE",
"507 555 LINE",
"722 555 LINE",
"722 -615 LINE",
"867 -615 LINE",
"867 555 LINE",
"1239 555 LINE",
"1239 700 LINE",
"867 700 LINE",
"867 1705 LINE",
"722 1705 LINE"
);
}
);
width = 1229;
}
);
note = uni256B;
unicode = 256B;
},
{
glyphname = uni256C;
lastChange = "2019-12-03 14:54:35 +0000";
layers = (
{
layerId = "BC15D09A-B757-48E3-911F-803B0089DB3F";
paths = (
{
closed = 1;
nodes = (
"722 735 LINE",
"1239 735 LINE",
"1239 880 LINE",
"867 880 LINE",
"867 1705 LINE",
"722 1705 LINE"
);
},
{
closed = 1;
nodes = (
"507 520 LINE",
"-10 520 LINE",
"-10 375 LINE",
"362 375 LINE",
"362 -615 LINE",
"507 -615 LINE"
);
},
{
closed = 1;
nodes = (
"722 -615 LINE",
"867 -615 LINE",
"867 375 LINE",
"1239 375 LINE",
"1239 520 LINE",
"722 520 LINE"
);
},
{
closed = 1;
nodes = (
"362 880 LINE",
"-10 880 LINE",
"-10 735 LINE",
"507 735 LINE",
"507 1705 LINE",
"362 1705 LINE"
);
}
);
width = 1229;
}
);
note = uni256C;
unicode = 256C;
},
{
glyphname = upblock;
lastChange = "2019-12-03 14:54:35 +0000";
layers = (
{
layerId = "BC15D09A-B757-48E3-911F-803B0089DB3F";
paths = (
{
closed = 1;
nodes = (
"1229 1705 LINE",
"0 1705 LINE",
"0 627 LINE",
"1229 627 LINE"
);
}
);
width = 1229;
}
);
note = upblock;
unicode = 2580;
},
{
glyphname = dnblock;
lastChange = "2019-12-03 14:54:35 +0000";
layers = (
{
layerId = "BC15D09A-B757-48E3-911F-803B0089DB3F";
paths = (
{
closed = 1;
nodes = (
"1229 627 LINE",
"0 627 LINE",
"0 -615 LINE",
"1229 -615 LINE"
);
}
);
width = 1229;
}
);
note = dnblock;
unicode = 2584;
},
{
glyphname = block;
lastChange = "2019-12-03 14:54:35 +0000";
layers = (
{
layerId = "BC15D09A-B757-48E3-911F-803B0089DB3F";
paths = (
{
closed = 1;
nodes = (
"1229 1705 LINE",
"0 1705 LINE",
"0 -615 LINE",
"1229 -615 LINE"
);
}
);
width = 1229;
}
);
note = block;
unicode = 2588;
},
{
glyphname = lfblock;
lastChange = "2019-12-03 14:54:35 +0000";
layers = (
{
layerId = "BC15D09A-B757-48E3-911F-803B0089DB3F";
paths = (
{
closed = 1;
nodes = (
"615 1705 LINE",
"0 1705 LINE",
"0 -615 LINE",
"615 -615 LINE"
);
}
);
width = 1229;
}
);
note = lfblock;
unicode = 258C;
},
{
glyphname = rtblock;
lastChange = "2019-12-03 14:54:35 +0000";
layers = (
{
layerId = "BC15D09A-B757-48E3-911F-803B0089DB3F";
paths = (
{
closed = 1;
nodes = (
"1229 1705 LINE",
"614 1705 LINE",
"614 -615 LINE",
"1229 -615 LINE"
);
}
);
width = 1229;
}
);
note = rtblock;
unicode = 2590;
},
{
glyphname = ltshade;
lastChange = "2019-12-03 14:54:35 +0000";
layers = (
{
layerId = "BC15D09A-B757-48E3-911F-803B0089DB3F";
paths = (
{
closed = 1;
nodes = (
"0 1222 LINE",
"103 1222 LINE",
"103 1320 LINE",
"0 1320 LINE"
);
},
{
closed = 1;
nodes = (
"410 1222 LINE",
"513 1222 LINE",
"513 1320 LINE",
"410 1320 LINE"
);
},
{
closed = 1;
nodes = (
"820 1222 LINE",
"923 1222 LINE",
"923 1320 LINE",
"820 1320 LINE"
);
},
{
closed = 1;
nodes = (
"205 1029 LINE",
"307 1029 LINE",
"307 1125 LINE",
"205 1125 LINE"
);
},
{
closed = 1;
nodes = (
"615 1029 LINE",
"717 1029 LINE",
"717 1125 LINE",
"615 1125 LINE"
);
},
{
closed = 1;
nodes = (
"1025 1029 LINE",
"1127 1029 LINE",
"1127 1125 LINE",
"1025 1125 LINE"
);
},
{
closed = 1;
nodes = (
"0 837 LINE",
"103 837 LINE",
"103 933 LINE",
"0 933 LINE"
);
},
{
closed = 1;
nodes = (
"410 837 LINE",
"513 837 LINE",
"513 933 LINE",
"410 933 LINE"
);
},
{
closed = 1;
nodes = (
"820 837 LINE",
"923 837 LINE",
"923 933 LINE",
"820 933 LINE"
);
},
{
closed = 1;
nodes = (
"205 642 LINE",
"307 642 LINE",
"307 738 LINE",
"205 738 LINE"
);
},
{
closed = 1;
nodes = (
"615 642 LINE",
"717 642 LINE",
"717 738 LINE",
"615 738 LINE"
);
},
{
closed = 1;
nodes = (
"1025 642 LINE",
"1127 642 LINE",
"1127 738 LINE",
"1025 738 LINE"
);
},
{
closed = 1;
nodes = (
"0 450 LINE",
"103 450 LINE",
"103 546 LINE",
"0 546 LINE"
);
},
{
closed = 1;
nodes = (
"410 450 LINE",
"513 450 LINE",
"513 546 LINE",
"410 546 LINE"
);
},
{
closed = 1;
nodes = (
"820 450 LINE",
"923 450 LINE",
"923 546 LINE",
"820 546 LINE"
);
},
{
closed = 1;
nodes = (
"615 255 LINE",
"717 255 LINE",
"717 351 LINE",
"615 351 LINE"
);
},
{
closed = 1;
nodes = (
"1025 255 LINE",
"1127 255 LINE",
"1127 351 LINE",
"1025 351 LINE"
);
},
{
closed = 1;
nodes = (
"205 255 LINE",
"307 255 LINE",
"307 351 LINE",
"205 351 LINE"
);
},
{
closed = 1;
nodes = (
"820 62 LINE",
"923 62 LINE",
"923 159 LINE",
"820 159 LINE"
);
},
{
closed = 1;
nodes = (
"410 62 LINE",
"513 62 LINE",
"513 159 LINE",
"410 159 LINE"
);
},
{
closed = 1;
nodes = (
"0 62 LINE",
"103 62 LINE",
"103 159 LINE",
"0 159 LINE"
);
},
{
closed = 1;
nodes = (
"205 -130 LINE",
"307 -130 LINE",
"307 -36 LINE",
"205 -36 LINE"
);
},
{
closed = 1;
nodes = (
"615 -130 LINE",
"717 -130 LINE",
"717 -36 LINE",
"615 -36 LINE"
);
},
{
closed = 1;
nodes = (
"1025 -130 LINE",
"1127 -130 LINE",
"1127 -36 LINE",
"1025 -36 LINE"
);
},
{
closed = 1;
nodes = (
"820 -325 LINE",
"923 -325 LINE",
"923 -228 LINE",
"820 -228 LINE"
);
},
{
closed = 1;
nodes = (
"410 -325 LINE",
"513 -325 LINE",
"513 -228 LINE",
"410 -228 LINE"
);
},
{
closed = 1;
nodes = (
"0 -325 LINE",
"103 -325 LINE",
"103 -228 LINE",
"0 -228 LINE"
);
},
{
closed = 1;
nodes = (
"205 -517 LINE",
"307 -517 LINE",
"307 -421 LINE",
"205 -421 LINE"
);
},
{
closed = 1;
nodes = (
"615 -517 LINE",
"717 -517 LINE",
"717 -421 LINE",
"615 -421 LINE"
);
},
{
closed = 1;
nodes = (
"1025 -517 LINE",
"1127 -517 LINE",
"1127 -421 LINE",
"1025 -421 LINE"
);
},
{
closed = 1;
nodes = (
"205 1414 LINE",
"307 1414 LINE",
"307 1512 LINE",
"205 1512 LINE"
);
},
{
closed = 1;
nodes = (
"615 1414 LINE",
"717 1414 LINE",
"717 1512 LINE",
"615 1512 LINE"
);
},
{
closed = 1;
nodes = (
"1025 1414 LINE",
"1127 1414 LINE",
"1127 1512 LINE",
"1025 1512 LINE"
);
},
{
closed = 1;
nodes = (
"0 1609 LINE",
"103 1609 LINE",
"103 1705 LINE",
"0 1705 LINE"
);
},
{
closed = 1;
nodes = (
"410 1609 LINE",
"513 1609 LINE",
"513 1705 LINE",
"410 1705 LINE"
);
},
{
closed = 1;
nodes = (
"820 1609 LINE",
"923 1609 LINE",
"923 1705 LINE",
"820 1705 LINE"
);
}
);
width = 1229;
}
);
note = ltshade;
unicode = 2591;
},
{
glyphname = shade;
lastChange = "2019-12-03 14:54:35 +0000";
layers = (
{
layerId = "BC15D09A-B757-48E3-911F-803B0089DB3F";
paths = (
{
closed = 1;
nodes = (
"102 1222 LINE",
"205 1222 LINE",
"205 1320 LINE",
"102 1320 LINE"
);
},
{
closed = 1;
nodes = (
"307 1222 LINE",
"410 1222 LINE",
"410 1320 LINE",
"307 1320 LINE"
);
},
{
closed = 1;
nodes = (
"512 1222 LINE",
"615 1222 LINE",
"615 1320 LINE",
"512 1320 LINE"
);
},
{
closed = 1;
nodes = (
"717 1222 LINE",
"820 1222 LINE",
"820 1320 LINE",
"717 1320 LINE"
);
},
{
closed = 1;
nodes = (
"922 1222 LINE",
"1025 1222 LINE",
"1025 1320 LINE",
"922 1320 LINE"
);
},
{
closed = 1;
nodes = (
"1127 1222 LINE",
"1230 1222 LINE",
"1230 1320 LINE",
"1127 1320 LINE"
);
},
{
closed = 1;
nodes = (
"0 1029 LINE",
"102 1029 LINE",
"102 1125 LINE",
"0 1125 LINE"
);
},
{
closed = 1;
nodes = (
"205 1029 LINE",
"307 1029 LINE",
"307 1125 LINE",
"205 1125 LINE"
);
},
{
closed = 1;
nodes = (
"410 1029 LINE",
"512 1029 LINE",
"512 1125 LINE",
"410 1125 LINE"
);
},
{
closed = 1;
nodes = (
"615 1029 LINE",
"717 1029 LINE",
"717 1125 LINE",
"615 1125 LINE"
);
},
{
closed = 1;
nodes = (
"820 1029 LINE",
"922 1029 LINE",
"922 1125 LINE",
"820 1125 LINE"
);
},
{
closed = 1;
nodes = (
"1025 1029 LINE",
"1127 1029 LINE",
"1127 1125 LINE",
"1025 1125 LINE"
);
},
{
closed = 1;
nodes = (
"102 837 LINE",
"205 837 LINE",
"205 933 LINE",
"102 933 LINE"
);
},
{
closed = 1;
nodes = (
"307 837 LINE",
"410 837 LINE",
"410 933 LINE",
"307 933 LINE"
);
},
{
closed = 1;
nodes = (
"512 837 LINE",
"615 837 LINE",
"615 933 LINE",
"512 933 LINE"
);
},
{
closed = 1;
nodes = (
"717 837 LINE",
"820 837 LINE",
"820 933 LINE",
"717 933 LINE"
);
},
{
closed = 1;
nodes = (
"922 837 LINE",
"1025 837 LINE",
"1025 933 LINE",
"922 933 LINE"
);
},
{
closed = 1;
nodes = (
"1127 837 LINE",
"1230 837 LINE",
"1230 933 LINE",
"1127 933 LINE"
);
},
{
closed = 1;
nodes = (
"0 642 LINE",
"102 642 LINE",
"102 738 LINE",
"0 738 LINE"
);
},
{
closed = 1;
nodes = (
"205 642 LINE",
"307 642 LINE",
"307 738 LINE",
"205 738 LINE"
);
},
{
closed = 1;
nodes = (
"410 642 LINE",
"512 642 LINE",
"512 738 LINE",
"410 738 LINE"
);
},
{
closed = 1;
nodes = (
"615 642 LINE",
"717 642 LINE",
"717 738 LINE",
"615 738 LINE"
);
},
{
closed = 1;
nodes = (
"820 642 LINE",
"922 642 LINE",
"922 738 LINE",
"820 738 LINE"
);
},
{
closed = 1;
nodes = (
"1025 642 LINE",
"1127 642 LINE",
"1127 738 LINE",
"1025 738 LINE"
);
},
{
closed = 1;
nodes = (
"102 450 LINE",
"205 450 LINE",
"205 546 LINE",
"102 546 LINE"
);
},
{
closed = 1;
nodes = (
"307 450 LINE",
"410 450 LINE",
"410 546 LINE",
"307 546 LINE"
);
},
{
closed = 1;
nodes = (
"512 450 LINE",
"615 450 LINE",
"615 546 LINE",
"512 546 LINE"
);
},
{
closed = 1;
nodes = (
"717 450 LINE",
"820 450 LINE",
"820 546 LINE",
"717 546 LINE"
);
},
{
closed = 1;
nodes = (
"922 450 LINE",
"1025 450 LINE",
"1025 546 LINE",
"922 546 LINE"
);
},
{
closed = 1;
nodes = (
"1127 450 LINE",
"1230 450 LINE",
"1230 546 LINE",
"1127 546 LINE"
);
},
{
closed = 1;
nodes = (
"0 255 LINE",
"102 255 LINE",
"102 351 LINE",
"0 351 LINE"
);
},
{
closed = 1;
nodes = (
"410 255 LINE",
"512 255 LINE",
"512 351 LINE",
"410 351 LINE"
);
},
{
closed = 1;
nodes = (
"615 255 LINE",
"717 255 LINE",
"717 351 LINE",
"615 351 LINE"
);
},
{
closed = 1;
nodes = (
"820 255 LINE",
"922 255 LINE",
"922 351 LINE",
"820 351 LINE"
);
},
{
closed = 1;
nodes = (
"1025 255 LINE",
"1127 255 LINE",
"1127 351 LINE",
"1025 351 LINE"
);
},
{
closed = 1;
nodes = (
"205 255 LINE",
"307 255 LINE",
"307 351 LINE",
"205 351 LINE"
);
},
{
closed = 1;
nodes = (
"1127 62 LINE",
"1230 62 LINE",
"1230 159 LINE",
"1127 159 LINE"
);
},
{
closed = 1;
nodes = (
"922 62 LINE",
"1025 62 LINE",
"1025 159 LINE",
"922 159 LINE"
);
},
{
closed = 1;
nodes = (
"717 62 LINE",
"820 62 LINE",
"820 159 LINE",
"717 159 LINE"
);
},
{
closed = 1;
nodes = (
"512 62 LINE",
"615 62 LINE",
"615 159 LINE",
"512 159 LINE"
);
},
{
closed = 1;
nodes = (
"307 62 LINE",
"410 62 LINE",
"410 159 LINE",
"307 159 LINE"
);
},
{
closed = 1;
nodes = (
"102 62 LINE",
"205 62 LINE",
"205 159 LINE",
"102 159 LINE"
);
},
{
closed = 1;
nodes = (
"0 -130 LINE",
"102 -130 LINE",
"102 -36 LINE",
"0 -36 LINE"
);
},
{
closed = 1;
nodes = (
"205 -130 LINE",
"307 -130 LINE",
"307 -36 LINE",
"205 -36 LINE"
);
},
{
closed = 1;
nodes = (
"410 -130 LINE",
"512 -130 LINE",
"512 -36 LINE",
"410 -36 LINE"
);
},
{
closed = 1;
nodes = (
"615 -130 LINE",
"717 -130 LINE",
"717 -36 LINE",
"615 -36 LINE"
);
},
{
closed = 1;
nodes = (
"820 -130 LINE",
"922 -130 LINE",
"922 -36 LINE",
"820 -36 LINE"
);
},
{
closed = 1;
nodes = (
"1025 -130 LINE",
"1127 -130 LINE",
"1127 -36 LINE",
"1025 -36 LINE"
);
},
{
closed = 1;
nodes = (
"1127 -325 LINE",
"1230 -325 LINE",
"1230 -228 LINE",
"1127 -228 LINE"
);
},
{
closed = 1;
nodes = (
"922 -325 LINE",
"1025 -325 LINE",
"1025 -228 LINE",
"922 -228 LINE"
);
},
{
closed = 1;
nodes = (
"717 -325 LINE",
"820 -325 LINE",
"820 -228 LINE",
"717 -228 LINE"
);
},
{
closed = 1;
nodes = (
"512 -325 LINE",
"615 -325 LINE",
"615 -228 LINE",
"512 -228 LINE"
);
},
{
closed = 1;
nodes = (
"307 -325 LINE",
"410 -325 LINE",
"410 -228 LINE",
"307 -228 LINE"
);
},
{
closed = 1;
nodes = (
"102 -325 LINE",
"205 -325 LINE",
"205 -228 LINE",
"102 -228 LINE"
);
},
{
closed = 1;
nodes = (
"0 -517 LINE",
"102 -517 LINE",
"102 -421 LINE",
"0 -421 LINE"
);
},
{
closed = 1;
nodes = (
"205 -517 LINE",
"307 -517 LINE",
"307 -421 LINE",
"205 -421 LINE"
);
},
{
closed = 1;
nodes = (
"410 -517 LINE",
"512 -517 LINE",
"512 -421 LINE",
"410 -421 LINE"
);
},
{
closed = 1;
nodes = (
"615 -517 LINE",
"717 -517 LINE",
"717 -421 LINE",
"615 -421 LINE"
);
},
{
closed = 1;
nodes = (
"820 -517 LINE",
"922 -517 LINE",
"922 -421 LINE",
"820 -421 LINE"
);
},
{
closed = 1;
nodes = (
"1025 -517 LINE",
"1127 -517 LINE",
"1127 -421 LINE",
"1025 -421 LINE"
);
},
{
closed = 1;
nodes = (
"0 1414 LINE",
"102 1414 LINE",
"102 1512 LINE",
"0 1512 LINE"
);
},
{
closed = 1;
nodes = (
"205 1414 LINE",
"307 1414 LINE",
"307 1512 LINE",
"205 1512 LINE"
);
},
{
closed = 1;
nodes = (
"410 1414 LINE",
"512 1414 LINE",
"512 1512 LINE",
"410 1512 LINE"
);
},
{
closed = 1;
nodes = (
"615 1414 LINE",
"717 1414 LINE",
"717 1512 LINE",
"615 1512 LINE"
);
},
{
closed = 1;
nodes = (
"820 1414 LINE",
"922 1414 LINE",
"922 1512 LINE",
"820 1512 LINE"
);
},
{
closed = 1;
nodes = (
"1025 1414 LINE",
"1127 1414 LINE",
"1127 1512 LINE",
"1025 1512 LINE"
);
},
{
closed = 1;
nodes = (
"102 1609 LINE",
"205 1609 LINE",
"205 1705 LINE",
"102 1705 LINE"
);
},
{
closed = 1;
nodes = (
"307 1609 LINE",
"410 1609 LINE",
"410 1705 LINE",
"307 1705 LINE"
);
},
{
closed = 1;
nodes = (
"512 1609 LINE",
"615 1609 LINE",
"615 1705 LINE",
"512 1705 LINE"
);
},
{
closed = 1;
nodes = (
"717 1609 LINE",
"820 1609 LINE",
"820 1705 LINE",
"717 1705 LINE"
);
},
{
closed = 1;
nodes = (
"922 1609 LINE",
"1025 1609 LINE",
"1025 1705 LINE",
"922 1705 LINE"
);
},
{
closed = 1;
nodes = (
"1127 1609 LINE",
"1230 1609 LINE",
"1230 1705 LINE",
"1127 1705 LINE"
);
}
);
width = 1229;
}
);
note = shade;
unicode = 2592;
},
{
glyphname = dkshade;
lastChange = "2019-12-03 14:54:35 +0000";
layers = (
{
layerId = "BC15D09A-B757-48E3-911F-803B0089DB3F";
paths = (
{
closed = 1;
nodes = (
"1230 -517 LINE",
"1127 -517 LINE",
"1127 -421 LINE",
"1230 -421 LINE",
"1230 -130 LINE",
"1127 -130 LINE",
"1127 -36 LINE",
"1230 -36 LINE",
"1230 255 LINE",
"1127 255 LINE",
"1127 351 LINE",
"1230 351 LINE",
"1230 642 LINE",
"1127 642 LINE",
"1127 738 LINE",
"1230 738 LINE",
"1230 1029 LINE",
"1127 1029 LINE",
"1127 1125 LINE",
"1230 1125 LINE",
"1230 1414 LINE",
"1127 1414 LINE",
"1127 1512 LINE",
"1230 1512 LINE",
"1230 1705 LINE",
"1127 1705 LINE",
"1127 1609 LINE",
"1025 1609 LINE",
"1025 1705 LINE",
"922 1705 LINE",
"922 1609 LINE",
"820 1609 LINE",
"820 1705 LINE",
"717 1705 LINE",
"717 1609 LINE",
"615 1609 LINE",
"615 1705 LINE",
"512 1705 LINE",
"512 1609 LINE",
"410 1609 LINE",
"410 1705 LINE",
"307 1705 LINE",
"307 1609 LINE",
"205 1609 LINE",
"205 1705 LINE",
"102 1705 LINE",
"102 1609 LINE",
"0 1609 LINE",
"0 1320 LINE",
"102 1320 LINE",
"102 1222 LINE",
"0 1222 LINE",
"0 933 LINE",
"102 933 LINE",
"102 835 LINE",
"0 835 LINE",
"0 546 LINE",
"102 546 LINE",
"102 450 LINE",
"0 450 LINE",
"0 159 LINE",
"102 159 LINE",
"102 62 LINE",
"0 62 LINE",
"0 -228 LINE",
"102 -228 LINE",
"102 -325 LINE",
"0 -325 LINE",
"0 -615 LINE",
"1230 -615 LINE"
);
},
{
closed = 1;
nodes = (
"205 1125 LINE",
"205 1029 LINE",
"102 1029 LINE",
"102 1125 LINE"
);
},
{
closed = 1;
nodes = (
"410 1125 LINE",
"410 1029 LINE",
"307 1029 LINE",
"307 1125 LINE"
);
},
{
closed = 1;
nodes = (
"615 1125 LINE",
"615 1029 LINE",
"512 1029 LINE",
"512 1125 LINE"
);
},
{
closed = 1;
nodes = (
"820 1125 LINE",
"820 1029 LINE",
"717 1029 LINE",
"717 1125 LINE"
);
},
{
closed = 1;
nodes = (
"922 835 LINE",
"820 835 LINE",
"820 933 LINE",
"922 933 LINE"
);
},
{
closed = 1;
nodes = (
"717 835 LINE",
"615 835 LINE",
"615 933 LINE",
"717 933 LINE"
);
},
{
closed = 1;
nodes = (
"512 835 LINE",
"410 835 LINE",
"410 933 LINE",
"512 933 LINE"
);
},
{
closed = 1;
nodes = (
"307 835 LINE",
"205 835 LINE",
"205 933 LINE",
"307 933 LINE"
);
},
{
closed = 1;
nodes = (
"205 738 LINE",
"205 642 LINE",
"102 642 LINE",
"102 738 LINE"
);
},
{
closed = 1;
nodes = (
"410 738 LINE",
"410 642 LINE",
"307 642 LINE",
"307 738 LINE"
);
},
{
closed = 1;
nodes = (
"615 738 LINE",
"615 642 LINE",
"512 642 LINE",
"512 738 LINE"
);
},
{
closed = 1;
nodes = (
"820 738 LINE",
"820 642 LINE",
"717 642 LINE",
"717 738 LINE"
);
},
{
closed = 1;
nodes = (
"307 450 LINE",
"205 450 LINE",
"205 546 LINE",
"307 546 LINE"
);
},
{
closed = 1;
nodes = (
"512 546 LINE",
"512 450 LINE",
"410 450 LINE",
"410 546 LINE"
);
},
{
closed = 1;
nodes = (
"717 546 LINE",
"717 450 LINE",
"615 450 LINE",
"615 546 LINE"
);
},
{
closed = 1;
nodes = (
"922 546 LINE",
"922 450 LINE",
"820 450 LINE",
"820 546 LINE"
);
},
{
closed = 1;
nodes = (
"205 351 LINE",
"205 255 LINE",
"102 255 LINE",
"102 351 LINE"
);
},
{
closed = 1;
nodes = (
"615 351 LINE",
"615 255 LINE",
"512 255 LINE",
"512 351 LINE"
);
},
{
closed = 1;
nodes = (
"307 255 LINE",
"307 351 LINE",
"410 351 LINE",
"410 255 LINE"
);
},
{
closed = 1;
nodes = (
"820 351 LINE",
"820 255 LINE",
"717 255 LINE",
"717 351 LINE"
);
},
{
closed = 1;
nodes = (
"820 62 LINE",
"820 159 LINE",
"922 159 LINE",
"922 62 LINE"
);
},
{
closed = 1;
nodes = (
"615 62 LINE",
"615 159 LINE",
"717 159 LINE",
"717 62 LINE"
);
},
{
closed = 1;
nodes = (
"410 62 LINE",
"410 159 LINE",
"512 159 LINE",
"512 62 LINE"
);
},
{
closed = 1;
nodes = (
"205 62 LINE",
"205 159 LINE",
"307 159 LINE",
"307 62 LINE"
);
},
{
closed = 1;
nodes = (
"205 -36 LINE",
"205 -130 LINE",
"102 -130 LINE",
"102 -36 LINE"
);
},
{
closed = 1;
nodes = (
"410 -36 LINE",
"410 -130 LINE",
"307 -130 LINE",
"307 -36 LINE"
);
},
{
closed = 1;
nodes = (
"615 -36 LINE",
"615 -130 LINE",
"512 -130 LINE",
"512 -36 LINE"
);
},
{
closed = 1;
nodes = (
"820 -36 LINE",
"820 -130 LINE",
"717 -130 LINE",
"717 -36 LINE"
);
},
{
closed = 1;
nodes = (
"820 -325 LINE",
"820 -228 LINE",
"922 -228 LINE",
"922 -325 LINE"
);
},
{
closed = 1;
nodes = (
"615 -325 LINE",
"615 -228 LINE",
"717 -228 LINE",
"717 -325 LINE"
);
},
{
closed = 1;
nodes = (
"410 -325 LINE",
"410 -228 LINE",
"512 -228 LINE",
"512 -325 LINE"
);
},
{
closed = 1;
nodes = (
"205 -325 LINE",
"205 -228 LINE",
"307 -228 LINE",
"307 -325 LINE"
);
},
{
closed = 1;
nodes = (
"205 -421 LINE",
"205 -517 LINE",
"102 -517 LINE",
"102 -421 LINE"
);
},
{
closed = 1;
nodes = (
"410 -421 LINE",
"410 -517 LINE",
"307 -517 LINE",
"307 -421 LINE"
);
},
{
closed = 1;
nodes = (
"615 -421 LINE",
"615 -517 LINE",
"512 -517 LINE",
"512 -421 LINE"
);
},
{
closed = 1;
nodes = (
"820 -421 LINE",
"820 -517 LINE",
"717 -517 LINE",
"717 -421 LINE"
);
},
{
closed = 1;
nodes = (
"922 1222 LINE",
"820 1222 LINE",
"820 1320 LINE",
"922 1320 LINE"
);
},
{
closed = 1;
nodes = (
"717 1222 LINE",
"615 1222 LINE",
"615 1320 LINE",
"717 1320 LINE"
);
},
{
closed = 1;
nodes = (
"512 1222 LINE",
"410 1222 LINE",
"410 1320 LINE",
"512 1320 LINE"
);
},
{
closed = 1;
nodes = (
"307 1222 LINE",
"205 1222 LINE",
"205 1320 LINE",
"307 1320 LINE"
);
},
{
closed = 1;
nodes = (
"820 1414 LINE",
"717 1414 LINE",
"717 1512 LINE",
"820 1512 LINE"
);
},
{
closed = 1;
nodes = (
"615 1414 LINE",
"512 1414 LINE",
"512 1512 LINE",
"615 1512 LINE"
);
},
{
closed = 1;
nodes = (
"410 1414 LINE",
"307 1414 LINE",
"307 1512 LINE",
"410 1512 LINE"
);
},
{
closed = 1;
nodes = (
"205 1414 LINE",
"102 1414 LINE",
"102 1512 LINE",
"205 1512 LINE"
);
},
{
closed = 1;
nodes = (
"1025 1125 LINE",
"1025 1029 LINE",
"922 1029 LINE",
"922 1125 LINE"
);
},
{
closed = 1;
nodes = (
"1127 835 LINE",
"1025 835 LINE",
"1025 933 LINE",
"1127 933 LINE"
);
},
{
closed = 1;
nodes = (
"1025 738 LINE",
"1025 642 LINE",
"922 642 LINE",
"922 738 LINE"
);
},
{
closed = 1;
nodes = (
"1127 546 LINE",
"1127 450 LINE",
"1025 450 LINE",
"1025 546 LINE"
);
},
{
closed = 1;
nodes = (
"1025 351 LINE",
"1025 255 LINE",
"922 255 LINE",
"922 351 LINE"
);
},
{
closed = 1;
nodes = (
"1025 62 LINE",
"1025 159 LINE",
"1127 159 LINE",
"1127 62 LINE"
);
},
{
closed = 1;
nodes = (
"1025 -36 LINE",
"1025 -130 LINE",
"922 -130 LINE",
"922 -36 LINE"
);
},
{
closed = 1;
nodes = (
"1025 -325 LINE",
"1025 -228 LINE",
"1127 -228 LINE",
"1127 -325 LINE"
);
},
{
closed = 1;
nodes = (
"1025 -421 LINE",
"1025 -517 LINE",
"922 -517 LINE",
"922 -421 LINE"
);
},
{
closed = 1;
nodes = (
"1127 1222 LINE",
"1025 1222 LINE",
"1025 1320 LINE",
"1127 1320 LINE"
);
},
{
closed = 1;
nodes = (
"1025 1414 LINE",
"922 1414 LINE",
"922 1512 LINE",
"1025 1512 LINE"
);
}
);
width = 1229;
}
);
note = dkshade;
unicode = 2593;
},
{
glyphname = filledbox;
lastChange = "2019-12-03 14:54:35 +0000";
layers = (
{
layerId = "BC15D09A-B757-48E3-911F-803B0089DB3F";
paths = (
{
closed = 1;
nodes = (
"119 117 LINE",
"1110 117 LINE",
"1110 1108 LINE",
"119 1108 LINE"
);
}
);
width = 1229;
}
);
note = filledbox;
unicode = 25A0;
},
{
glyphname = filledrect;
lastChange = "2019-12-03 14:54:35 +0000";
layers = (
{
layerId = "BC15D09A-B757-48E3-911F-803B0089DB3F";
paths = (
{
closed = 1;
nodes = (
"8 70 LINE",
"1221 70 LINE",
"1221 546 LINE",
"8 546 LINE"
);
}
);
width = 1229;
}
);
note = filledrect;
unicode = 25AC;
},
{
glyphname = triagup;
lastChange = "2019-12-03 14:54:35 +0000";
layers = (
{
layerId = "BC15D09A-B757-48E3-911F-803B0089DB3F";
paths = (
{
closed = 1;
nodes = (
"1213 50 LINE",
"615 1198 LINE",
"15 50 LINE"
);
}
);
width = 1229;
}
);
note = triagup;
unicode = 25B2;
},
{
glyphname = triagrt;
lastChange = "2019-12-03 14:54:35 +0000";
layers = (
{
layerId = "BC15D09A-B757-48E3-911F-803B0089DB3F";
paths = (
{
closed = 1;
nodes = (
"52 -27 LINE",
"1227 586 LINE",
"52 1196 LINE"
);
}
);
width = 1229;
}
);
note = triagrt;
unicode = 25BA;
},
{
glyphname = triagdn;
lastChange = "2019-12-03 14:54:35 +0000";
layers = (
{
layerId = "BC15D09A-B757-48E3-911F-803B0089DB3F";
paths = (
{
closed = 1;
nodes = (
"15 1121 LINE",
"615 -27 LINE",
"1213 1121 LINE"
);
}
);
width = 1229;
}
);
note = triagdn;
unicode = 25BC;
},
{
glyphname = triaglf;
lastChange = "2019-12-03 14:54:35 +0000";
layers = (
{
layerId = "BC15D09A-B757-48E3-911F-803B0089DB3F";
paths = (
{
closed = 1;
nodes = (
"2 586 LINE",
"1177 -27 LINE",
"1177 1196 LINE"
);
}
);
width = 1229;
}
);
note = triaglf;
unicode = 25C4;
},
{
glyphname = circle;
lastChange = "2019-12-03 14:54:35 +0000";
layers = (
{
layerId = "BC15D09A-B757-48E3-911F-803B0089DB3F";
paths = (
{
closed = 1;
nodes = (
"163 490 OFFCURVE",
"283 282 OFFCURVE",
"491 162 OFFCURVE",
"613 162 QCURVE SMOOTH",
"736 162 OFFCURVE",
"945 282 OFFCURVE",
"1066 491 OFFCURVE",
"1066 612 QCURVE SMOOTH",
"1066 733 OFFCURVE",
"945 944 OFFCURVE",
"735 1065 OFFCURVE",
"613 1065 QCURVE SMOOTH",
"492 1065 OFFCURVE",
"283 944 OFFCURVE",
"163 734 OFFCURVE",
"163 612 QCURVE SMOOTH"
);
},
{
closed = 1;
nodes = (
"249 712 OFFCURVE",
"347 881 OFFCURVE",
"516 979 OFFCURVE",
"613 979 QCURVE SMOOTH",
"711 979 OFFCURVE",
"882 881 OFFCURVE",
"980 710 OFFCURVE",
"980 612 QCURVE SMOOTH",
"980 514 OFFCURVE",
"880 344 OFFCURVE",
"711 248 OFFCURVE",
"613 248 QCURVE SMOOTH",
"514 248 OFFCURVE",
"347 345 OFFCURVE",
"249 514 OFFCURVE",
"249 612 QCURVE SMOOTH"
);
}
);
width = 1229;
}
);
note = circle;
unicode = 25CB;
},
{
glyphname = invbullet;
lastChange = "2019-12-03 14:54:35 +0000";
layers = (
{
layerId = "BC15D09A-B757-48E3-911F-803B0089DB3F";
paths = (
{
closed = 1;
nodes = (
"1192 0 LINE",
"1192 1155 LINE",
"37 1155 LINE",
"37 0 LINE"
);
},
{
closed = 1;
nodes = (
"172 695 OFFCURVE",
"289 899 OFFCURVE",
"494 1018 OFFCURVE",
"612 1018 QCURVE SMOOTH",
"731 1018 OFFCURVE",
"935 900 OFFCURVE",
"1053 695 OFFCURVE",
"1053 577 QCURVE SMOOTH",
"1053 460 OFFCURVE",
"935 255 OFFCURVE",
"730 137 OFFCURVE",
"612 137 QCURVE SMOOTH",
"493 137 OFFCURVE",
"290 255 OFFCURVE",
"172 459 OFFCURVE",
"172 577 QCURVE SMOOTH"
);
}
);
width = 1229;
}
);
note = invbullet;
unicode = 25D8;
},
{
glyphname = invcircle;
lastChange = "2019-12-03 14:54:35 +0000";
layers = (
{
layerId = "BC15D09A-B757-48E3-911F-803B0089DB3F";
paths = (
{
closed = 1;
nodes = (
"1192 0 LINE",
"1192 1155 LINE",
"37 1155 LINE",
"37 0 LINE"
);
},
{
closed = 1;
nodes = (
"249 480 OFFCURVE",
"347 310 OFFCURVE",
"517 212 OFFCURVE",
"614 212 QCURVE SMOOTH",
"711 212 OFFCURVE",
"881 310 OFFCURVE",
"979 480 OFFCURVE",
"979 577 QCURVE SMOOTH",
"979 674 OFFCURVE",
"881 844 OFFCURVE",
"711 942 OFFCURVE",
"614 942 QCURVE SMOOTH",
"517 942 OFFCURVE",
"347 844 OFFCURVE",
"249 674 OFFCURVE",
"249 577 QCURVE SMOOTH"
);
},
{
closed = 1;
nodes = (
"172 695 OFFCURVE",
"289 899 OFFCURVE",
"494 1018 OFFCURVE",
"612 1018 QCURVE SMOOTH",
"731 1018 OFFCURVE",
"935 900 OFFCURVE",
"1053 695 OFFCURVE",
"1053 577 QCURVE SMOOTH",
"1053 460 OFFCURVE",
"935 255 OFFCURVE",
"730 137 OFFCURVE",
"612 137 QCURVE SMOOTH",
"493 137 OFFCURVE",
"290 255 OFFCURVE",
"172 459 OFFCURVE",
"172 577 QCURVE SMOOTH"
);
}
);
width = 1229;
}
);
note = invcircle;
unicode = 25D9;
},
{
glyphname = smileface;
lastChange = "2019-12-03 14:54:35 +0000";
layers = (
{
layerId = "BC15D09A-B757-48E3-911F-803B0089DB3F";
paths = (
{
closed = 1;
nodes = (
"27 431 OFFCURVE",
"184 159 OFFCURVE",
"456 2 OFFCURVE",
"614 2 QCURVE SMOOTH",
"772 2 OFFCURVE",
"1044 159 OFFCURVE",
"1201 431 OFFCURVE",
"1201 589 QCURVE SMOOTH",
"1201 747 OFFCURVE",
"1043 1019 OFFCURVE",
"772 1176 OFFCURVE",
"614 1176 QCURVE SMOOTH",
"456 1176 OFFCURVE",
"184 1019 OFFCURVE",
"27 747 OFFCURVE",
"27 589 QCURVE SMOOTH"
);
},
{
closed = 1;
nodes = (
"90 728 OFFCURVE",
"231 972 OFFCURVE",
"474 1112 OFFCURVE",
"614 1112 QCURVE SMOOTH",
"755 1112 OFFCURVE",
"997 971 OFFCURVE",
"1137 729 OFFCURVE",
"1137 589 QCURVE SMOOTH",
"1137 450 OFFCURVE",
"997 206 OFFCURVE",
"754 65 OFFCURVE",
"614 65 QCURVE SMOOTH",
"473 65 OFFCURVE",
"230 206 OFFCURVE",
"90 449 OFFCURVE",
"90 589 QCURVE SMOOTH"
);
},
{
closed = 1;
nodes = (
"326 712 OFFCURVE",
"367 671 OFFCURVE",
"396 671 QCURVE SMOOTH",
"425 671 OFFCURVE",
"467 712 OFFCURVE",
"467 741 QCURVE SMOOTH",
"467 770 OFFCURVE",
"425 812 OFFCURVE",
"396 812 QCURVE SMOOTH",
"367 812 OFFCURVE",
"326 770 OFFCURVE",
"326 741 QCURVE SMOOTH"
);
},
{
closed = 1;
nodes = (
"761 712 OFFCURVE",
"802 671 OFFCURVE",
"831 671 QCURVE SMOOTH",
"860 671 OFFCURVE",
"902 712 OFFCURVE",
"902 741 QCURVE SMOOTH",
"902 770 OFFCURVE",
"860 812 OFFCURVE",
"831 812 QCURVE SMOOTH",
"802 812 OFFCURVE",
"761 770 OFFCURVE",
"761 741 QCURVE SMOOTH"
);
},
{
closed = 1;
nodes = (
"295 393 LINE",
"341 324 OFFCURVE",
"428 256 OFFCURVE",
"543 216 OFFCURVE",
"614 216 QCURVE SMOOTH",
"821 216 OFFCURVE",
"933 393 QCURVE",
"875 442 LINE",
"818 365 OFFCURVE",
"694 306 OFFCURVE",
"614 306 QCURVE SMOOTH",
"536 306 OFFCURVE",
"411 364 OFFCURVE",
"353 442 QCURVE"
);
}
);
width = 1229;
}
);
note = smileface;
unicode = 263A;
},
{
glyphname = invsmileface;
lastChange = "2019-12-03 14:54:35 +0000";
layers = (
{
layerId = "BC15D09A-B757-48E3-911F-803B0089DB3F";
paths = (
{
closed = 1;
nodes = (
"27 431 OFFCURVE",
"184 159 OFFCURVE",
"456 2 OFFCURVE",
"614 2 QCURVE SMOOTH",
"772 2 OFFCURVE",
"1044 159 OFFCURVE",
"1201 431 OFFCURVE",
"1201 589 QCURVE SMOOTH",
"1201 747 OFFCURVE",
"1043 1019 OFFCURVE",
"772 1176 OFFCURVE",
"614 1176 QCURVE SMOOTH",
"456 1176 OFFCURVE",
"184 1019 OFFCURVE",
"27 747 OFFCURVE",
"27 589 QCURVE SMOOTH"
);
},
{
closed = 1;
nodes = (
"326 770 OFFCURVE",
"367 812 OFFCURVE",
"396 812 QCURVE SMOOTH",
"425 812 OFFCURVE",
"467 770 OFFCURVE",
"467 741 QCURVE SMOOTH",
"467 712 OFFCURVE",
"425 671 OFFCURVE",
"396 671 QCURVE SMOOTH",
"367 671 OFFCURVE",
"326 712 OFFCURVE",
"326 741 QCURVE SMOOTH"
);
},
{
closed = 1;
nodes = (
"761 770 OFFCURVE",
"802 812 OFFCURVE",
"831 812 QCURVE SMOOTH",
"860 812 OFFCURVE",
"902 770 OFFCURVE",
"902 741 QCURVE SMOOTH",
"902 712 OFFCURVE",
"860 671 OFFCURVE",
"831 671 QCURVE SMOOTH",
"802 671 OFFCURVE",
"761 712 OFFCURVE",
"761 741 QCURVE SMOOTH"
);
},
{
closed = 1;
nodes = (
"353 442 LINE",
"410 365 OFFCURVE",
"535 306 OFFCURVE",
"614 306 QCURVE SMOOTH",
"692 306 OFFCURVE",
"817 364 OFFCURVE",
"875 442 QCURVE",
"933 393 LINE",
"821 216 OFFCURVE",
"614 216 QCURVE SMOOTH",
"541 216 OFFCURVE",
"427 257 OFFCURVE",
"340 325 OFFCURVE",
"295 393 QCURVE"
);
}
);
width = 1229;
}
);
note = invsmileface;
unicode = 263B;
},
{
glyphname = sun;
lastChange = "2019-12-03 14:54:35 +0000";
layers = (
{
layerId = "BC15D09A-B757-48E3-911F-803B0089DB3F";
paths = (
{
closed = 1;
nodes = (
"173 856 LINE",
"337 691 LINE",
"267 604 OFFCURVE",
"258 502 QCURVE",
"26 502 LINE",
"26 430 LINE",
"258 430 LINE",
"268 327 OFFCURVE",
"337 240 QCURVE",
"173 76 LINE",
"224 25 LINE",
"388 189 LINE",
"475 120 OFFCURVE",
"578 110 QCURVE",
"578 -122 LINE",
"650 -122 LINE",
"650 110 LINE",
"752 119 OFFCURVE",
"839 189 QCURVE",
"1004 25 LINE",
"1055 76 LINE",
"890 240 LINE",
"959 327 OFFCURVE",
"969 430 QCURVE",
"1202 430 LINE",
"1202 502 LINE",
"969 502 LINE",
"960 604 OFFCURVE",
"890 691 QCURVE",
"1055 856 LINE",
"1004 907 LINE",
"839 742 LINE",
"752 812 OFFCURVE",
"650 821 QCURVE",
"650 1054 LINE",
"578 1054 LINE",
"578 821 LINE",
"475 811 OFFCURVE",
"388 742 QCURVE",
"224 907 LINE"
);
},
{
closed = 1;
nodes = (
"329 584 OFFCURVE",
"496 751 OFFCURVE",
"614 751 QCURVE SMOOTH",
"732 751 OFFCURVE",
"899 584 OFFCURVE",
"899 466 QCURVE SMOOTH",
"899 348 OFFCURVE",
"734 181 OFFCURVE",
"614 181 QCURVE SMOOTH",
"494 181 OFFCURVE",
"329 348 OFFCURVE",
"329 466 QCURVE SMOOTH"
);
}
);
width = 1229;
}
);
note = sun;
unicode = 263C;
},
{
glyphname = female;
lastChange = "2019-12-03 14:54:35 +0000";
layers = (
{
layerId = "BC15D09A-B757-48E3-911F-803B0089DB3F";
paths = (
{
closed = 1;
nodes = (
"344 304 LINE",
"578 304 LINE",
"578 70 LINE",
"650 70 LINE",
"650 304 LINE",
"884 304 LINE",
"884 376 LINE",
"650 376 LINE",
"650 578 LINE",
"764 593 OFFCURVE",
"912 763 OFFCURVE",
"912 874 QCURVE SMOOTH",
"912 997 OFFCURVE",
"737 1172 OFFCURVE",
"614 1172 QCURVE SMOOTH",
"491 1172 OFFCURVE",
"316 997 OFFCURVE",
"316 874 QCURVE SMOOTH",
"316 762 OFFCURVE",
"464 592 OFFCURVE",
"578 578 QCURVE",
"578 376 LINE",
"344 376 LINE"
);
},
{
closed = 1;
nodes = (
"388 970 OFFCURVE",
"523 1100 OFFCURVE",
"614 1100 QCURVE SMOOTH",
"708 1100 OFFCURVE",
"840 967 OFFCURVE",
"840 874 QCURVE SMOOTH",
"840 782 OFFCURVE",
"709 648 OFFCURVE",
"614 648 QCURVE SMOOTH",
"520 648 OFFCURVE",
"388 780 OFFCURVE",
"388 874 QCURVE SMOOTH"
);
}
);
width = 1229;
}
);
note = female;
unicode = 2640;
},
{
glyphname = male;
lastChange = "2019-12-03 14:54:35 +0000";
layers = (
{
layerId = "BC15D09A-B757-48E3-911F-803B0089DB3F";
paths = (
{
closed = 1;
nodes = (
"164 289 OFFCURVE",
"339 114 OFFCURVE",
"462 114 QCURVE SMOOTH",
"585 114 OFFCURVE",
"760 289 OFFCURVE",
"760 412 QCURVE SMOOTH",
"760 514 OFFCURVE",
"696 595 QCURVE",
"953 852 LINE",
"973 626 LINE",
"1028 624 LINE",
"1028 955 LINE",
"1005 978 LINE",
"674 978 LINE",
"676 923 LINE",
"902 903 LINE",
"645 646 LINE",
"564 710 OFFCURVE",
"462 710 QCURVE SMOOTH",
"339 710 OFFCURVE",
"164 535 OFFCURVE",
"164 412 QCURVE SMOOTH"
);
},
{
closed = 1;
nodes = (
"236 508 OFFCURVE",
"371 638 OFFCURVE",
"462 638 QCURVE SMOOTH",
"556 638 OFFCURVE",
"688 505 OFFCURVE",
"688 412 QCURVE SMOOTH",
"688 320 OFFCURVE",
"557 186 OFFCURVE",
"462 186 QCURVE SMOOTH",
"368 186 OFFCURVE",
"236 318 OFFCURVE",
"236 412 QCURVE SMOOTH"
);
}
);
width = 1229;
}
);
note = male;
unicode = 2642;
},
{
glyphname = spade;
lastChange = "2019-12-03 14:54:35 +0000";
layers = (
{
layerId = "BC15D09A-B757-48E3-911F-803B0089DB3F";
paths = (
{
closed = 1;
nodes = (
"588 1195 LINE",
"588 1110 OFFCURVE",
"446 895 OFFCURVE",
"337 810 QCURVE SMOOTH",
"201 701 OFFCURVE",
"102 555 OFFCURVE",
"102 478 QCURVE SMOOTH",
"102 370 OFFCURVE",
"237 240 OFFCURVE",
"337 240 QCURVE SMOOTH",
"396 240 OFFCURVE",
"528 297 OFFCURVE",
"566 340 QCURVE",
"566 207 OFFCURVE",
"391 56 OFFCURVE",
"246 56 QCURVE",
"246 0 LINE",
"982 0 LINE",
"982 56 LINE",
"837 56 OFFCURVE",
"662 207 OFFCURVE",
"662 340 QCURVE",
"699 297 OFFCURVE",
"831 240 OFFCURVE",
"891 240 QCURVE SMOOTH",
"990 240 OFFCURVE",
"1126 370 OFFCURVE",
"1126 478 QCURVE SMOOTH",
"1126 557 OFFCURVE",
"1021 708 OFFCURVE",
"891 810 QCURVE SMOOTH",
"782 896 OFFCURVE",
"640 1109 OFFCURVE",
"640 1195 QCURVE"
);
}
);
width = 1229;
}
);
note = spade;
unicode = 2660;
},
{
glyphname = club;
lastChange = "2019-12-03 14:54:35 +0000";
layers = (
{
layerId = "BC15D09A-B757-48E3-911F-803B0089DB3F";
paths = (
{
closed = 1;
nodes = (
"529 1195 OFFCURVE",
"405 1134 OFFCURVE",
"337 1025 OFFCURVE",
"337 961 QCURVE SMOOTH",
"337 894 OFFCURVE",
"404 761 OFFCURVE",
"455 725 QCURVE",
"400 728 LINE",
"265 728 OFFCURVE",
"97 592 OFFCURVE",
"97 478 QCURVE SMOOTH",
"97 370 OFFCURVE",
"232 240 OFFCURVE",
"332 240 QCURVE SMOOTH",
"395 240 OFFCURVE",
"530 299 OFFCURVE",
"566 340 QCURVE",
"566 207 OFFCURVE",
"391 56 OFFCURVE",
"246 56 QCURVE",
"246 0 LINE",
"982 0 LINE",
"982 56 LINE",
"837 56 OFFCURVE",
"662 207 OFFCURVE",
"662 340 QCURVE",
"699 299 OFFCURVE",
"835 240 OFFCURVE",
"896 240 QCURVE SMOOTH",
"995 240 OFFCURVE",
"1131 370 OFFCURVE",
"1131 478 QCURVE SMOOTH",
"1131 591 OFFCURVE",
"963 728 OFFCURVE",
"828 728 QCURVE",
"773 725 LINE",
"824 761 OFFCURVE",
"891 894 OFFCURVE",
"891 961 QCURVE SMOOTH",
"891 1025 OFFCURVE",
"823 1134 OFFCURVE",
"699 1195 OFFCURVE",
"614 1195 QCURVE SMOOTH"
);
}
);
width = 1229;
}
);
note = club;
unicode = 2663;
},
{
glyphname = heart;
lastChange = "2019-12-03 14:54:35 +0000";
layers = (
{
layerId = "BC15D09A-B757-48E3-911F-803B0089DB3F";
paths = (
{
closed = 1;
nodes = (
"640 -1 LINE",
"640 48 OFFCURVE",
"694 167 OFFCURVE",
"783 301 OFFCURVE",
"891 434 QCURVE SMOOTH",
"1126 719 OFFCURVE",
"1126 880 QCURVE SMOOTH",
"1126 949 OFFCURVE",
"1059 1064 OFFCURVE",
"945 1128 OFFCURVE",
"881 1128 QCURVE SMOOTH",
"793 1128 OFFCURVE",
"647 998 OFFCURVE",
"617 898 QCURVE",
"611 898 LINE",
"581 997 OFFCURVE",
"436 1128 OFFCURVE",
"347 1128 QCURVE SMOOTH",
"283 1128 OFFCURVE",
"169 1064 OFFCURVE",
"102 950 OFFCURVE",
"102 880 QCURVE SMOOTH",
"102 719 OFFCURVE",
"337 434 QCURVE SMOOTH",
"469 276 OFFCURVE",
"588 67 OFFCURVE",
"588 -1 QCURVE"
);
}
);
width = 1229;
}
);
note = heart;
unicode = 2665;
},
{
glyphname = diamond;
lastChange = "2019-12-03 14:54:35 +0000";
layers = (
{
layerId = "BC15D09A-B757-48E3-911F-803B0089DB3F";
paths = (
{
closed = 1;
nodes = (
"381 313 OFFCURVE",
"608 -1 QCURVE",
"620 -1 LINE",
"847 313 OFFCURVE",
"1096 597 QCURVE",
"1096 600 LINE",
"847 884 OFFCURVE",
"620 1198 QCURVE",
"608 1198 LINE",
"381 884 OFFCURVE",
"132 600 QCURVE",
"132 597 LINE"
);
}
);
width = 1229;
}
);
note = diamond;
unicode = 2666;
},
{
glyphname = musicalnote;
lastChange = "2019-12-03 14:54:35 +0000";
layers = (
{
layerId = "BC15D09A-B757-48E3-911F-803B0089DB3F";
paths = (
{
closed = 1;
nodes = (
"834 272 LINE",
"882 323 OFFCURVE",
"937 459 OFFCURVE",
"937 531 QCURVE SMOOTH",
"937 633 OFFCURVE",
"860 798 OFFCURVE",
"773 887 QCURVE SMOOTH",
"652 1010 OFFCURVE",
"640 1126 QCURVE",
"602 1126 LINE",
"602 290 LINE",
"560 313 OFFCURVE",
"502 313 QCURVE SMOOTH",
"419 313 OFFCURVE",
"282 213 OFFCURVE",
"282 148 QCURVE SMOOTH",
"282 92 OFFCURVE",
"373 24 OFFCURVE",
"442 24 QCURVE SMOOTH",
"528 24 OFFCURVE",
"664 123 OFFCURVE",
"664 191 QCURVE SMOOTH",
"664 789 LINE",
"754 759 OFFCURVE",
"864 594 OFFCURVE",
"864 490 QCURVE SMOOTH",
"864 425 OFFCURVE",
"823 310 OFFCURVE",
"788 272 QCURVE"
);
}
);
width = 1229;
}
);
note = musicalnote;
unicode = 266A;
},
{
glyphname = musicalnotedbl;
lastChange = "2019-12-03 14:54:35 +0000";
layers = (
{
layerId = "BC15D09A-B757-48E3-911F-803B0089DB3F";
paths = (
{
closed = 1;
nodes = (
"948 44 OFFCURVE",
"1084 143 OFFCURVE",
"1084 211 QCURVE SMOOTH",
"1084 1155 LINE",
"432 1055 LINE",
"432 220 LINE",
"390 243 OFFCURVE",
"332 243 QCURVE SMOOTH",
"249 243 OFFCURVE",
"112 143 OFFCURVE",
"112 78 QCURVE SMOOTH",
"112 22 OFFCURVE",
"203 -46 OFFCURVE",
"272 -46 QCURVE SMOOTH",
"358 -46 OFFCURVE",
"494 53 OFFCURVE",
"494 121 QCURVE SMOOTH",
"494 664 LINE",
"1022 745 LINE",
"1022 310 LINE",
"980 333 OFFCURVE",
"922 333 QCURVE SMOOTH",
"839 333 OFFCURVE",
"702 233 OFFCURVE",
"702 168 QCURVE SMOOTH",
"702 112 OFFCURVE",
"793 44 OFFCURVE",
"862 44 QCURVE SMOOTH"
);
},
{
closed = 1;
nodes = (
"494 924 LINE",
"1022 1005 LINE",
"1022 885 LINE",
"494 804 LINE"
);
}
);
width = 1229;
}
);
note = musicalnotedbl;
unicode = 266B;
},
{
glyphname = IJ;
lastChange = "2019-12-03 14:54:35 +0000";
layers = (
{
layerId = "BC15D09A-B757-48E3-911F-803B0089DB3F";
paths = (
{
closed = 1;
nodes = (
"98 0 LINE",
"289 0 LINE",
"289 1349 LINE",
"98 1349 LINE"
);
},
{
closed = 1;
nodes = (
"686 135 OFFCURVE",
"583 252 OFFCURVE",
"563 381 QCURVE",
"377 350 LINE",
"414 153 OFFCURVE",
"599 -20 OFFCURVE",
"767 -20 QCURVE SMOOTH",
"955 -20 OFFCURVE",
"1157 209 OFFCURVE",
"1157 420 QCURVE SMOOTH",
"1157 1349 LINE",
"696 1349 LINE",
"696 1193 LINE",
"967 1193 LINE",
"967 416 LINE SMOOTH",
"967 278 OFFCURVE",
"872 135 OFFCURVE",
"768 135 QCURVE SMOOTH"
);
}
);
width = 1229;
}
);
note = IJ;
unicode = 0132;
},
{
glyphname = ij;
lastChange = "2019-12-03 14:54:35 +0000";
layers = (
{
layerId = "BC15D09A-B757-48E3-911F-803B0089DB3F";
paths = (
{
closed = 1;
nodes = (
"236 0 LINE",
"416 0 LINE",
"416 1082 LINE",
"237 1082 LINE"
);
},
{
closed = 1;
nodes = (
"416 1292 LINE",
"416 1484 LINE",
"216 1484 LINE",
"216 1292 LINE"
);
},
{
closed = 1;
nodes = (
"881 -25 LINE SMOOTH",
"881 -144 OFFCURVE",
"743 -276 OFFCURVE",
"615 -276 QCURVE SMOOTH",
"492 -276 OFFCURVE",
"342 -242 QCURVE",
"342 -382 LINE",
"387 -399 OFFCURVE",
"551 -425 OFFCURVE",
"630 -425 QCURVE SMOOTH",
"837 -425 OFFCURVE",
"1061 -215 OFFCURVE",
"1061 -28 QCURVE SMOOTH",
"1061 1082 LINE",
"881 1082 LINE"
);
},
{
closed = 1;
nodes = (
"1061 1292 LINE",
"1061 1484 LINE",
"861 1484 LINE",
"861 1292 LINE"
);
}
);
width = 1229;
}
);
note = ij;
unicode = 0133;
},
{
glyphname = minute;
lastChange = "2019-12-03 14:54:35 +0000";
layers = (
{
layerId = "BC15D09A-B757-48E3-911F-803B0089DB3F";
paths = (
{
closed = 1;
nodes = (
"726 1484 LINE",
"502 1484 LINE",
"543 845 LINE",
"684 845 LINE"
);
}
);
width = 1229;
}
);
note = minute;
unicode = 2032;
},
{
glyphname = second;
lastChange = "2019-12-03 14:54:35 +0000";
layers = (
{
layerId = "BC15D09A-B757-48E3-911F-803B0089DB3F";
paths = (
{
closed = 1;
nodes = (
"950 1484 LINE",
"726 1484 LINE",
"766 845 LINE",
"908 845 LINE"
);
},
{
closed = 1;
nodes = (
"501 1484 LINE",
"277 1484 LINE",
"318 845 LINE",
"459 845 LINE"
);
}
);
width = 1229;
}
);
note = second;
unicode = 2033;
},
{
glyphname = uni2105;
lastChange = "2019-12-03 14:54:35 +0000";
layers = (
{
layerId = "BC15D09A-B757-48E3-911F-803B0089DB3F";
paths = (
{
closed = 1;
nodes = (
"1229 825 OFFCURVE",
"963 825 QCURVE SMOOTH",
"827 825 OFFCURVE",
"694 615 OFFCURVE",
"694 404 QCURVE SMOOTH",
"694 203 OFFCURVE",
"831 -12 OFFCURVE",
"959 -12 QCURVE SMOOTH",
"1087 -12 OFFCURVE",
"1229 203 OFFCURVE",
"1229 404 QCURVE SMOOTH"
);
},
{
closed = 1;
nodes = (
"1081 246 OFFCURVE",
"1022 98 OFFCURVE",
"961 98 QCURVE SMOOTH",
"898 98 OFFCURVE",
"841 250 OFFCURVE",
"841 404 QCURVE SMOOTH",
"841 568 OFFCURVE",
"897 714 OFFCURVE",
"963 714 QCURVE SMOOTH",
"1025 714 OFFCURVE",
"1081 569 OFFCURVE",
"1081 404 QCURVE SMOOTH"
);
},
{
closed = 1;
nodes = (
"146 1247 OFFCURVE",
"271 1247 QCURVE SMOOTH",
"316 1247 OFFCURVE",
"359 1162 OFFCURVE",
"369 1090 QCURVE",
"512 1101 LINE",
"491 1225 OFFCURVE",
"369 1360 OFFCURVE",
"275 1360 QCURVE SMOOTH",
"140 1360 OFFCURVE",
"0 1144 OFFCURVE",
"0 942 QCURVE SMOOTH",
"0 745 OFFCURVE",
"141 522 OFFCURVE",
"276 522 QCURVE SMOOTH",
"374 522 OFFCURVE",
"504 675 OFFCURVE",
"517 796 QCURVE",
"376 805 LINE",
"355 636 OFFCURVE",
"272 636 QCURVE SMOOTH",
"215 636 OFFCURVE",
"146 801 OFFCURVE",
"146 945 QCURVE SMOOTH"
);
},
{
closed = 1;
nodes = (
"1022 1349 LINE",
"907 1349 LINE",
"204 0 LINE",
"322 0 LINE"
);
}
);
width = 1229;
}
);
note = uni2105;
unicode = 2105;
},
{
glyphname = uni2113;
lastChange = "2019-12-03 14:54:35 +0000";
layers = (
{
layerId = "BC15D09A-B757-48E3-911F-803B0089DB3F";
paths = (
{
closed = 1;
nodes = (
"656 78 OFFCURVE",
"584 197 OFFCURVE",
"584 298 QCURVE SMOOTH",
"584 542 LINE",
"727 624 OFFCURVE",
"903 944 OFFCURVE",
"903 1129 QCURVE SMOOTH",
"903 1266 OFFCURVE",
"777 1429 OFFCURVE",
"672 1429 QCURVE SMOOTH",
"549 1429 OFFCURVE",
"418 1277 OFFCURVE",
"418 1130 QCURVE SMOOTH",
"418 543 LINE",
"365 515 OFFCURVE",
"286 484 QCURVE",
"286 411 LINE",
"367 442 OFFCURVE",
"418 469 QCURVE",
"418 294 LINE SMOOTH",
"418 146 OFFCURVE",
"551 -20 OFFCURVE",
"666 -20 QCURVE SMOOTH",
"885 -20 OFFCURVE",
"925 291 QCURVE",
"856 291 LINE",
"839 182 OFFCURVE",
"761 78 OFFCURVE",
"710 78 QCURVE SMOOTH"
);
},
{
closed = 1;
nodes = (
"812 966 OFFCURVE",
"686 691 OFFCURVE",
"584 622 QCURVE",
"584 1129 LINE SMOOTH",
"584 1250 OFFCURVE",
"635 1353 OFFCURVE",
"685 1353 QCURVE SMOOTH",
"740 1353 OFFCURVE",
"812 1221 OFFCURVE",
"812 1122 QCURVE SMOOTH"
);
}
);
width = 1229;
}
);
note = uni2113;
unicode = 2113;
},
{
glyphname = uni25A1;
lastChange = "2019-12-03 14:54:35 +0000";
layers = (
{
layerId = "BC15D09A-B757-48E3-911F-803B0089DB3F";
paths = (
{
closed = 1;
nodes = (
"2 0 LINE",
"1227 0 LINE",
"1227 1225 LINE",
"2 1225 LINE"
);
},
{
closed = 1;
nodes = (
"1151 1149 LINE",
"1151 76 LINE",
"78 76 LINE",
"78 1149 LINE"
);
}
);
width = 1229;
}
);
note = uni25A1;
unicode = 25A1;
},
{
glyphname = uni25AA;
lastChange = "2019-12-03 14:54:35 +0000";
layers = (
{
layerId = "BC15D09A-B757-48E3-911F-803B0089DB3F";
paths = (
{
closed = 1;
nodes = (
"868 891 LINE",
"360 891 LINE",
"360 383 LINE",
"868 383 LINE"
);
}
);
width = 1229;
}
);
note = uni25AA;
unicode = 25AA;
},
{
glyphname = uni25AB;
lastChange = "2019-12-03 14:54:35 +0000";
layers = (
{
layerId = "BC15D09A-B757-48E3-911F-803B0089DB3F";
paths = (
{
closed = 1;
nodes = (
"868 891 LINE",
"360 891 LINE",
"360 383 LINE",
"868 383 LINE"
);
},
{
closed = 1;
nodes = (
"436 459 LINE",
"436 813 LINE",
"792 813 LINE",
"792 459 LINE"
);
}
);
width = 1229;
}
);
note = uni25AB;
unicode = 25AB;
},
{
glyphname = uni25CF;
lastChange = "2019-12-03 14:54:35 +0000";
layers = (
{
layerId = "BC15D09A-B757-48E3-911F-803B0089DB3F";
paths = (
{
closed = 1;
nodes = (
"500 1018 OFFCURVE",
"285 899 OFFCURVE",
"174 686 OFFCURVE",
"174 578 QCURVE SMOOTH",
"174 396 OFFCURVE",
"432 137 OFFCURVE",
"614 137 QCURVE SMOOTH",
"797 137 OFFCURVE",
"1055 395 OFFCURVE",
"1055 578 QCURVE SMOOTH",
"1055 684 OFFCURVE",
"941 902 OFFCURVE",
"724 1018 OFFCURVE",
"614 1018 QCURVE SMOOTH"
);
}
);
width = 1229;
}
);
note = uni25CF;
unicode = 25CF;
},
